<svg width="206" height="106" viewBox="0 0 206 106" fill="none" xmlns="http://www.w3.org/2000/svg">
<path fill-rule="evenodd" clip-rule="evenodd" d="M26.2562 86.1803C26.4508 86.192 26.6443 86.1981 26.8379 86.2042C26.6384 86.2221 26.4461 86.2216 26.2573 86.1859L26.2562 86.1803ZM188.66 92.3171C188.66 92.3171 189.838 89.8376 192.442 89.2858C197.367 88.2527 195.663 86.3315 196.706 84.8601C197.411 83.872 197.833 82.9487 197.751 82.2154C197.113 76.5371 204.711 77.3862 199.119 72.5256C200.642 72.48 197.293 71.1771 198.848 69.0236C200.407 66.8692 203.976 70.6705 204.702 64.9238C205.433 59.1762 206.572 62.9951 203.389 57.7559C200.201 52.5175 202.187 51.3518 198.559 51.8641C194.933 52.382 194.347 52.3644 192.006 52.3055C189.665 52.2465 188.561 50.699 184.594 50.2964C180.632 49.8931 180.099 50.9425 175.863 50.9898C175.187 50.8583 174.634 50.8361 174.182 50.8853C172.617 50.7003 172.376 48.3668 170.758 47.7735C168.866 47.2091 167 46.56 167.295 45.5572C168.22 42.468 168.198 42.4423 163.825 40.3604C158.434 37.7989 157.063 33.8177 154.381 32.8383C151.699 31.8589 148.432 30.8675 145.213 30.7878C141.995 30.7082 144.43 32.5849 138.483 30.6197C132.54 28.6481 131.783 25.2928 129.762 25.8454C127.747 26.4027 130.548 29.8146 124.835 26.6303C119.117 23.4525 120.503 21.9651 118.197 22.5192C116.967 22.8105 115.87 22.5043 114.678 22.1891C107.035 15.7129 102.939 9.83988 100.579 9.47754C98.2233 9.11441 97.5286 6.97495 92.8464 6.85701C88.1642 6.73907 90.3669 4.06223 83.9566 4.50557C77.5516 4.94813 71.6009 -2.78331 68.3855 2.90326C65.17 8.58984 72.7651 8.48012 65.17 8.58982C57.5762 8.70513 56.3577 7.76396 55.0521 10.7649C53.7465 13.7658 54.39 9.22738 49.9366 13.6694C45.4885 18.1107 45.9165 15.089 45.2381 19.0144C44.561 22.9453 42.6052 18.9522 42.0227 24.7009C41.4413 30.4553 47.2896 24.8308 41.4555 30.7594C35.6214 36.688 35.3143 36.3751 33.4175 39.3593C31.7005 42.0742 33.8277 39.8765 32.6387 42.5945C32.4817 42.6581 32.3111 42.7352 32.1299 42.814C29.3156 44.0903 29.5052 43.08 28.6799 45.935C27.5334 45.7055 26.3691 45.7849 25.3432 46.8146C22.983 49.1853 19.864 51.0786 19.1736 51.8219C18.4779 52.566 16.5527 54.9419 14.3025 59.4401C12.047 63.9392 13.3041 62.754 10.3913 62.9816C7.47848 63.2093 6.79871 61.2988 5.96906 63.6343C5.13825 65.9642 6.55384 65.0908 5.89619 69.3251C5.23321 73.5602 5.23881 70.7511 3.46619 76.167C1.70006 81.5876 -1.24644 81.2078 3.7334 82.8535C8.71207 84.4936 11.3515 84.5606 12.1476 84.5066C12.9478 84.4463 19.0794 84.2983 21.9773 85.2863C22.687 85.5283 23.398 85.7238 24.1008 85.8801C22.172 85.8758 22.3379 87.2729 21.161 91.0464C19.6541 95.8684 21.8219 92.5784 18.7894 96.1462C15.757 99.714 21.2918 105.011 25.864 103.001C30.4363 100.991 31.621 101.325 34.0579 103.207C36.4949 105.09 38.7881 104.237 41.0813 103.384C43.3799 102.531 45.6394 101.071 45.6394 101.071C45.6394 101.071 45.5347 98.9423 47.9947 101.434C50.46 103.924 47.8271 103.862 51.6306 103.954C55.4352 104.051 55.8665 106.796 60.1174 104.169C64.3695 101.548 65.1405 105.207 65.7981 100.973C66.4558 96.7387 67.9246 96.7762 67.9246 96.7762C67.9246 96.7762 68.6829 91.6314 70.7414 91.8361C72.8 92.0408 70.8423 93.8148 72.8 92.0408C74.7577 90.2669 72.5081 89.1485 76.8637 88.6501C81.2193 88.1518 82.2271 87.8759 82.2271 87.8759C82.2271 87.8759 83.5697 91.2488 86.6257 91.0231C89.6818 90.7975 88.5215 90.9225 89.9828 93.8386C91.4453 96.7604 89.5647 94.2817 91.3255 97.2114C93.0862 100.141 95.3652 98.9843 97.5567 99.0365C99.7492 99.0943 98.9581 97.8589 101.174 98.3698C103.395 98.8798 104.073 97.838 105.104 98.0151C106.135 98.1923 105.583 101.671 108.121 97.0266C110.66 92.3875 109.02 91.7398 110.65 92.2331C112.281 92.7319 113.298 92.6049 113.298 92.6049C113.298 92.6049 116.968 92.9243 117.784 91.7292C118.599 90.5341 118.096 89.3083 119.597 90.0285C121.094 90.7495 121.117 91.2025 122.001 89.9395C122.889 88.6702 121.041 88.3188 123.023 88.5233C125.009 88.7214 125.153 88.729 125.153 88.729C125.153 88.729 126.841 90.2884 128.007 88.7989C128.268 88.4715 128.548 88.1528 128.832 87.8567C130.674 88.2609 131.787 87.9348 132.775 87.5405C133.849 87.1103 138.225 85.5517 138.805 85.4892C138.869 85.4797 138.975 85.4872 139.113 85.49C146.143 87.6941 146.366 89.8395 151.277 87.3754C152.465 87.593 153.49 87.6325 154.178 87.1437C155.032 87.7054 155.971 88.2025 156.395 88.29C157.206 88.465 159.973 95.3606 161.456 95.7022C162.933 96.0446 163.95 95.9176 165.25 95.6449C166.549 95.3722 165.14 93.5174 166.703 95.5287C168.266 97.54 169.576 97.4218 170.315 97.5958C171.054 97.7642 169.683 93.7831 172.302 96.4302C174.92 99.0773 173.284 98.5792 175.962 99.4089C178.634 100.234 180.658 99.831 180.658 99.831C180.658 99.831 181.69 100.008 184.381 98.4091C187.077 96.8035 187.318 98.6344 188.378 96.5364C189.439 94.4383 187.776 96.4692 188.631 92.3098L188.66 92.3171Z" fill="url(#paint0_radial_101_300)"/>
<defs>
<radialGradient id="paint0_radial_101_300" cx="0" cy="0" r="1" gradientUnits="userSpaceOnUse" gradientTransform="translate(103.246 53.055) rotate(90) scale(52.2484 102.268)">
<stop stop-color="#3D6543" stop-opacity="0.8"/>
<stop offset="1" stop-color="#3D6543" stop-opacity="0.2"/>
</radialGradient>
</defs>
</svg>
