<svg width="161" height="112" viewBox="0 0 161 112" fill="none" xmlns="http://www.w3.org/2000/svg">
<g opacity="0.8">
<path d="M80.5 14C47.2073 14 20.125 32.8398 20.125 56C20.125 79.1602 47.2073 98 80.5 98C113.793 98 140.875 79.1602 140.875 56C140.875 32.8398 113.793 14 80.5 14ZM80.5 21C90.4053 21 99.603 23.0508 107.386 26.4688L103.298 26.7969L104.241 33.7969L98.8955 32.1562L94.4932 34.7812L95.2793 42L106.128 39.5938L119.649 42.6562L116.19 47.0312L108.015 43.5312L99.21 44.4062L90.5625 48.8906L85.6885 59.3906L95.4365 64.9688C95.4365 64.9688 105.44 63.7656 105.971 63.7656C106.501 63.7656 110.216 70.1094 110.216 70.1094L102.197 87.6094C95.6527 89.7832 88.2631 91 80.5 91C78.9081 91 77.3358 90.877 75.7832 90.7812L70.2803 84.1094L75.626 70.1094L55.3438 59.5H36.6338L31.7598 52.6094L45.2812 45.1719L65.4062 38.5L62.4189 29.2031L71.0664 27.8906L75.1543 31.8281L90.248 29.8594L87.5752 21.7656L76.4121 21.2188C77.7485 21.1504 79.1243 21 80.5 21ZM74.8398 21.2188L66.9785 23.5156L63.2051 23.0781C66.9196 22.1348 70.7716 21.5332 74.8398 21.2188ZM30.502 58.7344L35.376 62.6719V69.8906L44.8096 77.1094H50.627L64.9346 89.3594C45.9495 85.0801 32.0939 73.1172 30.502 58.7344Z" fill="url(#paint0_linear_101_234)"/>
</g>
<defs>
<linearGradient id="paint0_linear_101_234" x1="80.5" y1="14" x2="80.5" y2="98" gradientUnits="userSpaceOnUse">
<stop stop-color="#2F544C"/>
<stop offset="1" stop-color="#DEE1E8" stop-opacity="0.75"/>
</linearGradient>
</defs>
</svg>
