<svg width="438" height="363" viewBox="0 0 438 363" fill="none" xmlns="http://www.w3.org/2000/svg">
<path d="M323.541 181.27C323.541 228.959 276.78 267.618 219.095 267.618C161.412 267.618 114.649 228.959 114.649 181.27C114.649 133.582 161.41 94.9229 219.095 94.9229C276.778 94.9229 323.541 133.582 323.541 181.27Z" fill="url(#paint0_radial_98_304)"/>
<path d="M437.982 181.24C437.982 281.198 339.965 362.226 219.059 362.226C98.1523 362.226 0.135498 281.194 0.135498 181.24C0.135498 81.282 98.1523 0.253906 219.059 0.253906C339.965 0.253906 437.982 81.2852 437.982 181.24Z" fill="url(#paint1_radial_98_304)"/>
<g filter="url(#filter0_f_98_304)">
<path d="M276.58 181.018C276.58 208.192 250.698 230.22 218.77 230.22C186.843 230.22 160.96 208.192 160.96 181.018C160.96 153.845 186.843 131.816 218.77 131.816C250.698 131.816 276.58 153.845 276.58 181.018Z" fill="url(#paint2_radial_98_304)"/>
</g>
<g filter="url(#filter1_f_98_304)">
<path d="M236.419 181.108C236.419 189.108 228.574 195.594 218.898 195.594C209.221 195.594 201.376 189.108 201.376 181.108C201.376 173.108 209.221 166.622 218.898 166.622C228.574 166.622 236.419 173.108 236.419 181.108Z" fill="#E5DECB"/>
</g>
<defs>
<filter id="filter0_f_98_304" x="91.6395" y="62.4954" width="254.261" height="237.046" filterUnits="userSpaceOnUse" color-interpolation-filters="sRGB">
<feFlood flood-opacity="0" result="BackgroundImageFix"/>
<feBlend mode="normal" in="SourceGraphic" in2="BackgroundImageFix" result="shape"/>
<feGaussianBlur stdDeviation="34.6605" result="effect1_foregroundBlur_98_304"/>
</filter>
<filter id="filter1_f_98_304" x="192.38" y="157.626" width="53.0353" height="46.9645" filterUnits="userSpaceOnUse" color-interpolation-filters="sRGB">
<feFlood flood-opacity="0" result="BackgroundImageFix"/>
<feBlend mode="normal" in="SourceGraphic" in2="BackgroundImageFix" result="shape"/>
<feGaussianBlur stdDeviation="4.49819" result="effect1_foregroundBlur_98_304"/>
</filter>
<radialGradient id="paint0_radial_98_304" cx="0" cy="0" r="1" gradientUnits="userSpaceOnUse" gradientTransform="translate(219.095 181.271) scale(104.446 86.3507)">
<stop stop-color="#E5DECB"/>
<stop offset="1" stop-color="#E5DECB" stop-opacity="0"/>
</radialGradient>
<radialGradient id="paint1_radial_98_304" cx="0" cy="0" r="1" gradientUnits="userSpaceOnUse" gradientTransform="translate(219.059 181.239) scale(218.923 180.986)">
<stop stop-color="#E4B66C"/>
<stop offset="1" stop-color="#E4B66C" stop-opacity="0"/>
</radialGradient>
<radialGradient id="paint2_radial_98_304" cx="0" cy="0" r="1" gradientUnits="userSpaceOnUse" gradientTransform="translate(218.774 181.018) scale(57.8097 49.2018)">
<stop stop-color="#D2AB68"/>
<stop offset="1" stop-color="#D2AB68" stop-opacity="0"/>
</radialGradient>
</defs>
</svg>
