<svg width="404" height="387" viewBox="0 0 404 387" fill="none" xmlns="http://www.w3.org/2000/svg">
<path d="M298.095 193.119C298.095 243.972 255.015 285.196 201.87 285.196C148.728 285.196 105.646 243.971 105.646 193.119C105.646 142.266 148.726 101.043 201.87 101.043C255.013 101.043 298.095 142.267 298.095 193.119Z" fill="url(#paint0_radial_101_316)"/>
<path d="M403.529 193.086C403.529 299.675 313.227 386.079 201.837 386.079C90.4472 386.079 0.145264 299.672 0.145264 193.086C0.145264 86.4966 90.4472 0.0927734 201.837 0.0927734C313.227 0.0927734 403.529 86.5 403.529 193.086Z" fill="url(#paint1_radial_101_316)"/>
<g filter="url(#filter0_f_101_316)">
<path d="M254.831 192.85C254.831 221.826 230.985 245.316 201.571 245.316C172.157 245.316 148.312 221.826 148.312 192.85C148.312 163.874 172.157 140.384 201.571 140.384C230.985 140.384 254.831 163.874 254.831 192.85Z" fill="url(#paint2_radial_101_316)"/>
</g>
<g filter="url(#filter1_f_101_316)">
<path d="M217.831 192.945C217.831 201.476 210.604 208.392 201.689 208.392C192.774 208.392 185.547 201.476 185.547 192.945C185.547 184.414 192.774 177.498 201.689 177.498C210.604 177.498 217.831 184.414 217.831 192.945Z" fill="#E5DECB"/>
</g>
<defs>
<filter id="filter0_f_101_316" x="78.9905" y="71.0628" width="245.161" height="243.575" filterUnits="userSpaceOnUse" color-interpolation-filters="sRGB">
<feFlood flood-opacity="0" result="BackgroundImageFix"/>
<feBlend mode="normal" in="SourceGraphic" in2="BackgroundImageFix" result="shape"/>
<feGaussianBlur stdDeviation="34.6605" result="effect1_foregroundBlur_101_316"/>
</filter>
<filter id="filter1_f_101_316" x="176.55" y="168.502" width="50.277" height="48.8863" filterUnits="userSpaceOnUse" color-interpolation-filters="sRGB">
<feFlood flood-opacity="0" result="BackgroundImageFix"/>
<feBlend mode="normal" in="SourceGraphic" in2="BackgroundImageFix" result="shape"/>
<feGaussianBlur stdDeviation="4.49819" result="effect1_foregroundBlur_101_316"/>
</filter>
<radialGradient id="paint0_radial_101_316" cx="0" cy="0" r="1" gradientUnits="userSpaceOnUse" gradientTransform="translate(201.87 193.12) scale(96.2249 92.0795)">
<stop stop-color="#E5DECB"/>
<stop offset="1" stop-color="#E5DECB" stop-opacity="0"/>
</radialGradient>
<radialGradient id="paint1_radial_101_316" cx="0" cy="0" r="1" gradientUnits="userSpaceOnUse" gradientTransform="translate(201.837 193.086) scale(201.692 192.993)">
<stop stop-color="#E4B66C"/>
<stop offset="1" stop-color="#E4B66C" stop-opacity="0"/>
</radialGradient>
<radialGradient id="paint2_radial_101_316" cx="0" cy="0" r="1" gradientUnits="userSpaceOnUse" gradientTransform="translate(201.575 192.85) scale(53.2596 52.466)">
<stop stop-color="#D2AB68"/>
<stop offset="1" stop-color="#D2AB68" stop-opacity="0"/>
</radialGradient>
</defs>
</svg>
