<svg width="1158" height="1117" viewBox="0 0 1158 1117" fill="none" xmlns="http://www.w3.org/2000/svg">
<path d="M579.344 58.9189C722.461 58.9189 838.431 170.812 838.431 308.771C838.431 446.719 722.452 558.502 579.344 558.502C720.285 534.541 814.364 404.996 789.526 269.144C767.335 147.893 657.92 62.6948 534.44 62.7953C549.029 60.3381 564.031 58.925 579.348 58.925L579.344 58.9189Z" fill="url(#paint0_radial_99_2203)"/>
<path d="M489.349 66.5108C630.29 42.5499 764.668 133.332 789.506 269.184C814.358 405.038 720.279 534.541 579.344 558.502C713.83 511.321 783.142 367.988 734.194 238.354C690.505 122.655 567.398 57.0671 445.811 77.8325C459.735 72.9708 474.253 69.0682 489.339 66.5042L489.349 66.5108Z" fill="url(#paint1_radial_99_2203)"/>
<path d="M402.084 89.0452C536.57 41.8646 685.258 108.774 734.204 238.404C783.152 368.034 713.836 511.313 579.35 558.491C703.293 489.517 745.731 336.758 674.173 217.295C610.306 110.666 477.251 66.6791 361.265 107.481C374.102 100.362 387.696 94.0888 402.093 89.0388L402.084 89.0452Z" fill="url(#paint2_radial_99_2203)"/>
<path d="M320.195 125.861C444.137 56.8865 602.619 97.8931 674.173 217.36C745.731 336.827 703.28 489.546 579.338 558.516C688.971 469.845 703.247 312.3 611.252 206.635C529.144 112.316 390.192 91.2672 283.299 150.864C294.658 141.705 306.918 133.251 320.182 125.869L320.195 125.861Z" fill="url(#paint3_radial_99_2203)"/>
<path d="M246.182 175.81C355.816 87.1386 519.271 100.995 611.266 206.67C703.259 312.345 688.965 469.837 579.331 558.511C671.324 452.836 657.001 295.303 547.368 206.63C449.515 127.486 308.889 130.017 214.352 206.597C223.888 195.676 234.438 185.3 246.172 175.808L246.182 175.81Z" fill="url(#paint4_radial_99_2203)"/>
<path d="M182.317 237.371C274.31 131.697 437.778 117.983 547.422 206.654C657.055 295.325 671.352 452.83 579.357 558.495C650.915 439.028 608.428 286.289 484.486 217.319C373.863 155.758 235.818 181.787 156.533 273.025C163.958 260.674 172.477 248.689 182.323 237.377L182.317 237.371Z" fill="url(#paint5_radial_99_2203)"/>
<path d="M130.496 308.71C202.05 189.247 360.577 148.375 484.515 217.345C608.458 286.32 650.909 439.039 579.351 558.501C628.299 428.872 558.941 285.553 424.455 238.374C304.422 196.263 173.161 245.003 111.505 348.128C116.591 334.722 122.823 321.492 130.482 308.706L130.496 308.71Z" fill="url(#paint6_radial_99_2203)"/>
<path d="M92.3012 387.641C141.247 258.016 290.002 191.235 424.484 238.413C558.986 285.592 628.29 428.875 579.344 558.501C604.202 422.649 510.082 293.124 369.141 269.163C243.346 247.783 122.869 317.751 80.7367 429.628C83.3307 415.574 87.0838 401.504 92.3231 387.627L92.3012 387.641Z" fill="url(#paint7_radial_99_2203)"/>
<path d="M68.9225 471.757C93.7747 335.903 228.236 245.243 369.183 269.204C510.126 293.159 604.203 422.664 579.344 558.522C579.344 420.573 463.318 308.771 320.195 308.771C192.458 308.771 86.4047 397.844 65.0677 515.079C65.0904 500.804 66.2516 486.318 68.9117 471.777L68.9225 471.757Z" fill="url(#paint8_radial_99_2203)"/>
<path d="M61.0458 558.501C61.0458 420.552 177.131 308.77 320.257 308.77C463.374 308.77 579.344 420.56 579.344 558.501C554.492 422.647 420.085 331.967 279.146 355.908C153.352 377.288 64.9633 482.758 65.0675 601.783C62.5183 587.721 61.0522 573.261 61.0522 558.497L61.0458 558.501Z" fill="url(#paint9_radial_99_2203)"/>
<path d="M68.9221 645.267C44.0699 509.413 138.251 379.89 279.188 355.929C420.131 331.974 554.486 422.656 579.344 558.502C530.396 428.872 381.693 362.063 247.203 409.244C127.17 451.355 59.1247 570.016 80.668 687.214C75.6242 673.792 71.5753 659.798 68.9153 645.257L68.9221 645.267Z" fill="url(#paint10_radial_99_2203)"/>
<path d="M92.3013 729.381C43.3533 599.751 112.769 456.432 247.255 409.253C381.741 362.073 530.388 428.886 579.334 558.515C507.775 439.049 349.294 398.142 225.356 467.117C114.732 528.678 69.0973 656.928 111.428 768.726C104.043 756.353 97.534 743.249 92.2947 729.373L92.3013 729.381Z" fill="url(#paint11_radial_99_2203)"/>
<path d="M130.53 808.276C58.9729 688.812 101.518 536.063 225.466 467.085C349.404 398.112 507.822 439.032 579.375 558.488C487.379 452.821 323.951 439.062 214.315 527.72C116.474 606.868 94.635 740.798 156.464 843.82C146.962 832.871 138.192 821.055 130.533 808.269L130.53 808.276Z" fill="url(#paint12_radial_99_2203)"/>
<path d="M182.347 879.616C90.3504 773.949 104.725 616.39 214.361 527.732C323.992 439.062 487.381 452.841 579.375 558.503C469.744 469.834 306.312 483.643 214.318 589.317C132.213 683.634 134.839 819.188 214.288 910.298C202.958 901.106 192.193 890.939 182.347 879.628L182.347 879.616Z" fill="url(#paint13_radial_99_2203)"/>
<path d="M246.226 941.193C136.595 852.524 122.366 694.955 214.358 589.285C306.349 483.613 469.735 469.835 579.363 558.504C455.424 489.533 296.96 530.487 225.408 649.949C161.542 756.574 188.548 889.631 283.199 966.048C270.385 958.892 257.951 950.681 246.216 941.189L246.226 941.193Z" fill="url(#paint14_radial_99_2203)"/>
<path d="M320.246 991.139C196.306 922.167 153.909 769.375 225.466 649.915C297.021 530.451 455.455 489.527 579.391 558.501C444.909 511.322 296.227 578.177 247.29 707.799C203.604 823.496 254.167 950.006 361.157 1009.44C347.249 1004.53 333.524 998.526 320.259 991.145L320.246 991.139Z" fill="url(#paint15_radial_99_2203)"/>
<path d="M402.129 1027.95C267.647 980.767 198.37 837.398 247.316 707.771C296.262 578.145 444.907 511.331 579.391 558.51C438.452 534.557 304.08 625.279 279.228 761.129C257.048 882.38 329.634 998.499 445.705 1039.12C431.124 1036.62 416.527 1033 402.132 1027.96L402.129 1027.95Z" fill="url(#paint16_radial_99_2203)"/>
<path d="M489.368 1050.48C348.43 1026.52 254.376 896.929 279.221 761.071C304.071 625.222 438.432 534.538 579.362 558.497C436.249 558.498 320.266 670.331 320.27 808.273C320.272 931.394 412.679 1033.61 534.293 1054.17C519.484 1054.15 504.456 1053.03 489.37 1050.47L489.368 1050.48Z" fill="url(#paint17_radial_99_2203)"/>
<path d="M579.248 1058.28C436.132 1058.28 320.162 946.388 320.162 808.43C320.162 670.481 436.14 558.698 579.248 558.698C438.307 582.659 344.229 712.205 369.066 848.056C391.258 969.307 500.672 1054.51 624.152 1054.4C609.564 1056.86 594.562 1058.28 579.244 1058.28L579.248 1058.28Z" fill="url(#paint18_radial_99_2203)"/>
<path d="M669.243 1050.69C528.302 1074.65 393.925 983.868 369.087 848.016C344.235 712.162 438.314 582.659 579.249 558.698C444.763 605.879 375.451 749.212 424.399 878.846C468.088 994.545 591.194 1060.13 712.782 1039.37C698.858 1044.23 684.34 1048.13 669.254 1050.7L669.243 1050.69Z" fill="url(#paint19_radial_99_2203)"/>
<path d="M756.508 1028.15C622.023 1075.34 473.334 1008.43 424.388 878.796C375.44 749.167 444.757 605.888 579.242 558.709C455.3 627.683 412.861 780.442 484.42 899.905C548.287 1006.53 681.341 1050.52 797.328 1009.72C784.491 1016.84 770.896 1023.11 756.5 1028.16L756.508 1028.15Z" fill="url(#paint20_radial_99_2203)"/>
<path d="M838.398 991.339C714.455 1060.31 555.974 1019.31 484.42 899.84C412.861 780.373 455.312 627.655 579.255 558.684C469.621 647.355 455.346 804.901 547.341 910.565C629.449 1004.88 768.4 1025.93 875.294 966.336C863.934 975.495 851.675 983.949 838.41 991.331L838.398 991.339Z" fill="url(#paint21_radial_99_2203)"/>
<path d="M912.41 941.39C802.777 1030.06 639.322 1016.21 547.326 910.531C455.333 804.856 469.628 647.363 579.261 558.69C487.268 664.364 501.591 821.897 611.225 910.571C709.077 989.714 849.704 987.183 944.241 910.603C934.704 921.524 924.155 931.901 912.421 941.393L912.41 941.39Z" fill="url(#paint22_radial_99_2203)"/>
<path d="M976.276 879.829C884.283 985.504 720.815 999.217 611.171 910.546C501.537 821.875 487.241 664.37 579.236 558.705C507.678 678.172 550.164 830.911 674.107 899.881C784.73 961.442 922.775 935.413 1002.06 844.175C994.635 856.526 986.115 868.511 976.269 879.823L976.276 879.829Z" fill="url(#paint23_radial_99_2203)"/>
<path d="M1028.1 808.49C956.543 927.953 798.015 968.825 674.077 899.855C550.135 830.88 507.684 678.162 579.242 558.699C530.294 688.328 599.651 831.648 734.138 878.826C854.171 920.937 985.431 872.197 1047.09 769.072C1042 782.479 1035.77 795.708 1028.11 808.494L1028.1 808.49Z" fill="url(#paint24_radial_99_2203)"/>
<path d="M1066.29 729.559C1017.35 859.184 868.59 925.965 734.109 878.787C599.606 831.608 530.303 688.325 579.249 558.7C554.39 694.551 648.511 824.077 789.452 848.037C915.246 869.417 1035.72 799.449 1077.86 687.572C1075.26 701.626 1071.51 715.696 1066.27 729.573L1066.29 729.559Z" fill="url(#paint25_radial_99_2203)"/>
<path d="M1089.67 645.443C1064.82 781.297 930.357 871.957 789.41 847.996C648.467 824.041 554.39 694.536 579.249 558.678C579.249 696.627 695.275 808.429 838.398 808.429C966.134 808.429 1072.19 719.357 1093.53 602.121C1093.5 616.396 1092.34 630.882 1089.68 645.423L1089.67 645.443Z" fill="url(#paint26_radial_99_2203)"/>
<path d="M1097.55 558.699C1097.55 696.648 981.462 808.431 838.335 808.431C695.219 808.431 579.249 696.64 579.249 558.699C604.101 694.553 738.507 785.233 879.446 761.292C1005.24 739.912 1093.63 634.442 1093.53 515.417C1096.07 529.479 1097.54 543.939 1097.54 558.703L1097.55 558.699Z" fill="url(#paint27_radial_99_2203)"/>
<path d="M1089.67 471.933C1114.52 607.787 1020.34 737.31 879.405 761.271C738.462 785.226 604.107 694.544 579.249 558.698C628.197 688.328 776.899 755.137 911.389 707.956C1031.42 665.845 1099.47 547.184 1077.92 429.986C1082.97 443.408 1087.02 457.402 1089.68 471.943L1089.67 471.933Z" fill="url(#paint28_radial_99_2203)"/>
<path d="M1066.29 387.82C1115.24 517.449 1045.82 660.768 911.337 707.947C776.852 755.128 628.205 688.314 579.259 558.685C650.817 678.152 809.299 719.058 933.237 650.084C1043.86 588.522 1089.5 460.273 1047.17 348.474C1054.55 360.847 1061.06 373.951 1066.3 387.828L1066.29 387.82Z" fill="url(#paint29_radial_99_2203)"/>
<path d="M1028.06 308.925C1099.62 428.388 1057.07 581.137 933.127 650.115C809.189 719.089 650.77 678.169 579.217 558.712C671.214 664.379 834.642 678.138 944.278 589.48C1042.12 510.332 1063.96 376.402 1002.13 273.381C1011.63 284.329 1020.4 296.145 1028.06 308.931L1028.06 308.925Z" fill="url(#paint30_radial_99_2203)"/>
<path d="M976.245 237.584C1068.24 343.251 1053.87 500.81 944.231 589.468C834.601 678.138 671.211 664.359 579.218 558.697C688.848 647.366 852.28 633.557 944.275 527.883C1026.38 433.566 1023.75 298.012 944.304 206.902C955.634 216.094 966.4 226.261 976.246 237.572L976.245 237.584Z" fill="url(#paint31_radial_99_2203)"/>
<path d="M912.367 176.008C1022 264.677 1036.23 422.245 944.234 527.915C852.244 633.588 688.858 647.365 579.229 558.696C703.169 627.667 861.633 586.714 933.184 467.251C997.051 360.626 970.044 227.569 875.394 151.152C888.208 158.308 900.642 166.519 912.377 176.011L912.367 176.008Z" fill="url(#paint32_radial_99_2203)"/>
<path d="M838.347 126.062C962.286 195.033 1004.68 347.825 933.127 467.286C861.571 586.75 703.137 627.673 579.202 558.699C713.683 605.879 862.366 539.023 911.302 409.401C954.989 293.704 904.425 167.194 797.435 107.765C811.344 112.667 825.068 118.674 838.333 126.055L838.347 126.062Z" fill="url(#paint33_radial_99_2203)"/>
<path d="M756.463 89.2541C890.945 136.433 960.223 279.802 911.277 409.43C862.33 539.055 713.685 605.869 579.202 558.691C720.14 582.643 854.512 491.922 879.364 356.072C901.544 234.821 828.958 118.701 712.888 78.0777C727.468 80.5779 742.065 84.1957 756.46 89.2443L756.463 89.2541Z" fill="url(#paint34_radial_99_2203)"/>
<path d="M669.224 66.724C810.163 90.6765 904.216 220.271 879.372 356.129C854.522 491.978 720.161 582.663 579.231 558.703C722.343 558.702 838.327 446.869 838.322 308.927C838.321 185.806 745.913 83.5912 624.3 63.0285C639.109 63.0502 654.137 64.1695 669.222 66.7322L669.224 66.724Z" fill="url(#paint35_radial_99_2203)"/>
<defs>
<radialGradient id="paint0_radial_99_2203" cx="0" cy="0" r="1" gradientUnits="userSpaceOnUse" gradientTransform="translate(719.177 224.173) rotate(95.5932) scale(335.928 205.477)">
<stop stop-color="#68816B" stop-opacity="0.5"/>
<stop offset="1" stop-color="#68816B" stop-opacity="0.1"/>
</radialGradient>
<radialGradient id="paint1_radial_99_2203" cx="0" cy="0" r="1" gradientUnits="userSpaceOnUse" gradientTransform="translate(657.095 226.687) rotate(96.4387) scale(333.921 234.64)">
<stop stop-color="#68816B" stop-opacity="0.5"/>
<stop offset="1" stop-color="#68816B" stop-opacity="0.1"/>
</radialGradient>
<radialGradient id="paint2_radial_99_2203" cx="0" cy="0" r="1" gradientUnits="userSpaceOnUse" gradientTransform="translate(597.443 234.211) rotate(97.3551) scale(326.971 261.779)">
<stop stop-color="#68816B" stop-opacity="0.5"/>
<stop offset="1" stop-color="#68816B" stop-opacity="0.1"/>
</radialGradient>
<radialGradient id="paint3_radial_99_2203" cx="0" cy="0" r="1" gradientUnits="userSpaceOnUse" gradientTransform="translate(541.961 246.567) rotate(98.3601) scale(315.3 286.007)">
<stop stop-color="#68816B" stop-opacity="0.5"/>
<stop offset="1" stop-color="#68816B" stop-opacity="0.1"/>
</radialGradient>
<radialGradient id="paint4_radial_99_2203" cx="0" cy="0" r="1" gradientUnits="userSpaceOnUse" gradientTransform="translate(492.406 263.311) rotate(99.4774) scale(299.285 306.51)">
<stop stop-color="#68816B" stop-opacity="0.5"/>
<stop offset="1" stop-color="#68816B" stop-opacity="0.1"/>
</radialGradient>
<radialGradient id="paint5_radial_99_2203" cx="0" cy="0" r="1" gradientUnits="userSpaceOnUse" gradientTransform="translate(450.333 283.908) rotate(100.738) scale(279.481 322.599)">
<stop stop-color="#68816B" stop-opacity="0.5"/>
<stop offset="1" stop-color="#68816B" stop-opacity="0.1"/>
</radialGradient>
<radialGradient id="paint6_radial_99_2203" cx="0" cy="0" r="1" gradientUnits="userSpaceOnUse" gradientTransform="translate(416.943 307.764) rotate(102.183) scale(256.515 333.668)">
<stop stop-color="#68816B" stop-opacity="0.5"/>
<stop offset="1" stop-color="#68816B" stop-opacity="0.1"/>
</radialGradient>
<radialGradient id="paint7_radial_99_2203" cx="0" cy="0" r="1" gradientUnits="userSpaceOnUse" gradientTransform="translate(393.284 334.163) rotate(103.87) scale(231.075 339.116)">
<stop stop-color="#68816B" stop-opacity="0.5"/>
<stop offset="1" stop-color="#68816B" stop-opacity="0.1"/>
</radialGradient>
<radialGradient id="paint8_radial_99_2203" cx="0" cy="0" r="1" gradientUnits="userSpaceOnUse" gradientTransform="translate(380.016 362.336) rotate(105.882) scale(203.972 338.548)">
<stop stop-color="#68816B" stop-opacity="0.5"/>
<stop offset="1" stop-color="#68816B" stop-opacity="0.1"/>
</radialGradient>
<radialGradient id="paint9_radial_99_2203" cx="0" cy="0" r="1" gradientUnits="userSpaceOnUse" gradientTransform="translate(376.018 405.694) rotate(105.891) scale(203.88 338.558)">
<stop stop-color="#68816B" stop-opacity="0.5"/>
<stop offset="1" stop-color="#68816B" stop-opacity="0.1"/>
</radialGradient>
<radialGradient id="paint10_radial_99_2203" cx="0" cy="0" r="1" gradientUnits="userSpaceOnUse" gradientTransform="translate(377.547 462.945) rotate(103.876) scale(231.011 339.166)">
<stop stop-color="#68816B" stop-opacity="0.5"/>
<stop offset="1" stop-color="#68816B" stop-opacity="0.1"/>
</radialGradient>
<radialGradient id="paint11_radial_99_2203" cx="0" cy="0" r="1" gradientUnits="userSpaceOnUse" gradientTransform="translate(382.118 518.033) rotate(102.188) scale(256.473 333.735)">
<stop stop-color="#68816B" stop-opacity="0.5"/>
<stop offset="1" stop-color="#68816B" stop-opacity="0.1"/>
</radialGradient>
<radialGradient id="paint12_radial_99_2203" cx="0" cy="0" r="1" gradientUnits="userSpaceOnUse" gradientTransform="translate(209.086 608.928) rotate(-23.8198) scale(346.237 199.348)">
<stop stop-color="#68816B" stop-opacity="0.5"/>
<stop offset="1" stop-color="#68816B" stop-opacity="0.1"/>
</radialGradient>
<radialGradient id="paint13_radial_99_2203" cx="0" cy="0" r="1" gradientUnits="userSpaceOnUse" gradientTransform="translate(242.384 659.508) rotate(-23.0241) scale(344.263 227.579)">
<stop stop-color="#68816B" stop-opacity="0.5"/>
<stop offset="1" stop-color="#68816B" stop-opacity="0.1"/>
</radialGradient>
<radialGradient id="paint14_radial_99_2203" cx="0" cy="0" r="1" gradientUnits="userSpaceOnUse" gradientTransform="translate(278.97 705.54) rotate(-22.1623) scale(337.187 253.834)">
<stop stop-color="#68816B" stop-opacity="0.5"/>
<stop offset="1" stop-color="#68816B" stop-opacity="0.1"/>
</radialGradient>
<radialGradient id="paint15_radial_99_2203" cx="0" cy="0" r="1" gradientUnits="userSpaceOnUse" gradientTransform="translate(317.811 745.672) rotate(-21.2175) scale(325.236 277.254)">
<stop stop-color="#68816B" stop-opacity="0.5"/>
<stop offset="1" stop-color="#68816B" stop-opacity="0.1"/>
</radialGradient>
<radialGradient id="paint16_radial_99_2203" cx="0" cy="0" r="1" gradientUnits="userSpaceOnUse" gradientTransform="translate(357.634 778.666) rotate(-20.1678) scale(308.792 297.057)">
<stop stop-color="#68816B" stop-opacity="0.5"/>
<stop offset="1" stop-color="#68816B" stop-opacity="0.1"/>
</radialGradient>
<radialGradient id="paint17_radial_99_2203" cx="0" cy="0" r="1" gradientUnits="userSpaceOnUse" gradientTransform="translate(397.172 803.488) rotate(-18.9844) scale(288.423 312.58)">
<stop stop-color="#68816B" stop-opacity="0.5"/>
<stop offset="1" stop-color="#68816B" stop-opacity="0.1"/>
</radialGradient>
<radialGradient id="paint18_radial_99_2203" cx="0" cy="0" r="1" gradientUnits="userSpaceOnUse" gradientTransform="translate(439.416 893.027) rotate(-84.4068) scale(335.928 205.477)">
<stop stop-color="#3E5577" stop-opacity="0.5"/>
<stop offset="1" stop-color="#3E5577" stop-opacity="0.1"/>
</radialGradient>
<radialGradient id="paint19_radial_99_2203" cx="0" cy="0" r="1" gradientUnits="userSpaceOnUse" gradientTransform="translate(501.498 890.513) rotate(-83.5613) scale(333.921 234.64)">
<stop stop-color="#3E5577" stop-opacity="0.5"/>
<stop offset="1" stop-color="#3E5577" stop-opacity="0.1"/>
</radialGradient>
<radialGradient id="paint20_radial_99_2203" cx="0" cy="0" r="1" gradientUnits="userSpaceOnUse" gradientTransform="translate(561.15 882.99) rotate(-82.6449) scale(326.971 261.779)">
<stop stop-color="#3E5577" stop-opacity="0.5"/>
<stop offset="1" stop-color="#3E5577" stop-opacity="0.1"/>
</radialGradient>
<radialGradient id="paint21_radial_99_2203" cx="0" cy="0" r="1" gradientUnits="userSpaceOnUse" gradientTransform="translate(616.631 870.634) rotate(-81.6399) scale(315.3 286.007)">
<stop stop-color="#3E5577" stop-opacity="0.5"/>
<stop offset="1" stop-color="#3E5577" stop-opacity="0.1"/>
</radialGradient>
<radialGradient id="paint22_radial_99_2203" cx="0" cy="0" r="1" gradientUnits="userSpaceOnUse" gradientTransform="translate(666.187 853.889) rotate(-80.5226) scale(299.285 306.51)">
<stop stop-color="#3E5577" stop-opacity="0.5"/>
<stop offset="1" stop-color="#3E5577" stop-opacity="0.1"/>
</radialGradient>
<radialGradient id="paint23_radial_99_2203" cx="0" cy="0" r="1" gradientUnits="userSpaceOnUse" gradientTransform="translate(708.26 833.293) rotate(-79.2624) scale(279.481 322.599)">
<stop stop-color="#3E5577" stop-opacity="0.5"/>
<stop offset="1" stop-color="#3E5577" stop-opacity="0.1"/>
</radialGradient>
<radialGradient id="paint24_radial_99_2203" cx="0" cy="0" r="1" gradientUnits="userSpaceOnUse" gradientTransform="translate(741.65 809.437) rotate(-77.8171) scale(256.515 333.668)">
<stop stop-color="#3E5577" stop-opacity="0.5"/>
<stop offset="1" stop-color="#3E5577" stop-opacity="0.1"/>
</radialGradient>
<radialGradient id="paint25_radial_99_2203" cx="0" cy="0" r="1" gradientUnits="userSpaceOnUse" gradientTransform="translate(765.308 783.037) rotate(-76.13) scale(231.075 339.116)">
<stop stop-color="#3E5577" stop-opacity="0.5"/>
<stop offset="1" stop-color="#3E5577" stop-opacity="0.1"/>
</radialGradient>
<radialGradient id="paint26_radial_99_2203" cx="0" cy="0" r="1" gradientUnits="userSpaceOnUse" gradientTransform="translate(778.577 754.864) rotate(-74.1179) scale(203.972 338.548)">
<stop stop-color="#3E5577" stop-opacity="0.5"/>
<stop offset="1" stop-color="#3E5577" stop-opacity="0.1"/>
</radialGradient>
<radialGradient id="paint27_radial_99_2203" cx="0" cy="0" r="1" gradientUnits="userSpaceOnUse" gradientTransform="translate(782.575 711.506) rotate(-74.1094) scale(203.88 338.558)">
<stop stop-color="#3E5577" stop-opacity="0.5"/>
<stop offset="1" stop-color="#3E5577" stop-opacity="0.1"/>
</radialGradient>
<radialGradient id="paint28_radial_99_2203" cx="0" cy="0" r="1" gradientUnits="userSpaceOnUse" gradientTransform="translate(781.045 654.255) rotate(-76.1236) scale(231.011 339.166)">
<stop stop-color="#3E5577" stop-opacity="0.5"/>
<stop offset="1" stop-color="#3E5577" stop-opacity="0.1"/>
</radialGradient>
<radialGradient id="paint29_radial_99_2203" cx="0" cy="0" r="1" gradientUnits="userSpaceOnUse" gradientTransform="translate(776.475 599.167) rotate(-77.8124) scale(256.473 333.735)">
<stop stop-color="#3E5577" stop-opacity="0.5"/>
<stop offset="1" stop-color="#3E5577" stop-opacity="0.1"/>
</radialGradient>
<radialGradient id="paint30_radial_99_2203" cx="0" cy="0" r="1" gradientUnits="userSpaceOnUse" gradientTransform="translate(949.507 508.273) rotate(156.18) scale(346.237 199.348)">
<stop stop-color="#3E5577" stop-opacity="0.5"/>
<stop offset="1" stop-color="#3E5577" stop-opacity="0.1"/>
</radialGradient>
<radialGradient id="paint31_radial_99_2203" cx="0" cy="0" r="1" gradientUnits="userSpaceOnUse" gradientTransform="translate(916.208 457.693) rotate(156.976) scale(344.263 227.579)">
<stop stop-color="#3E5577" stop-opacity="0.5"/>
<stop offset="1" stop-color="#3E5577" stop-opacity="0.1"/>
</radialGradient>
<radialGradient id="paint32_radial_99_2203" cx="0" cy="0" r="1" gradientUnits="userSpaceOnUse" gradientTransform="translate(879.622 411.66) rotate(157.838) scale(337.187 253.834)">
<stop stop-color="#3E5577" stop-opacity="0.5"/>
<stop offset="1" stop-color="#3E5577" stop-opacity="0.1"/>
</radialGradient>
<radialGradient id="paint33_radial_99_2203" cx="0" cy="0" r="1" gradientUnits="userSpaceOnUse" gradientTransform="translate(840.781 371.528) rotate(158.782) scale(325.236 277.254)">
<stop stop-color="#3E5577" stop-opacity="0.5"/>
<stop offset="1" stop-color="#3E5577" stop-opacity="0.1"/>
</radialGradient>
<radialGradient id="paint34_radial_99_2203" cx="0" cy="0" r="1" gradientUnits="userSpaceOnUse" gradientTransform="translate(800.959 338.534) rotate(159.832) scale(308.792 297.057)">
<stop stop-color="#3E5577" stop-opacity="0.5"/>
<stop offset="1" stop-color="#3E5577" stop-opacity="0.1"/>
</radialGradient>
<radialGradient id="paint35_radial_99_2203" cx="0" cy="0" r="1" gradientUnits="userSpaceOnUse" gradientTransform="translate(761.42 313.712) rotate(161.016) scale(288.423 312.58)">
<stop stop-color="#3E5577" stop-opacity="0.5"/>
<stop offset="1" stop-color="#3E5577" stop-opacity="0.1"/>
</radialGradient>
</defs>
</svg>
