<svg width="398" height="345" viewBox="0 0 398 345" fill="none" xmlns="http://www.w3.org/2000/svg">
<path d="M293.493 172.645C293.493 218.031 251.144 254.823 198.9 254.823C146.659 254.823 104.307 218.03 104.307 172.645C104.307 127.259 146.657 90.4678 198.9 90.4678C251.142 90.4678 293.493 127.26 293.493 172.645Z" fill="url(#paint0_radial_98_413)"/>
<path d="M397.139 172.615C397.139 267.746 308.369 344.861 198.868 344.861C89.3668 344.861 0.596313 267.743 0.596313 172.615C0.596313 77.485 89.3668 0.370117 198.868 0.370117C308.369 0.370117 397.139 77.488 397.139 172.615Z" fill="url(#paint1_radial_98_413)"/>
<g filter="url(#filter0_f_98_413)">
<path d="M250.962 172.405C250.962 198.266 227.521 219.231 198.606 219.231C169.691 219.231 146.25 198.266 146.25 172.405C146.25 146.544 169.691 125.579 198.606 125.579C227.521 125.579 250.962 146.544 250.962 172.405Z" fill="url(#paint2_radial_98_413)"/>
</g>
<g filter="url(#filter1_f_98_413)">
<path d="M214.59 172.489C214.59 180.104 207.486 186.276 198.722 186.276C189.958 186.276 182.854 180.103 182.854 172.489C182.854 164.875 189.958 158.703 198.722 158.703C207.486 158.703 214.59 164.875 214.59 172.489Z" fill="#F5F5F6"/>
</g>
<defs>
<filter id="filter0_f_98_413" x="76.9287" y="56.2581" width="243.355" height="232.293" filterUnits="userSpaceOnUse" color-interpolation-filters="sRGB">
<feFlood flood-opacity="0" result="BackgroundImageFix"/>
<feBlend mode="normal" in="SourceGraphic" in2="BackgroundImageFix" result="shape"/>
<feGaussianBlur stdDeviation="34.6605" result="effect1_foregroundBlur_98_413"/>
</filter>
<filter id="filter1_f_98_413" x="173.857" y="149.707" width="49.7295" height="45.565" filterUnits="userSpaceOnUse" color-interpolation-filters="sRGB">
<feFlood flood-opacity="0" result="BackgroundImageFix"/>
<feBlend mode="normal" in="SourceGraphic" in2="BackgroundImageFix" result="shape"/>
<feGaussianBlur stdDeviation="4.49819" result="effect1_foregroundBlur_98_413"/>
</filter>
<radialGradient id="paint0_radial_98_413" cx="0" cy="0" r="1" gradientUnits="userSpaceOnUse" gradientTransform="translate(198.9 172.646) scale(94.593 82.1804)">
<stop stop-color="#E9E9E8"/>
<stop offset="1" stop-color="#E9E9E8" stop-opacity="0"/>
</radialGradient>
<radialGradient id="paint1_radial_98_413" cx="0" cy="0" r="1" gradientUnits="userSpaceOnUse" gradientTransform="translate(198.868 172.615) scale(198.271 172.245)">
<stop stop-color="#E3E2DD"/>
<stop offset="1" stop-color="#E3E2DD" stop-opacity="0"/>
</radialGradient>
<radialGradient id="paint2_radial_98_413" cx="0" cy="0" r="1" gradientUnits="userSpaceOnUse" gradientTransform="translate(198.61 172.404) scale(52.3563 46.8256)">
<stop stop-color="#E9E9E8"/>
<stop offset="1" stop-color="#E9E9E8" stop-opacity="0"/>
</radialGradient>
</defs>
</svg>
