<svg width="838" height="1058" viewBox="0 0 838 1058" fill="none" xmlns="http://www.w3.org/2000/svg">
<path d="M578.355 0.310547C721.472 0.310547 837.442 112.204 837.442 250.162C837.442 388.111 721.463 499.893 578.355 499.893C719.296 475.933 813.375 346.387 788.538 210.535C766.346 89.2851 656.931 4.08644 533.452 4.18686C548.04 1.72972 563.042 0.316569 578.359 0.316569L578.355 0.310547Z" fill="url(#paint0_radial_101_251)"/>
<path d="M488.361 7.90241C629.302 -16.0585 763.679 74.7237 788.517 210.576C813.369 346.429 719.29 475.932 578.355 499.893C712.841 452.713 782.153 309.379 733.205 179.746C689.516 64.0467 566.41 -1.54134 444.822 19.2241C458.746 14.3624 473.264 10.4598 488.35 7.89579L488.361 7.90241Z" fill="url(#paint1_radial_101_251)"/>
<path d="M401.096 30.4368C535.581 -16.7438 684.27 50.1656 733.216 179.795C782.164 309.425 712.847 452.704 578.362 499.883C702.304 430.909 744.743 278.15 673.184 158.687C609.317 52.0578 476.263 8.07068 360.276 48.8724C373.113 41.7541 386.708 35.4804 401.104 30.4304L401.096 30.4368Z" fill="url(#paint2_radial_101_251)"/>
<path d="M319.206 67.2524C443.148 -1.72188 601.63 39.2847 673.184 158.752C744.742 278.218 702.291 430.937 578.349 499.908C687.983 411.236 702.258 253.691 610.263 148.026C528.155 53.7074 389.204 32.6588 282.31 92.2557C293.67 83.0967 305.929 74.643 319.194 67.2605L319.206 67.2524Z" fill="url(#paint3_radial_101_251)"/>
<path d="M245.193 117.201C354.827 28.5302 518.282 42.3865 610.277 148.061C702.27 253.736 687.976 411.229 578.343 499.902C670.336 394.227 656.012 236.694 546.379 148.021C448.526 68.878 307.9 71.4087 213.363 147.989C222.9 137.068 233.449 126.691 245.183 117.199L245.193 117.201Z" fill="url(#paint4_radial_101_251)"/>
<path d="M181.328 178.763C273.321 73.0882 436.789 59.3745 546.433 148.046C656.067 236.717 670.363 394.222 578.368 499.887C649.926 380.42 607.44 227.681 483.497 158.711C372.874 97.1495 234.829 123.179 155.545 214.417C162.969 202.066 171.489 190.081 181.334 178.769L181.328 178.763Z" fill="url(#paint5_radial_101_251)"/>
<path d="M129.507 250.102C201.061 130.639 359.589 89.7668 483.527 158.737C607.469 227.711 649.92 380.43 578.362 499.893C627.31 370.263 557.953 226.944 423.466 179.766C303.433 137.654 172.173 186.395 110.516 289.52C115.603 276.113 121.834 262.883 129.493 250.098L129.507 250.102Z" fill="url(#paint6_radial_101_251)"/>
<path d="M91.3127 329.033C140.259 199.407 289.014 132.626 423.495 179.805C557.998 226.983 627.301 370.267 578.355 499.892C603.214 364.04 509.093 234.515 368.152 210.554C242.358 189.174 121.88 259.143 79.7482 371.02C82.3422 356.966 86.0953 342.895 91.3345 329.019L91.3127 329.033Z" fill="url(#paint7_radial_101_251)"/>
<path d="M67.934 413.148C92.7862 277.295 227.247 186.635 368.194 210.596C509.137 234.551 603.214 364.056 578.356 499.914C578.356 361.965 462.329 250.162 319.207 250.162C191.47 250.162 85.4162 339.235 64.0792 456.471C64.1019 442.196 65.2631 427.71 67.9232 413.168L67.934 413.148Z" fill="url(#paint8_radial_101_251)"/>
<path d="M60.0573 499.892C60.0573 361.944 176.142 250.161 319.269 250.161C462.385 250.161 578.355 361.952 578.355 499.892C553.503 364.039 419.097 273.359 278.158 297.3C152.363 318.68 63.9748 424.15 64.079 543.175C61.5298 529.113 60.0637 514.652 60.0637 499.888L60.0573 499.892Z" fill="url(#paint9_radial_101_251)"/>
<path d="M67.9336 586.659C43.0814 450.805 137.262 321.282 278.199 297.321C419.142 273.366 553.497 364.048 578.355 499.894C529.407 370.264 380.705 303.455 246.215 350.635C126.181 392.747 58.1362 511.408 79.6795 628.605C74.6357 615.184 70.5868 601.19 67.9268 586.649L67.9336 586.659Z" fill="url(#paint10_radial_101_251)"/>
<path d="M91.3123 670.772C42.3643 541.143 111.78 397.823 246.266 350.645C380.752 303.464 529.399 370.278 578.345 499.907C506.786 380.44 348.305 339.534 224.367 408.508C113.743 470.069 68.1083 598.319 110.439 710.118C103.054 697.744 96.545 684.641 91.3057 670.764L91.3123 670.772Z" fill="url(#paint11_radial_101_251)"/>
<path d="M129.541 749.667C57.9841 630.204 100.529 477.455 224.477 408.477C348.415 339.503 506.834 380.423 578.387 499.88C486.39 394.212 322.962 380.454 213.326 469.111C115.486 548.259 93.6462 682.19 155.475 785.211C145.974 774.262 137.203 762.446 129.545 749.661L129.541 749.667Z" fill="url(#paint12_radial_101_251)"/>
<path d="M181.358 821.007C89.3616 715.34 103.736 557.781 213.372 469.123C323.003 380.452 486.392 394.232 578.386 499.894C468.755 411.225 305.323 425.034 213.329 530.708C131.225 625.025 133.85 760.579 213.299 851.689C201.969 842.497 191.204 832.329 181.358 821.019L181.358 821.007Z" fill="url(#paint13_radial_101_251)"/>
<path d="M245.237 882.584C135.606 793.915 121.377 636.347 213.369 530.676C305.36 425.004 468.746 411.226 578.374 499.896C454.435 430.925 295.971 471.878 224.419 591.34C160.553 697.966 187.559 831.023 282.21 907.44C269.396 900.284 256.962 892.072 245.227 882.581L245.237 882.584Z" fill="url(#paint14_radial_101_251)"/>
<path d="M319.257 932.53C195.317 863.559 152.92 710.767 224.477 591.306C296.032 471.842 454.466 430.919 578.402 499.892C443.92 452.713 295.238 519.568 246.301 649.191C202.615 764.887 253.178 891.398 360.168 950.827C346.26 945.924 332.535 939.918 319.27 932.537L319.257 932.53Z" fill="url(#paint15_radial_101_251)"/>
<path d="M401.14 969.338C266.659 922.158 197.381 778.79 246.327 649.162C295.274 519.537 443.918 452.723 578.402 499.901C437.464 475.949 303.091 566.67 278.24 702.52C256.06 823.771 328.645 939.891 444.716 980.514C430.136 978.014 415.538 974.396 401.144 969.348L401.14 969.338Z" fill="url(#paint16_radial_101_251)"/>
<path d="M488.379 991.868C347.441 967.915 253.387 838.321 278.232 702.463C303.082 566.614 437.443 475.929 578.373 499.889C435.261 499.889 319.277 611.722 319.281 749.665C319.283 872.785 411.69 975.001 533.304 995.563C518.495 995.542 503.467 994.422 488.382 991.86L488.379 991.868Z" fill="url(#paint17_radial_101_251)"/>
<defs>
<radialGradient id="paint0_radial_101_251" cx="0" cy="0" r="1" gradientUnits="userSpaceOnUse" gradientTransform="translate(718.188 165.565) rotate(95.5932) scale(335.928 205.477)">
<stop stop-color="#68816B" stop-opacity="0.5"/>
<stop offset="1" stop-color="#68816B" stop-opacity="0.1"/>
</radialGradient>
<radialGradient id="paint1_radial_101_251" cx="0" cy="0" r="1" gradientUnits="userSpaceOnUse" gradientTransform="translate(656.106 168.078) rotate(96.4387) scale(333.921 234.64)">
<stop stop-color="#68816B" stop-opacity="0.5"/>
<stop offset="1" stop-color="#68816B" stop-opacity="0.1"/>
</radialGradient>
<radialGradient id="paint2_radial_101_251" cx="0" cy="0" r="1" gradientUnits="userSpaceOnUse" gradientTransform="translate(596.454 175.602) rotate(97.3551) scale(326.971 261.779)">
<stop stop-color="#68816B" stop-opacity="0.5"/>
<stop offset="1" stop-color="#68816B" stop-opacity="0.1"/>
</radialGradient>
<radialGradient id="paint3_radial_101_251" cx="0" cy="0" r="1" gradientUnits="userSpaceOnUse" gradientTransform="translate(540.972 187.958) rotate(98.3601) scale(315.3 286.007)">
<stop stop-color="#68816B" stop-opacity="0.5"/>
<stop offset="1" stop-color="#68816B" stop-opacity="0.1"/>
</radialGradient>
<radialGradient id="paint4_radial_101_251" cx="0" cy="0" r="1" gradientUnits="userSpaceOnUse" gradientTransform="translate(491.417 204.703) rotate(99.4774) scale(299.285 306.51)">
<stop stop-color="#68816B" stop-opacity="0.5"/>
<stop offset="1" stop-color="#68816B" stop-opacity="0.1"/>
</radialGradient>
<radialGradient id="paint5_radial_101_251" cx="0" cy="0" r="1" gradientUnits="userSpaceOnUse" gradientTransform="translate(449.344 225.299) rotate(100.738) scale(279.481 322.599)">
<stop stop-color="#68816B" stop-opacity="0.5"/>
<stop offset="1" stop-color="#68816B" stop-opacity="0.1"/>
</radialGradient>
<radialGradient id="paint6_radial_101_251" cx="0" cy="0" r="1" gradientUnits="userSpaceOnUse" gradientTransform="translate(415.954 249.155) rotate(102.183) scale(256.515 333.668)">
<stop stop-color="#68816B" stop-opacity="0.5"/>
<stop offset="1" stop-color="#68816B" stop-opacity="0.1"/>
</radialGradient>
<radialGradient id="paint7_radial_101_251" cx="0" cy="0" r="1" gradientUnits="userSpaceOnUse" gradientTransform="translate(392.296 275.555) rotate(103.87) scale(231.075 339.116)">
<stop stop-color="#68816B" stop-opacity="0.5"/>
<stop offset="1" stop-color="#68816B" stop-opacity="0.1"/>
</radialGradient>
<radialGradient id="paint8_radial_101_251" cx="0" cy="0" r="1" gradientUnits="userSpaceOnUse" gradientTransform="translate(379.028 303.728) rotate(105.882) scale(203.972 338.548)">
<stop stop-color="#68816B" stop-opacity="0.5"/>
<stop offset="1" stop-color="#68816B" stop-opacity="0.1"/>
</radialGradient>
<radialGradient id="paint9_radial_101_251" cx="0" cy="0" r="1" gradientUnits="userSpaceOnUse" gradientTransform="translate(375.029 347.085) rotate(105.891) scale(203.88 338.558)">
<stop stop-color="#68816B" stop-opacity="0.5"/>
<stop offset="1" stop-color="#68816B" stop-opacity="0.1"/>
</radialGradient>
<radialGradient id="paint10_radial_101_251" cx="0" cy="0" r="1" gradientUnits="userSpaceOnUse" gradientTransform="translate(376.559 404.337) rotate(103.876) scale(231.011 339.166)">
<stop stop-color="#68816B" stop-opacity="0.5"/>
<stop offset="1" stop-color="#68816B" stop-opacity="0.1"/>
</radialGradient>
<radialGradient id="paint11_radial_101_251" cx="0" cy="0" r="1" gradientUnits="userSpaceOnUse" gradientTransform="translate(381.129 459.425) rotate(102.188) scale(256.473 333.735)">
<stop stop-color="#68816B" stop-opacity="0.5"/>
<stop offset="1" stop-color="#68816B" stop-opacity="0.1"/>
</radialGradient>
<radialGradient id="paint12_radial_101_251" cx="0" cy="0" r="1" gradientUnits="userSpaceOnUse" gradientTransform="translate(208.097 550.319) rotate(-23.8198) scale(346.237 199.348)">
<stop stop-color="#68816B" stop-opacity="0.5"/>
<stop offset="1" stop-color="#68816B" stop-opacity="0.1"/>
</radialGradient>
<radialGradient id="paint13_radial_101_251" cx="0" cy="0" r="1" gradientUnits="userSpaceOnUse" gradientTransform="translate(241.395 600.898) rotate(-23.0241) scale(344.263 227.579)">
<stop stop-color="#68816B" stop-opacity="0.5"/>
<stop offset="1" stop-color="#68816B" stop-opacity="0.1"/>
</radialGradient>
<radialGradient id="paint14_radial_101_251" cx="0" cy="0" r="1" gradientUnits="userSpaceOnUse" gradientTransform="translate(277.981 646.931) rotate(-22.1623) scale(337.187 253.834)">
<stop stop-color="#68816B" stop-opacity="0.5"/>
<stop offset="1" stop-color="#68816B" stop-opacity="0.1"/>
</radialGradient>
<radialGradient id="paint15_radial_101_251" cx="0" cy="0" r="1" gradientUnits="userSpaceOnUse" gradientTransform="translate(316.822 687.064) rotate(-21.2175) scale(325.236 277.254)">
<stop stop-color="#68816B" stop-opacity="0.5"/>
<stop offset="1" stop-color="#68816B" stop-opacity="0.1"/>
</radialGradient>
<radialGradient id="paint16_radial_101_251" cx="0" cy="0" r="1" gradientUnits="userSpaceOnUse" gradientTransform="translate(356.645 720.058) rotate(-20.1678) scale(308.792 297.057)">
<stop stop-color="#68816B" stop-opacity="0.5"/>
<stop offset="1" stop-color="#68816B" stop-opacity="0.1"/>
</radialGradient>
<radialGradient id="paint17_radial_101_251" cx="0" cy="0" r="1" gradientUnits="userSpaceOnUse" gradientTransform="translate(396.183 744.88) rotate(-18.9844) scale(288.423 312.58)">
<stop stop-color="#68816B" stop-opacity="0.5"/>
<stop offset="1" stop-color="#68816B" stop-opacity="0.1"/>
</radialGradient>
</defs>
</svg>
