<svg width="92" height="68" viewBox="0 0 92 68" fill="none" xmlns="http://www.w3.org/2000/svg">
<path d="M78.37 10.3613C80.1121 10.0807 83.0934 10.1008 84.2296 10.4013C84.9344 10.5877 85.0673 10.8202 84.8961 11.5607C84.5458 13.0762 84.6058 13.8073 85.1964 15.2059C86.5252 18.3537 86.6242 19.6112 85.6652 21.1371C84.7195 22.6405 84.84 23.0709 86.5986 24.4709C87.2592 24.997 87.6171 25.3734 87.8702 25.8091C88.6332 27.122 88.7028 27.1816 90.1195 27.7248C92.5952 28.6747 92.1273 29.829 87.7314 33.6066C84.4462 36.4297 83.7087 37.5243 84.7661 38.0063C85.4605 38.3233 85.4516 38.3386 83.7604 39.6741L82.2549 40.8625L82.2542 43.5163L82.7753 43.6494C86.2869 44.5464 85.6006 49.687 81.6232 52.2685C80.7942 52.8072 79.477 53.7304 78.6959 54.3213L77.2759 55.3946L77.2757 56.1075C77.2758 57.1058 76.936 57.6284 75.8302 58.3297C73.4824 59.8194 73.0738 60.1181 72.6271 60.6691C72.114 61.3028 71.9856 61.4047 69.6379 63.039C67.8206 64.3044 67.6194 64.3985 64.597 65.3821C62.8488 65.9509 62.2327 66.102 61.4827 66.1459C60.6193 66.1967 60.5555 66.1174 60.6693 65.133C60.7307 64.603 60.5016 64.5927 59.1507 65.0655C58.5651 65.2706 58.0131 65.4246 57.9242 65.4081C57.7434 65.3736 57.676 64.8298 57.8376 64.7075C57.8955 64.6637 57.982 64.4155 58.0314 64.1564C58.1635 63.4493 57.8638 63.3039 56.3354 63.3315C54.957 63.3568 54.8764 63.3836 53.489 64.2847C52.6418 64.8343 52.0947 64.9988 50.8446 65.0804C49.4855 65.1693 49.0138 65.3301 47.7697 66.1275C45.1178 67.8263 43.409 68.1283 42.1314 67.1239C41.3121 66.4798 40.7114 66.2938 39.6988 66.3718C38.7541 66.4441 37.8734 66.1824 36.8816 65.5357L36.119 65.0381L34.3541 64.9981C31.9289 64.9436 31.957 64.988 31.9429 61.27C31.9305 58.2189 31.4079 58.0089 28.2733 59.7978C26.9489 60.5533 26.8808 60.5638 26.5825 60.0605C26.0706 59.1963 24.4418 59.5225 23.3007 60.717C22.1853 61.8843 20.0626 63.4587 19.4111 63.6014C18.7596 63.744 18.4876 63.6272 17.7337 62.8823C17.3977 62.5502 16.6897 61.9277 16.1605 61.5C15.6307 61.0719 14.8388 60.3862 14.4003 59.9766C13.7839 59.3998 13.2997 59.0648 12.267 58.4974C10.5581 57.5576 10.5763 57.5962 10.6235 55.0643C10.6673 52.6909 10.8598 52.9431 8.99669 52.9307C6.63588 52.9142 4.11879 52.4401 3.4007 51.8756C3.03672 51.5895 3.03885 51.5688 3.52099 50.5712C4.11373 49.3453 4.17677 48.6352 3.83121 47.1199C3.68587 46.4846 3.60109 45.9397 3.64196 45.9088C3.68284 45.8778 3.66146 45.2935 3.59459 44.6104C3.44911 43.1359 3.68 42.5044 4.8231 41.2561C5.93208 40.046 5.92309 39.6179 4.76625 38.3175C3.96328 37.4156 3.76996 37.0812 3.23734 35.6798C2.97377 34.9846 2.79634 34.8247 1.61588 34.2208C-0.473896 33.1503 0.234493 32.0929 5.11533 28.9953C9.40527 26.2734 10.2491 25.4466 9.29973 24.8943C8.58786 24.4802 8.66838 24.3669 10.2925 23.5075C12.5099 22.3344 12.3807 22.456 12.5945 21.3435C12.6985 20.8004 12.8191 20.2219 12.8635 20.058C12.936 19.7851 12.8986 19.7402 12.4184 19.5277C11.1694 18.9755 10.8123 18.2379 10.8502 16.2963C10.8856 14.5061 10.9819 14.3267 12.6673 12.9032C13.8244 11.925 14.0795 11.6492 14.4853 10.9359C14.7457 10.48 15.2332 9.85045 15.5692 9.53731C15.9045 9.22368 16.6398 8.50275 17.2026 7.93523C18.383 6.74343 19.1377 6.26957 21.9078 4.98193C24.4706 3.79124 25.2201 3.73433 25.2912 4.72739C25.3485 5.52817 25.5898 5.50738 27.3822 4.54831C28.0896 4.16922 28.2956 4.33792 28.2079 5.22363C28.0469 6.85007 30.1721 6.72601 32.4889 4.97334L33.8517 3.94238L34.8544 3.76053C36.2717 3.50295 36.3426 3.46649 38.387 1.92942C41.0589 -0.0786004 41.6463 -0.224141 43.3948 0.687657C44.1846 1.09897 44.9829 1.17455 46.1917 0.951943C46.8373 0.832778 48.2108 1.14705 48.9734 1.58843C49.5288 1.90961 50.0041 1.91265 52.1166 1.6069C52.7133 1.52004 53.2673 1.5006 53.3469 1.56317C53.6035 1.76492 54.2073 3.45707 54.4382 4.62042C54.5613 5.24202 54.7196 6.03587 54.7901 6.38421C55.0816 7.83289 55.9429 7.80083 58.1412 6.25962C59.077 5.60406 59.7235 5.21107 59.7777 5.26624C59.8269 5.31657 59.9384 5.4644 60.0265 5.59476C60.2394 5.90957 61.1948 5.92048 61.9437 5.61665C62.4465 5.41235 62.5708 5.28501 63.3697 4.16388C65.6884 0.909938 66.5782 0.490879 68.431 1.78153C69.0127 2.18746 69.6026 2.54061 69.7412 2.56614C69.8805 2.59215 70.6031 3.04477 71.3478 3.57201C72.5476 4.42017 72.8923 4.60288 74.3679 5.17301C76.4436 5.97433 76.3302 5.8726 76.5876 7.16441C77.2989 10.7262 77.2008 10.5501 78.37 10.3613Z" fill="url(#paint0_radial_101_310)"/>
<defs>
<radialGradient id="paint0_radial_101_310" cx="0" cy="0" r="1" gradientUnits="userSpaceOnUse" gradientTransform="translate(46.0616 33.9242) rotate(90) scale(33.7738 45.5531)">
<stop stop-color="#3D6543" stop-opacity="0.8"/>
<stop offset="1" stop-color="#3D6543" stop-opacity="0.2"/>
</radialGradient>
</defs>
</svg>
