<svg width="101" height="68" viewBox="0 0 101 68" fill="none" xmlns="http://www.w3.org/2000/svg">
<path d="M63.763 9.95139C65.2757 9.6541 68.2603 9.64297 69.6295 9.92993C70.4787 10.1079 70.7951 10.3377 71.2105 11.0759C72.0609 12.5866 72.6992 13.3131 74.3939 14.6977C78.208 17.8142 79.3015 19.0637 79.5539 20.5911C79.8018 22.0961 80.2623 22.5228 83.1213 23.8966C84.1954 24.4129 84.8496 24.7835 85.4464 25.2141C87.245 26.5117 87.3615 26.5702 89.2021 27.0957C92.4188 28.0143 92.8663 29.1672 91.4781 32.9697C90.4406 35.8115 90.5724 36.9078 92.0067 37.3761C92.9489 37.684 92.9522 37.6993 92.3249 39.045L91.7661 40.2426L92.8157 41.5622L93.8653 42.8817L94.4894 43.0086C98.696 43.8639 102.08 48.9831 100.162 51.5919C99.763 52.1363 99.1819 53.0681 98.8717 53.6639L98.3069 54.7461L98.8709 55.455C99.6608 56.4478 99.736 56.971 99.1899 57.6801C98.0307 59.186 97.8601 59.4873 97.8514 60.04C97.8419 60.6755 97.7947 60.7782 96.75 62.4279C95.9416 63.7053 95.8158 63.801 93.5844 64.8107C92.2937 65.3946 91.7997 65.5513 91.0877 65.6029C90.2681 65.6624 90.1418 65.5842 89.4762 64.604C89.118 64.0764 88.8817 64.0685 87.9107 64.5528C87.4898 64.7629 87.062 64.9218 86.9604 64.9063C86.753 64.8739 86.2556 64.3338 86.3198 64.2105C86.3428 64.1664 86.2326 63.9187 86.0767 63.6605C85.6488 62.9559 85.2353 62.8145 83.7351 62.8579C82.3827 62.8975 82.3236 62.925 81.6551 63.8356C81.2463 64.3909 80.8317 64.5603 79.6514 64.6545C78.3684 64.7571 78.0259 64.9219 77.4181 65.7279C76.1216 67.445 74.659 67.7632 72.592 66.7778C71.2666 66.1458 70.5212 65.9671 69.5746 66.0553C68.6911 66.137 67.607 65.8861 66.1077 65.2533L64.9546 64.7664L63.1655 64.7451C60.7075 64.7163 60.7706 64.7602 57.8146 61.063C55.3879 58.0289 54.7015 57.8255 52.9956 59.6373C52.2745 60.4024 52.2151 60.4136 51.5198 59.9162C50.3263 59.0622 48.9625 59.4036 48.7713 60.6034C48.5844 61.7758 47.7164 63.3637 47.1805 63.5124C46.6446 63.6611 46.2813 63.5478 44.9412 62.8148C44.3439 62.4881 43.1462 61.8764 42.2809 61.4567C41.4146 61.0365 40.0835 60.3629 39.3227 59.9601C38.2526 59.393 37.5053 59.0649 36.0281 58.5115C33.5827 57.5948 33.6314 57.6329 31.6749 55.1146C29.8406 52.7539 30.2318 53.0027 28.3668 53.0099C26.0029 53.0182 23.1213 52.573 21.9596 52.0192C21.3707 51.7384 21.3565 51.7179 21.0472 50.7208C20.6674 49.4954 20.1683 48.7887 18.6252 47.2853C17.9778 46.6551 17.4622 46.1141 17.4784 46.0829C17.4947 46.0518 17.011 45.4709 16.4039 44.7922C15.0923 43.3274 14.8225 42.6971 14.9731 41.4437C15.1198 40.2288 14.7721 39.8031 12.5912 38.522C11.078 37.6335 10.6209 37.3031 8.98163 35.9149C8.1691 35.2264 7.86593 35.0693 6.21256 34.481C3.2846 33.4383 3.15329 32.3794 5.56248 29.248C7.68051 26.4963 7.86655 25.6653 6.48418 25.126C5.44766 24.7216 5.43822 24.6081 6.37548 23.7365C7.65528 22.5467 7.62278 22.669 6.95543 21.5604C6.62923 21.0193 6.29157 20.4428 6.20605 20.2792C6.06241 20.0072 5.98957 19.9629 5.34328 19.7565C3.66268 19.2205 2.72338 18.4907 1.22482 16.5595C-0.156501 14.7789 -0.202593 14.5994 0.349325 13.1662C0.727601 12.1814 0.7634 11.9045 0.602992 11.1909C0.501617 10.7348 0.488914 10.1036 0.575651 9.7887C0.661391 9.47331 0.823183 8.74869 0.934489 8.17843C1.16686 6.9809 1.54343 6.50178 3.28298 5.19233C4.89272 3.98144 5.59403 3.91702 6.45061 4.90381C7.14131 5.69956 7.36518 5.67636 8.39108 4.70386C8.79555 4.31948 9.13413 4.4851 9.74768 5.36681C10.8743 6.9859 12.8923 6.8403 13.8125 5.07313L14.3538 4.03365L15.2084 3.84232C16.4159 3.57136 16.4576 3.53435 17.2771 1.98444C18.3489 -0.0403723 18.8186 -0.191248 21.2812 0.697204C22.3931 1.09798 23.2479 1.16478 24.2754 0.930775C24.824 0.805521 26.4403 1.10368 27.549 1.53464C28.3562 1.84823 28.8319 1.84628 30.6935 1.52014C31.2189 1.42753 31.7552 1.4024 31.884 1.46378C32.2992 1.66173 34.2393 3.33818 35.3898 4.49264C36.0042 5.10951 36.79 5.8973 37.1358 6.24297C38.5724 7.68055 39.4047 7.63966 40.3742 6.08402C40.7873 5.42232 41.1202 5.02475 41.2177 5.07905C41.3065 5.12858 41.5346 5.27443 41.7254 5.40314C42.1865 5.71397 43.1466 5.71484 43.6518 5.40486C43.9908 5.19644 44.0139 5.0685 43.9223 3.94525C43.6564 0.685126 44.2109 0.259087 47.0771 1.5232C47.9776 1.9208 48.8445 2.26581 49.0027 2.28975C49.1619 2.31416 50.2396 2.75671 51.3983 3.27324C53.2642 4.10415 53.7521 4.28223 55.6725 4.83376C58.3735 5.60893 58.1801 5.50895 59.4586 6.7909C62.9851 10.3254 62.7481 10.1514 63.763 9.95139Z" fill="url(#paint0_radial_101_308)"/>
<defs>
<radialGradient id="paint0_radial_101_308" cx="0" cy="0" r="1" gradientUnits="userSpaceOnUse" gradientTransform="translate(50.0347 32.9364) rotate(117.506) scale(29.3256 55.1645)">
<stop stop-color="#3D6543" stop-opacity="0.8"/>
<stop offset="1" stop-color="#3D6543" stop-opacity="0.2"/>
</radialGradient>
</defs>
</svg>
