<svg width="1043" height="1016" viewBox="0 0 1043 1016" fill="none" xmlns="http://www.w3.org/2000/svg">
<path fill-rule="evenodd" clip-rule="evenodd" d="M447.995 3.80264C438.599 20.8424 433.534 39.5949 436.762 45.3962C438.489 48.5003 439.153 50.5471 439.644 54.3016C440.457 60.5173 439.557 61.9864 433.072 65.0051C427.767 67.4738 425.812 69.4804 418.256 80.1915C406.849 96.3698 405.025 98.512 403.364 97.6883C396.225 94.1573 394.364 86.7386 396.451 70.1057C398.096 56.9737 398.388 57.9732 389.493 46.3455C386.921 42.9828 384.59 39.8234 384.312 39.3262C383.611 38.0755 384.441 34.5772 387.551 25.6617C390.286 17.8212 390.401 17.3064 388.737 20.3251C380.186 35.8379 380.53 35.5717 373.457 32.2441C367.237 29.3183 364.596 28.4444 360.793 28.0576C359.295 27.9044 353.284 27.0983 347.439 26.2645C341.597 25.4307 336.736 24.8229 336.639 24.9159C336.542 25.0088 339.277 25.8225 342.718 26.7215C352.975 29.4062 363.421 32.1989 365.035 32.6861C369.153 33.9317 380.126 43.9095 384.732 50.6023C390.477 58.9476 390.837 62.7323 387.585 80.6812C384.819 95.9504 387.714 104.514 396.488 107.016C401.695 108.5 409.162 116.2 419.681 130.942C422.5 134.892 426.038 139.648 427.544 141.517C429.573 144.031 430.363 145.407 430.586 146.821L430.888 148.727L429.261 148.963C412.429 151.397 397.745 151.957 394.661 150.284C382.646 143.767 376.068 143.082 366.683 147.363C350.421 154.785 349.161 154.461 334.188 139.033C330.716 135.454 330.443 135.377 317.241 134.191C313.462 133.852 313.378 133.777 308.876 126.592C307.005 123.601 305.577 121.448 305.709 121.805C307.622 127.094 309.645 133.222 309.645 133.732C309.645 134.425 308.656 134.651 303.885 135.043C302.344 135.168 300.362 135.6 299.486 136.002C297.914 136.718 297.78 136.7 291.376 134.892C287.796 133.88 284.455 132.956 283.956 132.835C283.014 132.607 288.94 135.934 294.271 138.624L297.313 140.158L302.751 139.417C310.294 138.393 320.873 138.677 325.199 140.023C329.923 141.494 331.76 143.087 340.335 153.157C346.873 160.832 352.492 162.62 358.77 159.016C363.253 156.442 365.956 155.905 371.26 156.533C379.787 157.542 414.135 166.503 430.219 171.915L434.171 173.246L434.52 175.694C434.715 177.043 434.88 181.795 434.888 186.252L434.906 194.359L433.657 195.554C430.943 198.156 431.001 201.529 433.969 213.556C434.83 217.052 435.673 220.646 435.841 221.545L436.142 223.175H431.059C426.216 223.175 425.886 223.117 424.075 221.934C423.03 221.248 421.356 220.51 420.356 220.287C418.563 219.89 418.537 219.852 418.395 217.725C418.23 215.236 417.319 214.038 415.592 214.038C414.067 214.038 412.802 212.755 411.311 209.689C410.671 208.373 409.91 206.984 409.616 206.602C408.164 204.711 410.351 202.144 414.036 201.414C417.361 200.753 418.902 199.337 419.912 196.017C420.327 194.648 420.571 193.435 420.453 193.322C420.335 193.209 420.098 193.663 419.93 194.331C418.862 198.538 417.442 199.786 413.096 200.344C411.319 200.572 410.516 200.959 409.343 202.147C407.605 203.912 407.695 204.166 407.655 197.435C407.621 192.066 406.807 190.547 403.96 190.547C403.157 190.547 401.146 189.959 399.493 189.241C397.839 188.523 395.199 187.377 393.622 186.694C392.047 186.011 389.95 184.816 388.963 184.037C387.745 183.078 387.892 183.281 389.412 184.663C390.677 185.813 393.459 187.568 395.779 188.681C398.044 189.766 400.44 191.021 401.104 191.471C401.766 191.918 402.918 192.287 403.661 192.287C405.889 192.287 406.172 193.038 405.808 197.935C405.629 200.331 405.424 202.293 405.356 202.293C405.285 202.293 404.642 202.001 403.926 201.642C401.905 200.632 399.39 200.813 397.635 202.097C395.301 203.799 393.401 203.907 390.278 202.514C387.38 201.223 378.688 198.294 378.444 198.528C378.36 198.608 380.289 199.435 382.73 200.364C385.168 201.295 388.189 202.647 389.438 203.37C392.359 205.06 395.692 205.193 397.795 203.706C401.264 201.25 405.314 203.33 407.335 208.601C408.716 212.202 412.088 216.856 413.812 217.539C414.828 217.941 415.138 218.305 414.975 218.903C414.348 221.198 416.865 224.473 419.264 224.478C419.663 224.481 420.356 224.87 420.804 225.345C421.253 225.819 422.694 226.786 424.009 227.497C425.542 228.323 427.374 229.93 429.122 231.975C432.392 235.807 435.182 238.281 437.116 239.067C438.184 239.501 438.938 240.395 440.113 242.615C440.974 244.245 441.812 245.679 441.969 245.8C442.945 246.538 449.851 256.501 450.998 258.821C453.194 263.269 454.15 272.174 452.675 274.457C452.488 274.746 447.651 270.406 440.678 263.691C419.353 243.153 405.571 233.803 394.582 232.417C392.089 232.103 391.853 231.944 384.625 225.787C370.633 213.865 368.688 212.514 356.45 206.198C346.004 200.806 343.925 199.204 339.962 193.485C336.319 188.231 333.007 186.647 325.642 186.634C322.9 186.629 322.107 186.092 320.585 183.203C318.388 179.04 313.291 175.594 303.415 171.593C292.819 167.299 290.077 165.83 289.35 164.052C287.966 160.679 287.111 160.156 282.497 159.873L279.408 159.684L281.909 160.114C286.822 160.955 287.242 161.204 288.016 163.75C288.867 166.553 290.378 167.618 300.163 172.302C311.504 177.731 315.349 180.491 317.341 184.632C319.488 189.098 321.275 190.152 328.018 190.934C332.44 191.443 333.479 192.121 335.561 195.846C339.159 202.287 342.387 205.143 353.746 211.946C362.935 217.446 365.497 219.35 371.478 225.131L376.709 230.184L372.617 229.832C361.087 228.848 356.177 229.501 346.474 233.313L340.789 235.546L335.561 235.44C327.731 235.28 323.726 236.503 315.782 241.48C307.207 246.852 302.682 248.098 297.079 246.623C294.441 245.928 292.071 245.667 288.048 245.619C282.352 245.554 282.221 245.521 279.626 243.55C278.744 242.879 276.717 241.842 275.122 241.242C271.497 239.883 271.135 239.566 267.319 234.426C260.267 224.923 238.95 210.294 227.769 207.288C222.488 205.866 222.286 205.761 218.848 202.699C213.851 198.249 210.743 196.642 205.98 196.044L203.933 195.788L206.119 196.391C210.25 197.531 213.268 199.304 217.258 202.928C221.57 206.848 223.011 207.682 228.486 209.415C233.375 210.962 235.664 212.285 243.244 217.941C256.734 228.007 259.364 230.32 262.731 235.086C266.949 241.056 266.802 240.772 265.497 240.413C256.366 237.886 247.254 237.512 232.806 239.069C215.911 240.893 212.439 240.28 204.604 234.082C192.933 224.85 189.899 224.054 169.377 224.817C156.37 225.302 157.052 225.43 152.772 221.673C150.987 220.106 149.289 218.825 148.997 218.827C148.704 218.83 149.003 219.172 149.659 219.588C150.318 220.005 151.827 221.384 153.016 222.65C156.31 226.163 156.126 226.118 169.65 226.625C188.967 227.346 192.135 228.228 198.704 234.702C208.531 244.386 212.701 245.637 233.714 245.215C250.758 244.871 260.597 246.292 267.768 250.132C269.503 251.061 264.894 251.581 258.285 251.204C243.645 250.365 240.661 250.792 227.407 255.629C219.628 258.467 211.835 261.102 208.121 262.151C206.673 262.561 203.712 263.975 201.542 265.291C193.657 270.08 192.45 270.303 171.653 270.838C153.079 271.318 153.916 271.775 173.487 271.84C194.35 271.911 194.731 271.863 200.977 268.455C206.835 265.26 207.436 265.014 211.714 264.06C213.898 263.573 219.651 261.9 224.496 260.346C233.008 257.613 240.343 255.72 244.648 255.14C245.929 254.969 249.312 255.23 253.516 255.828C263.432 257.239 266.18 257.144 271.321 255.207C276.305 253.329 276.287 253.331 280.578 254.73C295.935 259.733 312.002 258.789 336.54 251.438C339.705 250.489 342.416 249.715 342.568 249.715C342.718 249.715 342.243 250.742 341.508 251.998C340.773 253.254 339.807 255.16 339.364 256.235C338.435 258.485 336.652 260.318 333.742 262.021C332.616 262.676 330.107 264.284 328.165 265.589C325.632 267.292 323.532 268.284 320.753 269.095C318.619 269.718 314.388 271.381 311.351 272.79C300.599 277.777 289.069 278.852 281.513 275.572C279.951 274.894 278.232 274.51 276.738 274.507C273.993 274.502 272.353 274.053 264.251 271.082C252.871 266.905 256.876 268.884 270.542 274.186C272.626 274.995 274.928 275.547 276.452 275.607C278.206 275.678 279.906 276.147 282.137 277.177L285.318 278.646L292.594 278.634C301.62 278.619 308.155 277.34 313.931 274.462C315.916 273.475 319.346 272.204 321.558 271.637C326.228 270.441 326.962 270.107 332.361 266.715C334.576 265.323 336.91 264.06 337.55 263.907C339.406 263.46 340.957 261.629 343.377 257.031C350.017 244.408 358.284 241.802 377.026 246.42C384.331 248.221 390.05 249.278 392.467 249.278C393.451 249.278 394.853 249.572 395.577 249.931C396.301 250.29 397.913 250.792 399.157 251.049C402.054 251.644 403.947 253.54 409.545 261.461C414.127 267.948 419.075 273.023 423.119 275.384C426.122 277.134 431.712 282.112 438.796 289.34L443.733 294.38L440.594 296.736C435.371 300.658 428.064 304.571 408.448 313.954C387.428 324.007 387.855 323.881 384.848 320.83C381.013 316.94 380.945 313.466 384.664 311.209C388.057 309.152 388.002 309.283 387.659 304.059C387.307 298.757 387.357 298.602 390.895 293.654L392.916 290.826L390.819 293.004C386.997 296.962 386.194 298.366 385.884 301.605C385.512 305.553 384.254 308.233 382.593 308.632C381.895 308.8 380.467 309.526 379.417 310.247C377.029 311.889 375.126 311.55 371.767 308.891C368.948 306.656 366.192 305.915 359.843 305.686C357.069 305.588 354.371 305.287 353.846 305.018C352.717 304.441 338.605 300.166 338.419 300.347C338.348 300.415 340.285 301.218 342.723 302.133C347.836 304.051 354.001 306.914 354.421 307.565C354.581 307.811 356.326 308.012 358.303 308.012C364.762 308.012 369.216 310.342 372.895 315.646C374.05 317.309 375.861 319.333 376.924 320.144C381.446 323.595 381.769 327.503 377.735 329.984C369.339 335.142 362.652 340.861 354.074 350.213C351.55 352.966 349.237 355.484 348.933 355.811C348.471 356.308 347.573 356.148 343.447 354.832C339.734 353.646 337.757 353.259 335.453 353.259C331.639 353.259 330.629 352.488 327.477 347.194L325.293 343.523L321.682 342.27C317.343 340.765 317.871 341.247 316.658 337.696L315.658 334.768L315.892 337.659C316.152 340.853 316.286 340.7 312.698 341.278C311.291 341.506 303.806 344.967 304.677 344.987C304.822 344.989 306.441 344.502 308.281 343.905C312.149 342.646 315.273 342.528 318.769 343.51C323.054 344.716 323.85 345.431 326.695 350.648C328.661 354.251 329.684 355.65 330.868 356.351C332.45 357.288 332.734 357.293 337.154 356.487C338.676 356.208 343.062 357.594 344.715 358.872L345.72 359.653L343.671 362.22C335.217 372.803 328.595 384.634 325.094 395.423C323.427 400.549 323.711 400.348 321.858 397.744C321.047 396.606 318.942 393.939 317.175 391.817C315.409 389.695 313.136 386.955 312.126 385.727C308.257 381.033 303.05 378.343 288.73 373.637C285.751 372.657 277.061 371.095 274.594 371.095C274.416 371.095 273.067 369.95 271.594 368.551C269.668 366.72 268.164 365.738 266.227 365.043C264.663 364.483 261.626 362.692 258.978 360.771C256.469 358.95 253.658 357.175 252.729 356.826C251.561 356.386 250.469 355.409 249.191 353.666C245.278 348.33 242.821 345.956 237.913 342.769C230.535 337.978 224.811 331.93 223.953 328.025C222.935 323.376 214.617 314.288 204.615 306.889C198.347 302.251 178.246 289.078 174.151 286.926C172.432 286.02 174.826 287.712 180.29 291.266C206.316 308.185 219.302 319.906 222.047 328.942C223.559 333.912 228.375 339.567 234.538 343.606C238.624 346.285 242.695 350.105 245.503 353.902L247.062 356.009L244.139 355.743C242.532 355.595 238.816 354.678 235.879 353.704C232.945 352.727 229.16 351.75 227.467 351.529C225.777 351.308 222.963 350.899 221.218 350.62C212.008 349.151 204.536 350.675 201.57 354.623C199.62 357.222 200.148 357.33 196.411 353.586C192.539 349.706 191.366 347.639 187.327 337.566C185.574 333.201 183.138 327.947 181.91 325.89C180.681 323.833 179.529 321.563 179.348 320.848C178.595 317.851 172.655 313.195 165.01 309.604C158.661 306.623 157.59 305.945 153.465 302.318C144.559 294.488 139.565 290.992 132.35 287.534C126.599 284.779 125.828 284.764 131.237 287.509C138.47 291.186 142.462 294.126 152.373 303.079C158.136 308.286 158.937 308.848 164.194 311.365C170.194 314.238 176.099 318.999 176.745 321.488C176.902 322.091 178.107 324.642 179.419 327.154C180.734 329.667 183.067 335.248 184.608 339.555C187.314 347.127 189.576 351.866 191.56 354.128C192.085 354.726 190.332 353.104 187.665 350.522C183.813 346.793 182.183 345.539 179.734 344.432L176.653 343.036L167.333 342.805L158.013 342.576L152.782 340.373C149.908 339.16 146.633 337.845 145.509 337.445C142.864 336.511 137.948 332.563 127.153 322.701C113.072 309.838 110.831 308.102 103.729 304.571C99.7761 302.607 96.1857 300.432 93.9285 298.637C88.5035 294.322 87.1466 293.566 90.947 296.979C96.3878 301.861 97.2591 302.502 102.608 305.556C109.259 309.353 111.29 311.043 119.88 319.918C131.562 331.99 138.287 338.427 141.082 340.213C142.523 341.134 143.515 341.998 143.284 342.136C143.055 342.272 141.998 341.689 140.937 340.841C139.643 339.806 138.62 339.331 137.825 339.399C137.174 339.457 135.415 338.957 133.917 338.289C121.746 332.88 117.222 332.257 103.852 334.165C93.9889 335.572 83.9499 336.069 83.3173 335.18C83.1389 334.926 81.6612 334.71 80.0366 334.7C78.2991 334.69 77.8293 334.758 78.8923 334.866C79.8896 334.966 80.8476 335.268 81.0182 335.534C81.2439 335.883 81.5169 335.868 82.0024 335.484C82.4486 335.13 82.7294 335.105 82.8344 335.408C83.089 336.137 88.1492 336.76 91.6294 336.493C93.38 336.358 98.9992 335.845 104.115 335.353C116.566 334.158 117.377 334.241 125.956 337.543C129.833 339.035 133.72 340.72 134.596 341.288C135.63 341.961 136.586 342.247 137.323 342.104C138.176 341.943 138.796 342.222 139.796 343.221C140.764 344.188 141.549 344.557 142.646 344.557C143.481 344.557 144.927 345.012 145.858 345.567C148.803 347.322 148.378 347.26 166.422 348.648C177.199 349.48 176.871 349.329 182.479 356.05C190.403 365.538 197.348 366.999 214.617 362.813C222.895 360.809 226.48 360.495 228.257 361.622C230.005 362.727 236.162 364.882 240.498 365.907C244.957 366.959 246.865 367.918 252.12 371.756C254.185 373.263 256.498 374.805 257.264 375.184C258.03 375.563 259.847 376.871 261.303 378.095C265.377 381.518 269.741 383.301 277.744 384.81C285.951 386.359 297.874 391.744 299.601 394.682C300.205 395.707 301.853 398.015 303.268 399.81C309.848 408.161 309.84 408.138 310.769 418.576C311.63 428.259 312.637 435.633 313.601 439.327C314.682 443.463 313.908 445.528 306.806 457.454C300.226 468.509 300.559 468.098 298.142 468.108C295.121 468.12 291.99 465.749 291.242 462.886C290.874 461.475 292.701 459.727 295.819 458.507C297.809 457.731 297.877 457.66 296.46 457.874C295.583 458.007 293.877 458.602 292.667 459.2C289.775 460.624 289.457 460.586 287.043 458.554C285.775 457.487 284.355 456.726 283.337 456.57C278.182 455.782 278.413 456.269 275.801 440.706C274.959 435.683 274.951 437.263 275.778 444.96C277.006 456.379 277.09 456.56 281.809 457.901C285.092 458.836 286.444 460.109 288.948 464.619C291.113 468.517 295.019 472.03 297.192 472.03C297.538 472.03 297.822 472.148 297.822 472.294C297.822 472.555 289.166 486.78 287.061 489.982L285.982 491.619L281.602 486.501C264.295 466.282 260.566 463.05 253.039 461.771C243.789 460.202 239.488 460.747 230.48 464.637C226.575 466.322 218.478 468.55 216.255 468.55C216.126 468.55 215.473 467.62 214.806 466.483C214.14 465.345 212.903 463.311 212.058 461.957C209.203 457.379 209.906 455.935 219.945 445.721C224.622 440.962 226.885 439.001 228.861 437.989C236.48 434.091 239.078 419.565 235.567 400.494C234.551 394.971 233.903 393.125 234.496 397.44C235.152 402.221 234.866 417.94 234.042 422.215C232.396 430.773 231.302 432.574 226.493 434.653C224.698 435.432 222.475 436.881 220.985 438.252C219.609 439.513 216.433 442.215 213.93 444.257C203.998 452.359 201.927 457.535 205.583 465.124C207.219 468.522 207.279 468.384 203.421 469.996C199.51 471.631 199.004 471.556 198.355 469.24C197.991 467.932 197.001 466.473 195.258 464.672L192.697 462.022H189.532C186.705 462.022 184.818 462.475 184.156 463.311C181.453 466.714 174.388 465.237 164.86 459.278C161.711 457.309 160.931 457.012 158.764 456.952C155.782 456.867 155.551 456.583 155.205 452.552C154.716 446.899 156.354 444.162 163.252 439.089C171.708 432.873 173.501 430.012 173.419 422.867C173.364 418.076 170.957 407.322 169.348 404.675C168.957 404.035 168.779 403.899 168.95 404.379C170.133 407.686 171.527 416.664 171.587 421.346C171.682 428.998 170.642 430.603 161.874 436.359C153.525 441.833 151.341 444.649 150.659 450.809L150.383 453.298L148.572 451.927C146.103 450.056 143.932 447.092 142.743 443.968C137.355 429.819 130.486 425.861 121.185 431.549C118.93 432.926 117.783 433.305 114.592 433.722C112.466 434 107.044 435.015 102.542 435.977C98.0412 436.941 92.1071 438.207 89.3565 438.795C81.1809 440.54 71.9687 440.668 63.6671 439.154L62.5307 438.945L63.6671 439.418C69.7561 441.949 83.3488 442.067 97.5399 439.709C102.792 438.837 110.033 437.845 113.634 437.504C119.838 436.919 120.363 436.793 123.76 435.09C130.192 431.868 132.313 433.438 136.441 444.478C137.665 447.745 139.197 451.186 139.848 452.128C141.286 454.207 141.423 454.071 137.297 454.624C127.67 455.915 122.571 458.971 119.132 465.513C114.802 473.758 108.839 477.078 95.3038 478.791C92.3223 479.168 88.0258 480.044 85.7556 480.737C79.2571 482.719 59.4363 488.02 55.4548 488.839C53.4732 489.246 51.9352 489.663 52.0428 489.766C52.3499 490.06 65.5253 487.443 78.9002 484.432C87.4038 482.518 92.9207 481.518 96.8576 481.179C110.343 480.014 118.502 475.499 123.376 466.503C126.067 461.54 132.261 459.137 141.428 459.499C146.914 459.715 146.958 459.732 154.433 464.572C165.477 471.721 178.986 475.674 185.319 473.61C188.188 472.676 188.009 472.61 188.923 474.903C191.72 481.908 199.211 483.816 208.73 479.946C210.491 479.23 210.867 479.22 213.389 479.811C218.782 481.071 234.302 478.515 239.682 475.478C241.755 474.308 242.343 474.168 244.144 474.416C247.613 474.896 254.794 476.784 255.33 477.362C259.275 481.606 261.891 484.816 264.642 488.779C268.712 494.643 271.258 497.908 274.699 501.672L277.34 504.56L275.912 506.459C272.82 510.573 268.72 515.133 263.253 520.54C260.109 523.649 256.991 526.892 256.324 527.74L255.112 529.287L244.999 528.095C239.438 527.439 232.53 526.784 229.648 526.64C225.643 526.437 224.318 526.221 224.021 525.716C222.168 522.547 220.315 521.633 211.662 519.631C209.911 519.227 208.069 518.539 207.565 518.107C205.912 516.683 203.392 515.972 200.004 515.972H196.725L193.587 512.737C191.072 510.148 189.5 509.008 185.684 507.009C183.062 505.635 180.537 504.048 180.07 503.48C179.511 502.802 177.689 501.954 174.755 501.007C172.299 500.216 169.215 499.045 167.9 498.407C166.587 497.77 165.514 497.34 165.514 497.453C165.514 497.815 170.648 500.517 174.151 501.999C176.322 502.915 178.472 504.259 180.062 505.69C181.44 506.926 183.931 508.779 185.6 509.809C187.899 511.228 189.104 512.366 190.555 514.498C191.608 516.045 192.97 517.687 193.581 518.147L194.691 518.983L193.174 519.877C186.08 524.056 171.117 523.896 166.293 519.591C162.91 516.57 160.834 515.894 153.695 515.487C145.969 515.045 145.465 514.955 140.378 513.061C136.142 511.484 125.206 508.134 124.366 508.154C124.116 508.162 126.035 508.94 128.631 509.887C131.229 510.831 135.743 512.67 138.667 513.968C144.929 516.751 145.845 517.004 153.01 517.926C157.96 518.561 162.33 519.865 162.33 520.706C162.33 520.874 163.304 522.004 164.49 523.215C169.472 528.293 189.051 529.076 197.534 524.541C199.843 523.305 203.355 523.906 205.796 525.955C206.597 526.628 208.266 527.429 209.505 527.733C211.337 528.182 211.917 528.567 212.607 529.795C213.665 531.671 214.688 532.324 217.528 532.931C219.071 533.26 222.074 534.85 227.302 538.102C231.454 540.687 235.926 543.371 237.239 544.069C240.22 545.654 240.322 545.428 235.627 547.623C233.451 548.64 229.724 550.843 227.349 552.515C214.531 561.549 201.867 564.844 179.836 564.879L169.377 564.894L160.233 563.066C144.851 559.992 141.612 559.864 131.51 561.923C128.376 562.561 122.71 563.219 116.959 563.611C111.781 563.965 103.246 564.67 97.9966 565.178C86.1335 566.325 60.8745 565.871 59.2709 564.482C58.8143 564.085 56.334 562.501 53.7619 560.966C42.3686 554.158 32.2771 551.646 16.3144 551.646C12.1308 551.646 7.68742 551.418 6.4145 551.136C3.36998 550.463 2.02357 551.109 1.31756 553.57C0.188991 557.505 1.5669 574.425 4.27809 589.973C5.71898 598.235 5.84759 599.719 6.40662 614.451L6.88167 627.008L9.41177 634.464C12.5271 643.646 13.6583 646.388 17.4719 654.025C20.4061 659.905 20.4901 660.171 21.1699 665.774C21.6817 669.968 22.3011 672.67 23.4795 675.854C27.5188 686.769 28.8258 690.649 30.5213 696.737C31.9622 701.91 32.8755 704.21 34.9253 707.832C39.6023 716.094 40.9094 718.874 42.0826 723.058C45.5732 735.497 48.1585 741.216 55.3734 752.454C61.2499 761.611 62.2525 763.891 64.1605 772.44C65.9269 780.363 66.9557 781.968 76.8504 792.234C87.2962 803.074 91.989 808.398 96.7552 814.807C108.736 830.922 115.676 835.739 126.909 835.739H130.397L131.683 837.372C132.392 838.268 136.675 842.625 141.205 847.053C149.73 855.388 151.37 857.322 153.412 861.468C154.824 864.336 158.682 868.01 167.561 874.942C170.81 877.478 174.949 880.871 176.758 882.479C178.566 884.088 180.713 885.58 181.532 885.796C182.351 886.012 184.553 887.491 186.429 889.081C195.697 896.942 207.66 905.749 224.165 916.867C236.325 925.057 238.202 926.463 238.719 927.766C238.963 928.377 240.992 929.826 244.028 931.556C251.705 935.928 253.466 936.797 262.634 940.735C267.358 942.764 274.269 945.821 277.993 947.523C281.715 949.229 284.841 950.547 284.938 950.454C285.258 950.148 283.733 949.173 279.954 947.275C275.649 945.11 275.775 944.972 280.675 946.469C282.623 947.064 284.675 947.551 285.237 947.551C285.796 947.551 287.783 948.262 289.651 949.131C291.52 949.997 297.244 952.132 302.37 953.872C307.496 955.613 313.126 957.529 314.879 958.134C316.632 958.737 319.393 959.362 321.015 959.525C325.49 959.97 328.571 960.821 335.435 963.506C338.878 964.852 344.65 967.052 348.258 968.391C355.308 971.008 356.019 971.618 352.277 971.836L349.883 971.977L351.473 972.625C365.357 978.288 382.084 982.927 411.718 989.328C415.219 990.084 419.004 991.089 420.13 991.561C421.371 992.083 425.387 992.831 430.358 993.467C439.812 994.677 442.609 995.242 443.347 996.094C445.302 998.346 432.465 996.267 409.445 990.599C399.802 988.223 395.997 987.467 393.758 987.485C392.089 987.495 389.546 987.143 387.913 986.671C384.483 985.679 383.756 985.639 383.756 986.43C383.756 987.123 387.63 988.858 393.22 990.672C400.186 992.932 402.453 993.376 407.262 993.427C412.576 993.484 413.114 993.725 411.246 995.212C409.821 996.345 409.674 996.345 405.353 995.255C403.852 994.876 400.17 994.162 397.167 993.668C394.167 993.173 390.506 992.477 389.031 992.123C387.554 991.767 386.244 991.576 386.118 991.696C385.627 992.166 389.672 993.374 394.44 994.183C407.28 996.355 412.316 997.653 423.862 1001.77C427.143 1002.94 427.418 1002.97 428.132 1002.29C428.843 1001.61 428.765 1001.53 426.899 1001.07C411.55 997.264 415.238 996.141 434.093 998.876C455.404 1001.97 465.385 1002.47 465.685 1000.47C465.819 999.577 466.021 999.544 470.824 999.655C477.97 999.816 495.253 1000.98 499.059 1001.55C501.644 1001.94 505.623 1001.84 519.063 1001.09C559.968 998.809 573.195 997.57 596.444 993.851C603.268 992.759 609.1 991.955 609.402 992.065C611.01 992.648 605.037 994.044 595.405 995.338C593.654 995.574 590.788 996.259 589.04 996.86C587.289 997.46 583.468 998.364 580.549 998.869C574.579 999.898 570.096 1001.08 570.999 1001.39C571.72 1001.63 578.508 1000.99 593.098 999.293C599.082 998.598 604.063 998.11 604.168 998.208C604.982 998.989 590.667 1001.81 572.216 1004.5C555.999 1006.87 550.186 1007.84 549.758 1008.29C548.257 1009.85 581.799 1007.26 586.715 1005.44C589.192 1004.52 587.549 1004.5 583.686 1005.39C579.613 1006.33 573.421 1006.64 575.626 1005.79C578.18 1004.81 582.269 1004.03 592.659 1002.56C605.084 1000.79 614.75 999.037 615.386 998.429C615.976 997.869 615.533 997.907 612.362 998.693C608.186 999.728 608.286 999.23 612.572 997.673C614.897 996.827 617.068 995.692 618.047 994.81C619.401 993.585 620.509 993.15 624.813 992.143C632.083 990.443 639.912 988.155 643.371 986.719C644.996 986.046 648.964 984.848 652.19 984.062C655.823 983.173 657.741 982.525 657.237 982.354C655.964 981.927 658.342 981.146 664.436 979.986C667.651 979.375 670.449 978.564 671.649 977.896C672.725 977.296 678.62 975.287 684.748 973.433C696.551 969.86 709.151 965.651 715.849 963.041C722.426 960.477 721.6 961.796 714.238 965.616C712.02 966.766 710.285 967.783 710.385 967.878C710.605 968.089 715.755 966.52 719.757 965.02C726.434 962.521 767.055 942.493 767.805 941.333C768.078 940.909 764.682 942.584 759.199 945.577C756.562 947.016 756.388 946.795 758.866 945.153C761.837 943.181 760.58 943.402 756.391 945.587C754.247 946.707 752.494 947.526 752.494 947.411C752.494 946.793 776.44 932.905 776.842 933.289C776.942 933.387 775.343 934.424 773.286 935.594C767.53 938.869 767.378 938.992 769.469 938.701C772.278 938.307 775.251 937.069 775.118 936.345C775.039 935.926 777.028 934.612 780.855 932.556C784.075 930.825 787.86 928.397 789.267 927.161C790.671 925.923 795.301 922.631 799.55 919.843C823.583 904.079 848.881 884.548 848.881 881.755C848.881 881.235 849.427 880.856 841.834 886.65C831.835 894.282 832.53 893.338 843.199 884.802C846.95 881.801 851.041 878.229 852.293 876.866C853.543 875.5 858.949 870.241 864.306 865.178C874.896 855.165 888.439 841.5 888.439 840.825C888.439 840.257 889.652 839.376 891.862 838.336C892.869 837.861 895.326 835.885 897.318 833.944C902.229 829.157 900.654 830.036 893.47 836.088C892.25 837.118 891.137 837.789 891.003 837.578C890.67 837.065 896.022 832.095 897.853 831.216C899.14 830.598 904.806 824.832 904.806 824.142C904.806 823.993 903.769 824.802 902.504 825.935C899.567 828.564 898.998 828.162 901.767 825.417C902.916 824.275 905.963 820.601 908.538 817.25C911.113 813.9 917.023 806.364 921.677 800.499C926.33 794.638 932.742 786.416 935.928 782.227C939.112 778.04 941.925 774.419 942.18 774.18C942.768 773.625 940.492 777.995 939.067 780.155C937.288 782.849 938.269 782.006 940.322 779.075C943.183 774.989 945.29 772.616 945.791 772.912C946.038 773.058 946.647 772.824 947.143 772.395C948.033 771.624 948.038 771.631 947.563 772.829C946.731 774.926 942.561 782.681 941.015 785.009C938.653 788.565 938.687 788.477 939.936 787.694C940.561 787.302 941.33 787.036 941.639 787.106C943.303 787.475 954.208 768.66 963.888 748.727C965.804 744.779 968.539 739.922 969.964 737.936C971.701 735.507 972.552 733.89 972.552 733.011C972.552 731.253 974.52 726.836 979.659 717.061C982.798 711.087 983.882 709.351 983.73 710.544C983.617 711.436 983.677 712.257 983.866 712.37C984.053 712.48 983.326 714.294 982.247 716.401C980.063 720.665 980 720.884 980.953 720.884C981.887 720.884 982.816 719.389 984.633 714.969C986.451 710.534 986.454 710.517 985.344 711.478C983.656 712.94 994.362 685.38 998.055 678.76C999.811 675.613 1000.28 673.677 999.362 673.386C998.895 673.238 999.249 668.843 1000.31 661.499C1000.88 657.642 1004.4 646.489 1005.06 646.489C1005.79 646.489 1007.3 640.78 1006.67 640.406C1006.39 640.243 1006.26 639.834 1006.38 639.492C1006.5 639.153 1006.83 637.455 1007.12 635.72C1007.41 633.985 1007.82 632.664 1008.02 632.787C1008.47 633.05 1009.19 630.951 1009.58 628.216C1009.74 627.139 1010.59 623.354 1011.47 619.805C1012.35 616.254 1013 612.927 1012.92 612.409C1012.84 611.889 1012.29 613.62 1011.71 616.252C1010.41 622.118 1010.01 622.616 1009.59 618.904C1009.42 617.319 1009.09 615.915 1008.87 615.785C1008.16 615.363 1008.44 614.318 1010.5 609.795C1012.52 605.355 1013.64 601.261 1012.68 601.829C1012.41 601.984 1011.56 603.78 1010.79 605.814C1010.03 607.851 1009.01 610.249 1008.53 611.144C1008.06 612.04 1007.53 613.652 1007.36 614.73C1007.19 615.807 1006.77 617.666 1006.43 618.864C1004.94 624.19 1005.18 630.002 1006.84 628.681C1008.03 627.739 1007.22 632.053 1005.89 633.764C1004.55 635.489 1004.13 635.529 1003.57 633.982C1003.2 632.917 1003.04 633.256 1002.11 637.061C1001.46 639.718 1000.93 641.124 1000.7 640.773C1000.15 639.922 1000.13 639.987 997.795 649.008C995.239 658.893 995.294 660.088 997.934 652.036C999.115 648.443 1000.27 645.781 1000.99 644.967L1002.16 643.661L1001.96 644.912L1001.76 646.16L1002.87 644.912L1003.99 643.661L1003.73 645.778C1003.54 647.373 1003.12 648.234 1002.05 649.259C1000.54 650.718 1000.53 650.695 1001.55 647.795C1001.75 647.22 1001.69 647.22 1001.04 647.8C1000.41 648.367 999.181 651.258 995.913 659.867C995.527 660.884 995.031 661.715 994.813 661.715C994.467 661.715 992.519 666.977 992.58 667.745C992.593 667.898 993.307 666.71 994.17 665.103C995.031 663.498 996.131 661.982 996.611 661.735C997.091 661.489 997.74 660.553 998.052 659.654C998.362 658.754 998.7 658.255 998.8 658.541C999.383 660.198 991.281 683.695 990.412 682.866C990.291 682.748 991.155 679.888 992.33 676.507C994.989 668.878 994.85 668.144 992.131 675.445C989.963 681.266 989.052 682.655 990.95 677.248C992.202 673.685 992.396 672.369 991.601 672.838C991.265 673.037 991.189 672.828 991.372 672.213C993.018 666.698 990.656 671.977 988.409 678.833C986.22 685.518 986.202 685.553 985.622 684.561C985.304 684.019 985.354 683.695 985.795 683.436C986.244 683.17 986.276 682.939 985.911 682.59C985.546 682.241 985.079 683.386 984.186 686.814C981.515 697.106 962.738 738.667 958.284 744.159C956.838 745.942 957.738 743.993 965.754 728.006C974.357 710.851 977.88 703.218 979.15 698.989C980.417 694.768 979.725 695.837 977.132 702.101C975.777 705.373 973.538 710.203 972.161 712.835C969.633 717.656 969.09 717.953 969.452 714.311C969.667 712.169 969.615 712.184 968.289 714.69C967.686 715.828 966.355 717.825 965.334 719.128C964.31 720.429 963.408 721.685 963.326 721.918C963.245 722.152 962.956 722.212 962.683 722.051C961.628 721.426 962.471 717.069 964.318 713.585C965.3 711.737 966.633 709.13 967.281 707.792C969.399 703.414 971.129 702.804 969.591 706.975C969.216 708 969.008 708.937 969.134 709.057C969.478 709.386 971.78 704.258 973.494 699.348C974.832 695.514 975.045 695.152 975.292 696.305C975.607 697.774 977.187 693.575 977.83 689.559L978.142 687.603L977.134 688.69L976.124 689.778L976.355 688.16C976.565 686.671 977.045 685.616 979.769 680.641C982.292 676.038 984.013 671.841 985.743 666.068C988.829 655.771 990.787 650.286 991.879 648.89C993.632 646.644 994.291 645.035 995.06 641.107C996.029 636.162 995.719 635.459 994.328 639.452C993.047 643.129 992.522 643.485 991.992 641.052C991.669 639.577 991.89 638.545 993.422 634.309C994.42 631.556 995.569 627.445 995.973 625.172C996.38 622.897 997.299 618.786 998.015 616.036C998.732 613.283 999.451 609.662 999.614 607.987C1000.3 600.922 1001.12 597.931 1002.67 596.861C1002.87 596.723 1003.23 594.975 1003.47 592.976C1003.71 590.977 1004.11 589.141 1004.37 588.898C1005.15 588.149 1004.93 591.04 1003.23 603.75C1002.35 610.352 1001.7 615.953 1001.78 616.196C1002.26 617.575 1003.54 612.12 1004.14 606.148C1005.29 594.691 1006.1 589.563 1006.24 593.014C1006.31 594.885 1007.49 590.038 1009.21 580.796C1011.49 568.5 1011.46 568.854 1010.34 567.483C1009.74 566.755 1009.37 565.652 1009.35 564.53C1009.33 563.545 1009.18 562.398 1009 561.978C1008.54 560.863 1006.46 578.566 1006.49 583.405C1006.5 585.678 1006.42 587.067 1006.31 586.489C1006.16 585.678 1006.02 585.58 1005.71 586.055C1005.45 586.449 1005.3 585.537 1005.3 583.513C1005.29 581.705 1005.09 580.359 1004.83 580.359C1004.56 580.359 1004.36 578.41 1004.34 575.464C1004.29 570.665 1004.28 570.612 1003.73 572.747L1003.17 574.922L1002.83 572.084C1002.6 570.258 1002.67 568.317 1003.03 566.644C1003.35 565.148 1003.63 559.53 1003.7 553.387C1003.77 547.523 1004.06 539.745 1004.34 536.098C1004.88 529.272 1004.25 515.992 1002.31 493.347C1001.68 485.984 1001.44 479.13 1001.7 476.38C1001.75 475.782 1001.46 473.53 1001.05 471.377C1000.64 469.223 999.787 463.547 999.152 458.76C997.068 443.064 994.018 426.707 992.987 425.718C992.75 425.489 992.559 424.867 992.559 424.329C992.559 423.794 992.37 423.242 992.139 423.106C991.601 422.79 990.504 418.166 989.604 412.44C988.908 407.998 987.147 402.156 985.99 400.446C985.659 399.959 984.215 395.945 982.78 391.528C978.819 379.34 973.581 365.181 973.174 365.57C973.079 365.661 974.869 371.103 977.155 377.66C979.439 384.22 981.866 391.543 982.549 393.936C983.231 396.33 984.927 401.923 986.318 406.368C992.044 424.656 999.349 462.52 999.391 474.112C999.396 475.958 999.8 479.133 1000.29 481.167C1001.29 485.348 1001.4 486.559 1000.74 486.169C1000.13 485.808 1000.16 486.187 1001.2 492.478C1002.35 499.477 1002.42 502.589 1001.39 501.371C1000.73 500.582 1000.7 500.655 1000.96 502.483C1002.07 510.131 1002.28 540.807 1001.21 536.854C1001.03 536.211 1000.78 537.806 1000.58 540.737C1000.37 544.004 1000.42 545.8 1000.73 545.983C1001.05 546.172 1001.06 548.258 1000.75 552.543C1000.51 555.996 1000.43 559.836 1000.58 561.074C1000.94 563.975 1000.52 565.567 999.417 565.567C998.307 565.567 998.015 566.388 998.015 569.52C998.015 572.252 998.753 573.023 999.22 570.781C999.682 568.578 1000.28 568.862 1000.35 571.305C1000.4 573.553 1000.42 573.526 1000.83 570.376C1001.4 566.014 1002.19 564.813 1001.85 568.832C1001.47 573.201 999.776 585.324 999.498 585.58C999.37 585.701 999.398 584.623 999.561 583.187C999.994 579.369 999.112 581.13 998.509 585.289C997.905 589.448 997.86 593.011 998.427 592.157C1001.08 588.144 996.968 614.662 993.855 621.618C992.963 623.615 992.735 625.386 993.428 624.979C993.858 624.723 993.74 625.253 991.044 635.612C990.142 639.083 989.215 643.292 988.982 644.967C988.522 648.294 985.008 656.622 984.176 656.361C982.919 655.967 983.559 650.329 985.268 646.737C986.113 644.967 987.066 641.702 987.092 640.507C987.134 638.422 985.612 640.466 984.378 644.153C982.412 650.03 981.402 659.769 982.814 659.252C983.457 659.016 983.454 659.161 982.79 660.678C981.515 663.604 981.192 663.421 981.192 659.774C981.192 657.891 981.087 656.451 980.958 656.574C980.83 656.698 978.087 664.121 974.867 673.069C966.725 695.684 963.602 703.249 957.98 713.97C954.865 719.909 954.726 719.158 957.492 711.35C958.765 707.754 959.935 703.974 960.093 702.952C960.25 701.928 961.371 699.291 962.581 697.091C963.791 694.893 965.121 691.955 965.536 690.566C966.276 688.08 966.869 687.023 967.297 687.432C967.418 687.547 966.901 689.469 966.15 691.701C964.518 696.558 964.738 697.319 966.615 693.316C968.434 689.436 969.229 686.832 968.654 686.648C968.386 686.563 968.707 684.938 969.436 682.703C970.116 680.611 971.938 674.79 973.483 669.764C975.029 664.739 977.817 656.148 979.677 650.673C981.538 645.198 982.987 640.205 982.903 639.58C982.79 638.761 982.394 639.545 981.504 642.355C976.097 659.412 968.229 680.867 962.09 695.28C956.256 708.985 948.007 725.906 947.655 724.899C947.563 724.63 947.739 723.963 948.046 723.41C948.55 722.506 948.531 722.466 947.865 722.991C946.894 723.757 945.154 728.237 945.432 729.254C945.773 730.5 924.162 764.612 921.685 766.741C920.181 768.035 920.517 767.234 923.286 762.934C924.695 760.744 926.574 757.781 927.459 756.352C929.805 752.562 935.188 741.668 938.432 734.154C939.981 730.565 942.201 725.964 943.366 723.93C947.222 717.202 950.644 709.186 947.4 714.482C944.715 718.864 944.983 717.121 947.86 711.496C949.563 708.166 952.285 702.663 953.907 699.273C955.531 695.88 956.925 693.168 957.004 693.243C957.161 693.394 952.849 703.869 952.017 705.356C951.736 705.858 951.466 707.352 951.419 708.676C951.34 710.81 950.734 712.192 946.028 720.984C943.112 726.434 940.823 730.891 940.941 730.891C941.059 730.891 941.5 730.256 941.917 729.483C942.337 728.707 943.269 727.546 943.991 726.901C945.248 725.778 948.169 720.291 949.337 716.855C949.98 714.964 950.912 715.132 950.613 717.086C950.429 718.284 950.468 718.334 951.025 717.606C951.361 717.164 951.639 716.474 951.639 716.069C951.639 715.306 954.285 708.781 955.531 706.476C955.928 705.742 956.182 705.074 956.098 704.994C956.014 704.914 955.245 706.104 954.39 707.636C953.531 709.17 952.76 710.356 952.67 710.27C952.161 709.783 961.565 689.388 962.444 689.077C964.059 688.507 964.898 686.751 965.077 683.589C965.24 680.649 965.875 678.481 970.995 663.338C973.798 655.048 973.659 655.625 972.835 655.625C972.008 655.625 971.001 658.004 967.334 668.597C962.988 681.146 962.967 680.227 967.274 666.135C968.951 660.653 969.365 658.262 968.418 659.54C968.066 660.018 968.011 659.571 968.219 657.87C968.859 652.632 966.717 658.056 961.639 674.551C959.898 680.202 959.017 682.16 956.166 686.731C955.387 687.982 955.3 688.303 955.859 687.876C957.017 686.99 956.794 687.796 955.3 689.903C954.573 690.93 953.555 693.022 953.04 694.552C952.523 696.079 950.852 699.939 949.321 703.126C945.686 710.707 944.841 712.752 944.078 715.813C943.729 717.212 941.401 722.473 938.902 727.506C933.991 737.398 934.002 737.373 935.107 736.494C936.159 735.661 935.655 737.102 933.377 741.459C927.285 753.102 914.262 771.292 896.476 793.008C893.392 796.77 889.169 802.099 887.093 804.852C870.721 826.53 818.62 871.989 797.077 883.39C794.973 884.505 789.553 887.715 785.033 890.52C775.648 896.352 775.136 896.648 776.136 895.666C777.488 894.34 801.035 879.116 805.833 876.469C807.038 875.803 808.983 874.359 810.153 873.259C811.324 872.157 812.83 870.851 813.499 870.356C822.381 863.801 844.7 844.923 845.711 843.115C847.325 840.232 845.06 841.754 833.352 851.43C804.132 875.57 780.243 893.205 776.829 893.155C775.388 893.132 777.564 891.502 783.542 888.122C786.345 886.535 789.398 884.525 790.327 883.656L792.015 882.074L790.555 881.856C789.109 881.642 789.141 881.607 793.414 878.777C795.789 877.205 797.804 875.555 797.894 875.11C798.014 874.52 797.508 874.769 796.009 876.029C794.883 876.976 792.868 878.317 791.529 879.008C790.188 879.699 784.183 883.129 778.18 886.63C765.519 894.016 762.055 895.937 761.811 895.704C761.714 895.611 764.094 894.074 767.102 892.286C772.871 888.855 775.616 886.889 775.204 886.482C775.068 886.349 773.737 886.934 772.249 887.788C766.026 891.349 766.128 891.311 768.406 889.292L770.451 887.476L768.861 888.21C767.987 888.614 766.042 889.739 764.54 890.711C763.042 891.685 760.436 893.016 758.753 893.672C757.071 894.327 753.491 896.025 750.798 897.447C740.691 902.776 716.705 913.889 716.251 913.452C716.151 913.359 717.668 912.46 719.618 911.458C724.71 908.841 725.975 907.128 721.051 909.519C718.71 910.654 709.752 913.73 709.752 913.396C709.752 913.306 712.206 912.02 715.206 910.536C723.35 906.508 723.471 905.792 715.458 909.054C712.568 910.229 714.211 908.75 718.211 906.573C723.182 903.866 722.043 904.117 714.71 907.346C697.419 914.956 659.276 928.111 658.011 926.9C657.762 926.661 658.381 926.423 664.287 924.499C670.979 922.317 689.575 915.23 689.05 915.061C688.792 914.978 681.633 917.048 673.137 919.657C633.897 931.719 614.79 936.247 593.132 938.618C591.88 938.754 586.662 939.156 581.536 939.51C572.022 940.168 570.169 940.419 570.169 941.049C570.169 942.418 578.933 941.898 592.903 939.701C599.551 938.653 602.076 938.432 604.953 938.638C610.911 939.07 627.199 936.456 629.351 934.723C630.02 934.183 632.275 933.307 634.356 932.774C636.44 932.242 641.211 930.933 644.962 929.863C652.857 927.613 656.686 926.98 655.736 928.083C655.41 928.462 653.71 929.19 651.956 929.7C648.72 930.639 643.726 933.234 644.608 933.515C644.873 933.6 647.07 933.189 649.489 932.601C653.253 931.687 653.928 931.624 654.145 932.174C654.631 933.382 653.403 934.972 651.292 935.863C647.264 937.568 642.151 937.342 644.576 935.564C645.697 934.746 644.618 934.931 634.052 937.38C627.488 938.902 625.049 939.279 621.734 939.281C619.034 939.284 614.548 939.809 608.777 940.796C585.171 944.836 566.327 946.414 536.071 946.883C523.985 947.071 520.643 947.011 521.52 946.622C522.21 946.316 526.139 946.049 531.522 945.946C540.9 945.766 542.635 945.602 542.207 944.939C541.834 944.362 543.065 944.183 551.301 943.633C560.721 943.006 562.096 942.8 561.802 942.066C561.676 941.747 561.765 941.373 562.007 941.23C564.114 939.984 557.592 939.796 547.664 940.821C537.278 941.891 533.522 941.803 530.349 940.411C524.961 938.051 523.467 938.018 500.151 939.741C493.663 940.218 489.928 939.932 472.417 937.609C468.084 937.036 451.761 934.213 448.242 933.43C446.573 933.06 442.685 932.563 439.602 932.325C432.164 931.755 429.678 931.3 429.678 930.519C429.678 930.273 430.229 930.18 430.927 930.308C437.917 931.586 436.961 930.76 429.277 928.879C426.18 928.121 422.93 927.216 422.059 926.867C421.188 926.518 419.282 926.232 417.825 926.232C415.986 926.232 414.705 925.963 413.618 925.351C412.76 924.866 405.842 922.51 398.246 920.112C390.651 917.716 382.596 914.903 380.346 913.863C378.095 912.824 375.231 911.839 373.979 911.679C369.352 911.081 367.103 910.162 368.864 909.589C369.625 909.34 367.47 908.318 356.702 903.825C341.096 897.313 323.85 888.624 320.784 885.728C318.54 883.609 328.267 887.989 331.471 890.54C332.6 891.439 334.033 892.323 334.655 892.509C335.277 892.695 336.978 893.418 338.435 894.116C344.091 896.831 351.473 898.875 351.473 897.728C351.473 897.228 351.778 897.138 352.725 897.354C354.174 897.685 359.67 899.689 360.339 900.131C361.701 901.025 362.581 900.972 361.476 900.063C356.867 896.254 340.106 890.55 340.106 892.788C340.106 894.518 314.354 880.078 305.638 873.458C297.362 867.177 287.94 856.523 288.565 854.15C288.756 853.414 288.436 852.804 287.297 851.739C285.738 850.28 281.08 842.384 276.649 833.692C272.807 826.148 266.597 809.209 262.889 796.15C261.902 792.679 260.141 786.709 258.973 782.88C254.789 769.17 253.934 758.444 256.269 748.946C258.109 741.454 258.778 706.91 257.319 694.564C255.949 682.957 256.356 678.604 259.857 667.371C261.734 661.356 262.621 657.423 263.539 651.057C266.23 632.428 279.72 610.757 302.78 588.024C308.643 582.245 314.013 576.142 326.75 560.783C335.778 549.896 345.046 538.833 347.345 536.201C353.426 529.235 355.641 524.893 358.562 514.232C359.25 511.718 360.161 509.272 360.589 508.792C363.3 505.751 366.116 499.728 370.42 487.764C374.349 476.842 374.15 477.154 380.585 472.02C383.331 469.83 385.879 467.628 386.244 467.128C387.533 465.368 395.677 464.102 406.49 463.984C416.505 463.873 416.925 463.798 422.3 461.204C423.841 460.458 425.411 459.848 425.786 459.848C426.161 459.848 427.652 459.34 429.095 458.717C434.977 456.186 436.544 455.807 441.499 455.724C444.124 455.679 448.242 455.382 450.646 455.066C455.677 454.4 456.457 454.584 461.693 457.65C476.241 466.171 482.521 466.641 491.794 459.903C498.222 455.234 497.925 455.292 506.972 456.985C519.31 459.295 521.034 459.534 522.992 459.202C524.058 459.021 525.964 458.848 527.223 458.818C528.494 458.785 530.026 458.441 530.659 458.044C531.499 457.52 532.021 457.444 532.622 457.766C533.186 458.067 533.8 458.047 534.601 457.698C535.239 457.419 539.257 456.784 543.532 456.284L551.301 455.375L556.304 457.221C574.001 463.75 574.447 463.893 577.216 463.939C578.718 463.961 580.056 464.122 580.19 464.295C580.326 464.466 581.043 464.418 581.783 464.187C583.116 463.77 583.119 463.768 581.878 463.924C581.19 464.009 580.628 463.893 580.628 463.67C580.628 463.444 580.043 463.384 579.326 463.532C576.97 464.029 572.731 462.618 557.894 456.392C551.679 453.785 542.85 453.439 534.824 455.485C533.953 455.706 533.244 455.696 533.092 455.463C532.95 455.242 532.386 455.061 531.837 455.056C531.186 455.053 531.945 454.473 534.024 453.388C535.774 452.474 542.015 448.679 547.892 444.958C561.248 436.499 563.296 435.432 569.487 433.722C572.237 432.963 576.025 431.544 577.899 430.57C579.775 429.593 582.025 428.435 582.901 427.993C585.946 426.454 582.329 427.714 578.662 429.472C576.487 430.515 573.227 431.582 570.248 432.225C562.156 433.97 561.886 434.091 545.75 442.954C531.748 450.646 529.635 451.588 525.355 452.047C523.486 452.248 520.725 452.642 519.224 452.926C515.696 453.589 512.814 453.268 507.198 451.585C499.35 449.229 495.466 449.747 488.771 454.036C484.151 456.997 483.697 457.183 485.889 455.222C488.495 452.886 490.314 450.53 494.647 443.875C496.705 440.711 499.584 436.861 501.046 435.319C502.508 433.774 503.838 432.104 504.004 431.607C504.704 429.49 511.111 426.323 517.176 425.093C522.205 424.073 524.67 423.028 532.659 418.54C538.184 415.439 542.553 413.598 548.196 411.996C550.283 411.403 550.705 411.192 549.482 411.353C546.023 411.81 539.002 414.261 533.57 416.908C530.567 418.372 526.782 420.22 525.158 421.014C523.365 421.891 520.68 422.727 518.336 423.134C511.484 424.327 502.878 427.8 502.878 429.374C502.878 429.56 501.345 431.353 499.471 433.36C497.597 435.367 494.182 439.651 491.883 442.881C486.424 450.556 484.886 452.195 480.784 454.709L477.367 456.804L476.301 454.518C473.377 448.248 464.645 445.741 446.727 446.027C442.725 446.09 439.195 445.985 438.877 445.789C437.57 444.978 445.134 439.993 451.202 437.667C457.89 435.1 462.648 431.607 465.147 427.426C469.359 420.384 481.64 413.666 506.972 404.549C515.838 401.36 515.3 401.234 506.035 404.333C488.526 410.193 477.726 414.826 471.674 419.075C467.454 422.039 463.328 425.891 463.317 426.873C463.302 428.418 455.068 433.998 450.874 435.309C446.061 436.813 442.586 438.639 438.52 441.798C435.809 443.908 433.933 445.056 433.2 445.056C432.576 445.056 429.977 445.924 427.421 446.987C424.865 448.047 421.453 449.114 419.836 449.353C417.836 449.651 416.214 450.229 414.763 451.161C412.681 452.497 412.545 452.522 409.445 452.165C396.241 450.646 381.74 453.16 376.026 457.959C374.9 458.903 372.688 460.619 371.108 461.769L368.237 463.858L368.499 462.397C368.641 461.593 369.67 455.747 370.782 449.408C374.719 426.971 378.509 411.802 382.147 403.942L383.155 401.767L397.209 397.671C425.458 389.438 441.166 384.212 443.67 382.213C445.384 380.844 447.36 379.928 449.373 379.566C450.31 379.398 451.735 378.835 452.541 378.318C453.344 377.801 454.921 377.115 456.047 376.796C459.031 375.95 464.879 373.052 477.191 366.314C496.754 355.608 501.581 353.42 504.754 353.822C508.143 354.251 549.225 369.297 567.335 376.741C573.72 379.365 574.5 380.053 576.34 384.669C577.723 388.14 579.211 389.742 589.421 398.733L594.35 403.073L594.767 406.554C595.41 411.88 596.035 414.01 598.342 418.734C599.512 421.127 601.774 425.771 603.37 429.051C604.969 432.333 606.346 434.947 606.438 434.862C606.696 434.613 601.546 419.869 600.276 417.212C599.365 415.313 599.118 414.083 599.084 411.247C599.024 406.149 599.36 405.921 604.045 407.88C614.018 412.048 616.385 412.026 633.046 407.581C641.064 405.443 641.196 405.157 633.742 406.066C618.246 407.957 615.708 407.869 609.504 405.235C601.987 402.046 588.24 391.262 584.101 385.312L582.943 383.65L588.539 377.479C599.578 365.309 606.958 360.846 615.763 361.017C622.202 361.14 625.674 358.659 627.487 352.627C630.209 343.583 630.175 343.666 632.207 341.777C635.369 338.834 639.978 336.762 647.237 335.019C650.143 334.319 651.069 334.301 657.922 334.816C668.381 335.599 668.654 335.521 660.649 334.047C655.158 333.035 652.429 332.756 648.29 332.784C642.127 332.827 642.545 333.121 641.532 328.025L640.797 324.326L640.466 328.173C639.981 333.824 640.086 333.691 633.805 336.752C627.703 339.731 627.225 340.208 625.577 344.992C622.141 354.967 618.884 356.73 603.882 356.74C597.893 356.745 592.94 359.161 587.675 364.644C582.465 370.071 579.235 370.118 562.668 365.01C558.918 363.855 554.519 362.572 552.892 362.157C545.244 360.218 527.774 349.972 528.966 348.124C529.113 347.895 530.123 347.496 531.21 347.235C534.934 346.336 538.294 342.418 546.937 328.894C549.493 324.893 549.22 325.112 544.708 330.675C535.462 342.076 531.488 343.867 522.431 340.715C514.82 338.071 502.914 337.925 494.356 340.373C492.416 340.928 483.668 343.382 474.915 345.828C461.092 349.693 444.071 354.608 441.958 355.346C441.581 355.477 447.512 351.311 455.139 346.084C470.855 335.316 479.012 329.479 480.448 327.97C482.553 325.757 500.642 273.827 501.264 268.204C501.424 266.767 501.652 264.982 501.773 264.233L501.991 262.872L514.596 262.669L527.205 262.463L528.496 263.593C529.205 264.216 530.882 266.205 532.218 268.015C536.493 273.799 538.995 275.562 546.073 277.775C553.293 280.035 556.637 282.383 557.907 286.092C559.65 291.178 563.978 292.004 587.901 291.828C596.573 291.763 596.357 291.723 583.583 291.025C578.83 290.766 573.001 290.372 570.623 290.148C561.411 289.282 561.046 289.106 560.096 285.04C559.435 282.212 558.367 280.884 554.915 278.611C552.026 276.707 551.842 275.615 553.994 273.169C554.986 272.039 555.658 269.859 556.325 265.594C556.438 264.876 556.004 265.77 555.364 267.581C553.739 272.172 550.886 275.173 548.545 274.754C540.624 273.332 537.716 269.125 539.824 262.149L540.472 260.007L547.251 258.613C559.012 256.192 575.558 251.86 588.922 247.698L595.171 245.752L599.368 247.535C601.677 248.515 608.583 251.9 614.716 255.054C620.85 258.211 628.133 261.873 630.899 263.194C633.668 264.515 637.862 266.998 640.222 268.716C647.282 273.857 649.936 274.904 657.854 275.678C671.636 277.026 682.386 276.351 686.892 273.854C687.588 273.468 687.774 273.267 687.304 273.405C679.824 275.62 672.245 275.379 659.542 272.523C651.471 270.71 649.211 269.645 644.962 265.65C640.337 261.3 638.135 259.974 614.501 247.312C609.249 244.496 603.874 241.538 602.557 240.734C598.294 238.135 590.515 239.175 564.736 245.792C555.031 248.284 555.088 248.284 559.136 245.699C569.217 239.26 577.235 237.228 590.347 237.788C615.842 238.876 618.687 238.341 636.01 229.192C647.941 222.888 654.62 215.887 682.21 180.757C690.446 170.27 689.777 170.852 675.425 186.644C655.691 208.363 644.742 219.704 641.49 221.796C624.845 232.499 594.722 237.743 594.722 229.938C594.722 229.187 594.518 228.373 594.266 228.135C593.2 227.113 596.738 223.903 601.998 221.115C606.982 218.473 609.094 216.768 612.53 212.604C614.346 210.402 618.299 206.25 621.309 203.38C627.086 197.875 626.587 198.578 634.43 184.891C636.191 181.82 636.025 181.98 631.535 187.719C625.516 195.409 621.666 199.53 618.338 201.845C616.21 203.327 614.084 205.427 611.617 208.483C607.215 213.935 607.417 213.767 601.541 216.874C592.817 221.485 590.355 223.34 588.785 226.492C587.116 229.837 587.019 229.89 580.242 231.211C566.477 233.893 563.994 234.777 547.099 243.027L532.955 249.931L525.987 250.077C510.421 250.401 503.332 248.193 498.3 241.448C497.497 240.37 495.45 238.12 493.749 236.445C477.086 220.023 468.769 200.906 466.517 173.841C465.645 163.353 466.191 142.672 467.456 138.338C467.7 137.501 468.406 134.48 469.026 131.627C470.742 123.706 470.855 123.578 480.235 118.869C488.188 114.879 490.248 114.173 497.649 112.902C504.912 111.654 507.465 110.687 528.113 101.362C530.864 100.119 536.9 97.4321 541.525 95.3929C546.152 93.3511 552.141 90.6263 554.834 89.3329C563.81 85.0309 565.689 84.9731 571.82 88.813C578.13 92.7635 580.384 93.2607 597.937 94.5792C608.583 95.3778 609.097 95.5687 613.388 100.298C616.627 103.869 619.231 106.182 622.401 108.301C625.123 110.122 627.409 116.604 629.235 127.679L630.094 132.9L630.141 128.287C630.283 113.857 629.073 108.758 624.564 104.78C620.018 100.772 617.286 95.7796 618.934 94.4963C619.246 94.2527 621.855 93.439 624.729 92.6881C638.616 89.0592 644.369 84.3855 651.568 70.8843C652.791 68.5889 652.82 68.5713 647.009 73.5338C633.907 84.722 628.243 86.6959 609.27 86.6784C588.279 86.6608 577.951 83.8355 576.812 77.8006C575.458 70.6381 564.133 68.6491 552.409 73.5137C548.8 75.013 543.288 77.1703 540.162 78.3129C537.037 79.4531 532.126 81.3542 529.249 82.5396C518.405 87.0023 508.846 88.7528 495.377 88.7352C488.272 88.7276 487.435 88.1174 490.085 84.8877C493.534 80.6887 494.419 73.2123 494.804 45.027C494.933 35.4963 494.744 35.8555 493.314 47.8473C490.093 74.8648 487.498 80.6887 477.417 83.5065C475.543 84.0314 471.666 85.5708 468.805 86.927C464.617 88.9135 463.152 89.3982 461.302 89.4183C457.703 89.456 457.425 89.6795 453.092 96.0182C447.124 104.743 438.877 112.757 436.24 112.395C423.652 110.67 418.749 103.557 423.98 94.6068C424.867 93.0899 426.326 89.8302 427.221 87.359C430.696 77.7755 433.093 74.905 439.599 72.5418C441.772 71.7507 443.678 70.7687 444.008 70.2665C445.113 68.5914 446.499 62.0969 446.515 58.5308C446.559 46.9457 448.756 43.2791 457.223 40.6422C461.845 39.2031 463.273 38.0705 466.85 32.9849C471.136 26.8973 471.183 26.5206 467.307 29.3108C463.257 32.229 458.496 34.6625 456.171 35.0016C450.271 35.868 449.803 36.0564 447.769 38.4095C444.09 42.6739 442.489 42.9727 440.906 39.6878C438.455 34.6073 440.987 23.0876 448.714 4.15173C450.528 -0.293425 450.31 -0.396392 447.995 3.80264ZM849.246 204.528C850.572 205.748 851.797 206.605 851.973 206.434C852.348 206.067 848.128 202.287 847.362 202.303C847.073 202.308 847.921 203.31 849.246 204.528ZM911.63 273.611C914.047 276.989 916.769 280.075 915.493 277.993C914.708 276.712 909.276 269.726 909.066 269.726C908.945 269.726 910.1 271.474 911.63 273.611ZM952.332 344.535C952.712 345.6 953.361 346.825 953.768 347.257C954.177 347.689 954.387 348.164 954.232 348.309C954.08 348.455 954.232 348.844 954.573 349.168C954.914 349.495 955.287 350.01 955.4 350.314C955.513 350.617 955.783 350.705 956.004 350.509C956.408 350.145 954.101 345.63 952.508 343.673L951.636 342.599L952.332 344.535ZM973.956 363.837C973.901 364.35 977.596 372.974 978.09 373.489C978.607 374.026 976.512 368.614 975.061 365.658C974.473 364.46 973.974 363.641 973.956 363.837ZM969.825 393.103C969.825 393.738 975.349 413.49 975.596 413.731C976.053 414.181 975.082 410.198 972.683 401.769C970.413 393.788 969.825 392.01 969.825 393.103ZM986.895 424.826C987.118 427.277 990.475 448.451 990.987 450.621C991.115 451.168 991.42 451.5 991.661 451.357C992.149 451.068 992.645 452.052 993.643 455.279L994.312 457.454L994.068 455.063C993.464 449.187 989.228 429.48 987.546 424.721L986.659 422.215L986.895 424.826ZM1001.39 434.066C1001.68 436.075 1002.96 438.965 1003.55 438.965C1004.42 438.965 1003.46 435.429 1002.07 433.526L1001.11 432.222L1001.39 434.066ZM1030.3 445.513C1030.33 447.13 1032.1 460.41 1032.32 460.624C1032.87 461.151 1032.52 453.421 1031.83 449.687C1031.17 446.171 1030.28 443.727 1030.3 445.513ZM980.738 447.655C980.738 448.921 982.572 462.12 983.431 467.028L983.811 469.203L983.856 467.244C983.882 466.166 983.696 463.919 983.444 462.249C983.189 460.578 983.131 458.622 983.31 457.899L983.635 456.585L983.95 457.891C984.123 458.607 984.297 460.076 984.333 461.154C984.388 462.758 984.488 462.967 984.885 462.319C985.402 461.467 985.202 460.116 983.276 451.364C982.197 446.462 980.738 444.327 980.738 447.655ZM984.927 447.667C984.921 448.265 985.179 449.732 985.501 450.93C985.835 452.17 986.089 452.637 986.094 452.017C986.1 451.419 985.843 449.95 985.522 448.755C985.189 447.514 984.932 447.047 984.927 447.667ZM1005.95 453.491C1005.77 454.639 1005.75 456.492 1005.89 457.605C1006.63 463.241 1007.59 468.316 1007.99 468.7C1008.91 469.577 1009.02 467.59 1008.31 463.208C1007.91 460.762 1007.45 457.389 1007.29 455.714C1006.9 451.671 1006.38 450.797 1005.95 453.491ZM529.958 455.729C529.473 456.081 528.551 456.352 527.914 456.334C526.958 456.307 527.076 456.199 528.567 455.726C530.945 454.978 530.995 454.978 529.958 455.729ZM1039.94 461.588C1039.92 462.427 1040.18 464.775 1040.5 466.809C1040.82 468.843 1041.1 469.823 1041.11 468.984C1041.13 468.148 1040.87 465.797 1040.55 463.763C1040.23 461.729 1039.95 460.752 1039.94 461.588ZM993.742 468.984C994.144 473.374 995.16 479.768 995.265 478.555C995.354 477.533 995.404 477.558 996.11 478.992L996.858 480.514L997.013 478.846C997.212 476.664 996.357 472.922 995.435 471.948C995.036 471.526 994.433 470.049 994.097 468.668L993.485 466.156L993.742 468.984ZM985.551 469.311C985.171 470.888 985.583 473.336 986.228 473.336C986.714 473.336 986.711 470.576 986.226 468.984C985.898 467.914 985.887 467.919 985.551 469.311ZM1008.75 472.899C1008.6 473.258 1008.76 475.021 1009.11 476.815L1009.74 480.079L1009.76 477.033C1009.77 473.816 1009.26 471.689 1008.75 472.899ZM998.102 476.38C998.091 476.978 998.246 478.349 998.446 479.426L998.811 481.383L998.813 479.642C998.813 478.686 998.661 477.317 998.469 476.599C998.154 475.416 998.12 475.396 998.102 476.38ZM1041.77 477.686C1041.77 478.522 1041.86 478.866 1041.98 478.447C1042.09 478.028 1042.09 477.342 1041.98 476.925C1041.86 476.506 1041.77 476.847 1041.77 477.686ZM986.9 482.47C987.197 486.064 987.976 490.045 988.318 489.718C988.638 489.414 987.556 481.209 987.055 480.127C986.772 479.512 986.719 480.288 986.9 482.47ZM995.288 486.463C995.283 488.053 996.299 494.035 996.677 494.65C996.934 495.07 997.081 494.098 997.091 491.943C997.102 489.334 996.902 488.264 996.196 487.159C995.635 486.275 995.288 486.011 995.288 486.463ZM986.063 493.131C985.68 495.251 985.732 500.914 986.155 502.702C986.428 503.862 986.496 503.742 986.777 501.614C987.155 498.754 987.113 494.502 986.688 492.694L986.381 491.391L986.063 493.131ZM1010.78 494.133C1010.74 497.38 1011.59 502.956 1012.23 503.571C1012.93 504.256 1012.29 495.143 1011.5 493.131L1010.81 491.391L1010.78 494.133ZM1006.97 497.262C1006.53 503.32 1006.33 558.934 1006.76 557.405C1007.8 553.723 1008.42 509.746 1007.61 497.262L1007.31 492.694L1006.97 497.262ZM1003.58 499.656C1003.58 501.81 1003.73 504.159 1003.93 504.877C1004.16 505.761 1004.27 504.917 1004.27 502.267C1004.27 500.113 1004.11 497.764 1003.93 497.046C1003.69 496.162 1003.58 497.006 1003.58 499.656ZM1014.98 509.663C1014.96 516.602 1015.09 524.923 1015.27 528.152L1015.59 534.026L1015.61 525.759C1015.62 521.213 1015.48 512.893 1015.31 507.27L1015 497.046L1014.98 509.663ZM997.674 502.546C997.362 503.385 997.112 504.935 997.123 505.994L997.141 507.923L997.826 506.411C998.202 505.58 998.451 504.028 998.375 502.963L998.241 501.027L997.674 502.546ZM1012 513.433C1011.69 517.494 1012.38 533.687 1012.92 535.074C1013.64 536.945 1014 534.858 1013.46 531.975C1013.19 530.553 1012.99 527.298 1013.02 524.747C1013.13 515.279 1013.02 511.389 1012.63 510.824C1012.38 510.452 1012.15 511.396 1012 513.433ZM986.835 519.45C986.835 523.639 986.903 525.352 986.987 523.258C987.068 521.166 987.068 517.738 986.987 515.646C986.903 513.551 986.835 515.264 986.835 519.45ZM988.352 512.742C987.824 513.25 987.934 524.672 988.467 524.672C988.716 524.672 988.921 525.161 988.921 525.759C988.921 526.359 989.121 526.846 989.367 526.846C989.627 526.846 989.706 526.083 989.556 524.998C989.417 523.981 989.165 520.734 988.997 517.78C988.829 514.829 988.541 512.562 988.352 512.742ZM991.535 515.354C991.346 515.533 991.226 522.158 991.265 530.073L991.333 544.466L991.716 535.114C992.147 524.674 992.055 514.854 991.535 515.354ZM997.874 527.959C997.427 548.51 996.273 565.296 994.756 573.277C993.905 577.752 993.889 578.214 994.556 578.855C996.782 580.984 999.055 558.291 999.112 533.373C999.162 512.087 998.299 508.32 997.874 527.959ZM1020.75 526.753C1020.76 534.551 1021.76 536.711 1022.37 530.257C1022.77 526.035 1022.27 521.344 1021.4 521.022C1020.85 520.822 1020.75 521.756 1020.75 526.753ZM1017.82 526.522C1017.38 531.548 1017.14 553.894 1017.56 551.302C1017.99 548.565 1018.7 523.368 1018.34 523.368C1018.21 523.368 1017.97 524.787 1017.82 526.522ZM974.533 529.674C974.531 531.829 974.609 532.766 974.704 531.756C974.798 530.744 974.801 528.984 974.706 527.838C974.612 526.696 974.533 527.522 974.533 529.674ZM1010.4 531.442C1009.6 535.169 1009.64 541.204 1010.47 541.204C1011.36 541.204 1011.65 538.341 1011.28 533.155L1010.97 528.805L1010.4 531.442ZM1041.05 531.721C1040.74 533.391 1040.24 548.7 1040.52 547.731C1040.79 546.814 1041.7 530.649 1041.49 530.45C1041.39 530.36 1041.2 530.932 1041.05 531.721ZM1026.47 545.23C1026.31 545.767 1026.09 549.341 1025.98 553.168C1025.74 561.614 1026.41 559.615 1026.89 550.448C1027.21 544.499 1027.1 543.12 1026.47 545.23ZM987.443 547.902C986.388 548.911 986.268 552.925 987.318 552.091C988.042 551.516 988.646 549.168 988.394 547.914C988.247 547.176 988.202 547.176 987.443 547.902ZM1041.55 550.124C1041.02 552.905 1041.17 559.334 1041.73 557.083C1041.96 556.127 1042.09 553.779 1042.02 551.862C1041.91 548.876 1041.84 548.63 1041.55 550.124ZM1019.62 551.973C1018.82 554.989 1018.55 557.965 1018.8 560.851C1019.19 565.281 1019.73 563.467 1020.12 556.438C1020.42 550.928 1020.27 549.532 1019.62 551.973ZM981.032 558.472C980.551 561.255 980.669 563.919 981.257 563.57C981.638 563.344 981.709 564.012 981.515 566.047C981.297 568.332 981.331 568.558 981.698 567.307C982.339 565.142 982.423 557.872 981.816 557.289C981.457 556.945 981.239 557.274 981.032 558.472ZM1009.03 559.042C1009.03 559.879 1009.13 560.223 1009.24 559.803C1009.35 559.384 1009.35 558.698 1009.24 558.281C1009.13 557.862 1009.03 558.204 1009.03 559.042ZM1022.09 562.197C1022.08 562.734 1021.79 565.916 1021.46 569.266C1020.89 574.846 1021.16 579.113 1021.82 574.887C1022.24 572.142 1022.7 561.217 1022.4 561.217C1022.24 561.217 1022.1 561.657 1022.09 562.197ZM1015.58 565.893C1014.93 571.253 1014.77 575.781 1015.24 575.341C1015.97 574.668 1016.66 570.655 1016.66 567.031C1016.66 563.445 1015.97 562.716 1015.58 565.893ZM1040.82 567.091L1040.86 570.572L1041.28 567.832C1041.54 566.077 1041.52 564.829 1041.23 564.351C1040.91 563.819 1040.79 564.59 1040.82 567.091ZM1032.07 568.832C1031.92 570.507 1031.87 571.958 1031.96 572.056C1032.42 572.586 1032.6 571.444 1032.48 568.774L1032.34 565.785L1032.07 568.832ZM988.958 567.139C988.824 570.557 987.304 582.81 986.131 589.932C985.362 594.596 984.533 600.47 984.289 602.984C983.496 611.156 979.646 627.884 979.383 624.301C979.339 623.703 978.003 628.048 976.412 633.957C974.822 639.866 972.659 646.773 971.607 649.302C970.554 651.833 969.833 654.038 970.008 654.204C970.728 654.894 971.801 653.443 973.3 649.751C975.927 643.289 976.352 641.76 975.72 641.032C975.279 640.522 975.552 639.364 977.105 635.162C979.347 629.1 979.717 628.743 978.436 633.877C977.394 638.053 977.439 639.577 978.549 637.571C979.541 635.773 982.336 623.856 983.247 617.543C983.659 614.68 984.383 610.769 984.853 608.856C986.507 602.145 988.538 588.94 988.252 586.768C988.102 585.628 988.307 580.773 988.706 575.979C989.108 571.187 989.336 567.031 989.215 566.742C989.092 566.456 988.976 566.634 988.958 567.139ZM1005.97 570.354C1005.79 572.056 1005.75 573.548 1005.87 573.669C1006 573.787 1006.25 572.491 1006.42 570.788C1006.61 569.085 1006.65 567.594 1006.52 567.473C1006.4 567.355 1006.15 568.651 1005.97 570.354ZM990.585 571.971C990.079 576.609 989.708 583.189 989.966 582.966C990.302 582.669 991.37 569.942 991.084 569.668C990.96 569.55 990.737 570.587 990.585 571.971ZM1022.57 578.159C1022.57 579.101 1022.77 579.995 1023.02 580.143C1023.3 580.306 1023.48 579.638 1023.48 578.428C1023.48 577.338 1023.27 576.444 1023.02 576.444C1022.77 576.444 1022.57 577.215 1022.57 578.159ZM985.357 578.104C983.761 581.203 982.546 585.432 983.648 584.058C984.294 583.252 984.349 583.425 984.399 586.452L984.454 589.714L985.087 587.539C986.722 581.911 986.916 575.078 985.357 578.104ZM1016.66 577.888C1016.66 578.232 1016.35 578.757 1015.97 579.056C1015.6 579.352 1015.29 580.085 1015.29 580.68C1015.29 581.278 1014.99 582.672 1014.62 583.782C1014.26 584.892 1013.65 587.755 1013.27 590.148C1012.9 592.542 1012.45 595.184 1012.29 596.022C1012.12 596.859 1012.15 597.391 1012.36 597.203C1012.57 597.014 1013.2 594.764 1013.74 592.2C1014.72 587.65 1014.74 587.597 1014.83 589.932C1014.92 592.273 1014.94 592.23 1015.78 587.974C1016.98 581.926 1017.47 577.747 1017.03 577.486C1016.83 577.363 1016.66 577.544 1016.66 577.888ZM979.452 581.092C978.292 586.336 977.061 593.544 977.213 594.207C977.449 595.226 979.221 587.878 979.851 583.27C980.425 579.068 980.187 577.77 979.452 581.092ZM1011.94 583.513C1011.52 585.723 1009.38 601.176 1009.38 601.977C1009.38 605.297 1011.84 591.982 1012.35 585.907C1012.67 582.112 1012.45 580.829 1011.94 583.513ZM1021.96 584.166C1020.98 587.182 1020.78 588.225 1021.25 587.948C1021.47 587.815 1021.66 587.506 1021.66 587.265C1021.66 587.022 1021.96 586.529 1022.34 586.17C1022.93 585.605 1023.35 582.099 1022.83 582.099C1022.73 582.099 1022.33 583.031 1021.96 584.166ZM993.533 587.079C993.281 587.951 992.653 591.1 992.136 594.081C991.617 597.062 990.774 601.917 990.262 604.868C989.751 607.821 988.638 612.924 987.787 616.209C986.937 619.496 986.008 623.688 985.722 625.526C985.436 627.365 984.94 629.981 984.62 631.34C983.932 634.261 985.352 634.193 986.215 631.262C987.249 627.754 987.892 624.336 987.701 623.374C987.588 622.806 988.32 618.329 989.325 613.424C990.908 605.714 992.073 599.448 993.973 588.463C994.477 585.547 994.212 584.721 993.533 587.079ZM1020.2 594.498C1018.12 601.605 1017.76 603.419 1018.43 603.419C1019.04 603.419 1018.84 604.938 1017.29 612.284C1016.08 618.05 1015.98 619.155 1016.88 616.905C1017.79 614.649 1017.77 616.721 1016.85 621.001C1016.06 624.632 1016.21 626.423 1017.06 623.648C1017.58 621.965 1018.31 617.02 1019.36 607.987C1019.63 605.593 1020.38 600.633 1021.01 596.964C1022.51 588.28 1022.25 587.491 1020.2 594.498ZM1031.49 592.926C1031.32 593.976 1031.27 594.925 1031.39 595.038C1031.69 595.329 1032.25 592.265 1032.01 591.587C1031.9 591.276 1031.67 591.879 1031.49 592.926ZM1036.54 592.813C1036.06 593.554 1035.66 597.253 1035.97 598.16C1036.45 599.609 1037.02 598.828 1037.36 596.274C1037.64 594.111 1037.12 591.911 1036.54 592.813ZM993.96 598.958C993.199 601.711 991.653 612.625 991.651 615.272C991.648 619.019 992.417 618.288 992.795 614.185C993.22 609.556 994.186 606.045 995.307 605.048C996.278 604.182 996.483 602.768 995.703 602.308C995.433 602.148 995.257 601.208 995.309 600.216C995.496 596.816 994.745 596.118 993.96 598.958ZM977.964 601.133C976.943 603.7 975.594 611.683 976.181 611.683C976.394 611.683 977.108 609.481 977.767 606.789C978.423 604.097 979.076 601.455 979.218 600.917C979.583 599.506 978.541 599.687 977.964 601.133ZM973.751 609.785C972.481 615.913 972.384 618.376 973.62 613.13C974.628 608.848 975.415 604.272 975.181 604.049C975.071 603.943 974.428 606.525 973.751 609.785ZM1032.46 604.724C1032.28 605.322 1032.12 608.258 1032.1 611.249C1032.09 614.24 1031.81 618.01 1031.49 619.625C1030.66 623.701 1031.13 623.301 1033.23 618.14C1034.77 614.373 1035.06 613.115 1035.22 609.599C1035.42 605.387 1034.75 604.207 1034.14 607.675C1033.55 611.033 1033.25 610.94 1033.02 607.334C1032.87 604.78 1032.69 603.971 1032.46 604.724ZM998.551 619.19C996.986 624.333 996.567 626.272 996.732 627.608C996.837 628.439 997.181 627.465 997.75 624.735C998.223 622.462 998.979 619.574 999.425 618.319C999.874 617.063 1000.08 616.036 999.873 616.036C999.674 616.036 999.078 617.455 998.551 619.19ZM1014.66 617.013C1014.5 617.553 1014.27 619.559 1014.15 621.473C1013.87 625.89 1014.69 623.974 1015.14 619.19C1015.42 616.071 1015.21 615.114 1014.66 617.013ZM988.716 624.846C988.06 626.355 985.738 635.896 985.738 637.079C985.738 639.482 987.357 636.89 987.827 633.738C987.974 632.734 988.391 631.282 988.753 630.511C989.462 628.992 990.163 623.432 989.646 623.432C989.472 623.432 989.052 624.067 988.716 624.846ZM982.131 626.762C981.423 629.185 981.021 633.387 981.578 632.563C982.04 631.883 983.092 625.541 982.793 625.253C982.698 625.162 982.402 625.843 982.131 626.762ZM973.762 627.668C973.342 628.319 972.05 633.535 972.258 633.736C972.376 633.846 972.615 633.482 972.793 632.927C972.969 632.37 973.373 631.621 973.688 631.262C974.368 630.486 974.825 627.832 974.326 627.538C974.137 627.425 973.882 627.485 973.762 627.668ZM970.392 630.981C969.83 632.621 969.368 634.286 969.365 634.68C969.363 635.072 968.646 637.83 967.775 640.806C964.765 651.062 967.192 646.511 970.772 635.177C971.289 633.548 971.612 631.428 971.541 630.175L971.415 628L970.392 630.981ZM1014.89 628.726C1014.86 629.125 1014.72 629.808 1014.58 630.248C1014.33 631.004 1014.34 631.004 1014.83 630.27C1015.12 629.843 1015.26 629.158 1015.15 628.746C1014.96 628.073 1014.94 628.07 1014.89 628.726ZM965.728 634.766C964.342 640.097 964.066 642.885 965.287 639.231C965.854 637.536 966.641 636.353 966.641 637.197C966.641 637.445 966.342 638.601 965.977 639.766C964.765 643.618 965.901 642.548 967.733 638.113C968.662 635.861 968.835 634.979 968.476 634.334C968.218 633.872 968.006 632.611 968.006 631.533C968.006 627.925 967.213 629.05 965.728 634.766ZM998.968 632.834C998.333 637.177 998.59 638.154 999.393 634.449C999.695 633.055 1000.1 631.277 1000.3 630.501C1000.57 629.467 1000.51 629.087 1000.09 629.087C999.713 629.087 999.328 630.373 998.968 632.834ZM975.349 629.888C975.179 631.35 973.796 635.233 973.26 635.743C972.386 636.579 971.344 638.676 970.966 640.354L970.633 641.83L972.3 640.235C974.105 638.505 975.995 632.955 975.607 630.506C975.502 629.846 975.386 629.567 975.349 629.888ZM1011.82 632.357C1011.67 632.721 1011.23 632.965 1010.84 632.902C1010.28 632.807 1009.71 634.53 1008.02 641.486C1006.86 646.27 1005.36 652.074 1004.69 654.38C1002.65 661.384 1003.81 661.175 1006.17 654.113C1009.35 644.615 1013.84 627.309 1011.82 632.357ZM998.761 640.61C998.065 643.648 997.577 646.215 997.677 646.313C997.958 646.582 1000.41 636.187 1000.21 635.599C1000.11 635.313 999.456 637.568 998.761 640.61ZM1018.75 645.012C1017.82 648.267 1017.14 651.017 1017.25 651.122C1017.42 651.283 1019.63 644.043 1020.55 640.288C1021.44 636.684 1020.2 639.934 1018.75 645.012ZM1010.78 644.357C1009.95 646.77 1009.09 650.213 1008.86 652.006C1008.39 655.64 1005.51 665.467 1002.36 674.194C1000.17 680.244 999.997 681.45 1000.94 683.903L1001.53 685.428L1002.94 681.076C1006.32 670.668 1010.37 654.538 1010.76 649.97C1010.97 647.458 1011.47 644.254 1011.88 642.852C1013.09 638.673 1012.38 639.64 1010.78 644.357ZM995.519 643.553C995.414 643.852 994.805 646.74 994.17 649.97C993.535 653.199 992.632 657.361 992.168 659.214C991.701 661.07 991.496 662.587 991.711 662.587C991.926 662.587 992.105 662.537 992.105 662.476C992.105 662.419 993.144 658.453 994.414 653.666C995.685 648.882 996.834 644.525 996.968 643.987C997.233 642.923 995.887 642.518 995.519 643.553ZM951.878 645.293C951.775 645.592 951.256 647.403 950.723 649.317C948.928 655.768 946.899 661.344 946.618 660.58C946.445 660.108 945.999 660.919 945.356 662.86C943.873 667.358 944.232 668.031 946.248 664.536C947.175 662.931 952.017 648.616 952.39 646.381C952.647 644.851 952.29 644.093 951.878 645.293ZM1022.68 654.364C1019.93 664.272 1019.55 666.068 1020.22 666.068C1020.96 666.068 1021 665.944 1023.23 656.107C1025.91 644.274 1025.68 643.55 1022.68 654.364ZM995.089 653.485C994.286 656.08 994.165 657.318 994.782 656.69C995.262 656.205 996.309 651.672 996.008 651.386C995.895 651.278 995.483 652.222 995.089 653.485ZM987.782 666.547C984.06 677.326 975.26 699.949 971.922 707.327L970.279 710.956L971.756 709.766C973.444 708.407 973.625 708.043 976.457 700.273C977.601 697.133 979.73 692.214 981.189 689.343C983.231 685.315 984.218 682.63 985.509 677.595C986.428 674.006 987.887 669.257 988.753 667.042C989.853 664.227 990.199 662.8 989.911 662.303C989.596 661.768 989.071 662.818 987.782 666.547ZM995.792 664.375C995.511 665.143 995.362 665.849 995.459 665.942C995.556 666.035 995.866 665.482 996.144 664.714C996.425 663.945 996.574 663.24 996.477 663.147C996.38 663.054 996.07 663.606 995.792 664.375ZM987.879 671.909C987.451 673.087 987.123 674.556 987.147 675.171C987.178 675.935 987.472 675.463 988.071 673.69C989.142 670.515 988.968 668.905 987.879 671.909ZM951.663 676.774C950.768 678.597 950.621 678.71 950.083 678.007C949.56 677.319 949.345 677.653 948.23 680.892C947.534 682.909 946.673 685.114 946.314 685.794C945.954 686.475 945.765 687.13 945.891 687.251C946.02 687.374 946.836 686.133 947.707 684.494C948.663 682.695 949.849 681.166 950.689 680.641C951.97 679.842 953.455 676.997 953.455 675.342C953.455 674.162 952.615 674.832 951.663 676.774ZM957.773 677.7C949.067 697.696 940.739 714.359 940.298 712.669C939.989 711.478 939.632 711.76 937.634 714.751C935.745 717.581 936.989 714.585 941.763 704.788C947.907 692.181 950.272 686.864 949.951 686.37C949.621 685.855 948.909 687.136 947.077 691.553C944.833 696.965 941.582 702.706 940.626 702.945C939.653 703.188 938.275 705.547 936.836 709.424C935.918 711.895 932.186 717.644 931.763 717.24C931.661 717.142 932.196 715.763 932.949 714.171C934.871 710.117 934.104 708.211 932.073 711.991C930.411 715.082 929.76 715.067 930.955 711.966L931.291 711.097L930.616 711.966C930.246 712.445 927.837 716.361 925.265 720.668C892.497 775.514 851.852 819.789 799.237 857.96C790.76 864.11 789.343 865.04 790.002 864.02C791.164 862.219 788.366 863.882 783.367 867.963C781.718 869.309 778.75 871.26 776.774 872.297C774.797 873.335 771.543 875.191 769.543 876.421C764.115 879.756 760.386 881.856 759.884 881.856C759.64 881.856 758.517 882.634 757.386 883.586C756.257 884.538 754.234 886.03 752.89 886.901C749.384 889.177 751.336 888.395 758.478 884.666C764.362 881.592 766.622 880.693 765.315 881.944C763.296 883.875 764.974 883.91 768.204 882.001C769.69 881.125 774.795 878.267 779.545 875.648C784.296 873.028 789.277 870.075 790.616 869.085C795.799 865.24 797.505 864.354 797.505 865.509C797.505 866.343 794.907 868.412 789.274 872.069C780.771 877.584 779.616 878.375 780.068 878.375C780.674 878.375 788.676 873.478 795.072 869.193C797.951 867.265 800.408 865.78 800.529 865.896C800.933 866.283 795.056 871.459 790.513 874.718C785.23 878.511 785.319 878.872 790.734 875.618C809.345 864.437 831.378 847.477 849.414 830.445C854.33 825.804 853.157 826.708 845.748 833.273C839.96 838.399 833.895 843.298 833.638 843.052C833.189 842.62 836.055 839.619 838.653 837.801C844.979 833.374 860.6 819.249 859.737 818.74C859.306 818.483 864.474 813.129 866.771 811.452C867.204 811.135 871.004 806.926 875.214 802.099C882.571 793.664 885.255 790.841 885.255 791.539C885.255 791.717 886.77 790.333 888.62 788.46C890.471 786.589 892.14 785.2 892.329 785.378C892.518 785.554 890.709 787.568 888.305 789.851C885.904 792.134 882.555 795.906 880.862 798.232C879.166 800.555 875.237 804.957 872.127 808.011C866.702 813.338 865.227 815.435 868.679 812.916C873.678 809.267 897.622 780.715 911.853 761.43C914.354 758.039 916.635 755.182 916.924 755.074C917.974 754.684 915.611 759.838 913.947 761.563C913.021 762.527 911.115 765.172 909.717 767.442C905.058 775.001 898.15 783.975 887.652 796.11C883.434 800.984 882.153 802.782 883.437 802.024C884.208 801.567 883.946 802.476 882.673 804.653C882.004 805.801 881.689 806.602 881.975 806.431C882.66 806.027 889.345 796.798 890.365 794.844C890.804 794.008 894.77 788.819 899.179 783.317C908.53 771.644 912.551 766.234 916.627 759.825C918.254 757.271 922.152 752.017 925.288 748.147C933.461 738.069 934.388 736.673 932.125 737.833C931.606 738.099 931.178 738.205 931.178 738.066C931.178 737.557 933.165 734.109 934.225 732.772C935.172 731.585 936.603 728.591 940.007 720.668C941.075 718.184 939.883 719.678 937.469 723.847C936.458 725.597 935.529 726.933 935.406 726.815C935.112 726.534 940.582 715.509 946.663 704.135C949.348 699.11 952.001 693.725 952.56 692.171C953.119 690.614 954.875 686.126 956.466 682.193C959.345 675.068 960.206 672.112 957.773 677.7ZM938.309 678.83C937.408 681.56 937.393 681.729 938.02 681.729C938.639 681.729 939.815 679.031 939.815 677.61C939.815 675.797 939.122 676.357 938.309 678.83ZM953.067 682.01C951.106 686.317 950.836 687.663 952.445 685.124C953.523 683.419 955.497 678.316 955.19 678.022C955.072 677.909 954.117 679.702 953.067 682.01ZM970.329 682.648C970.05 683.416 969.901 684.122 969.998 684.215C970.095 684.308 970.402 683.755 970.683 682.987C970.964 682.216 971.113 681.513 971.016 681.42C970.919 681.327 970.609 681.879 970.329 682.648ZM1011.9 685.312C1010.82 687.801 1007.11 698.324 1007.13 698.859C1007.15 699.564 1009.08 695.024 1011.21 689.22C1012.93 684.536 1013.4 681.889 1011.9 685.312ZM993.312 694.956C990.491 701.84 990.021 703.53 992.149 699.132C993.714 695.898 996.299 689.079 996.049 688.841C995.958 688.753 994.724 691.505 993.312 694.956ZM998.708 694.793C997.548 698.188 996.695 701.061 996.813 701.174C996.934 701.287 997.979 698.6 999.139 695.205C1000.3 691.807 1001.15 688.936 1001.03 688.823C1000.92 688.71 999.868 691.395 998.708 694.793ZM1005.51 690.883C1005.02 691.636 1003 698.826 1003.22 699.034C1003.62 699.416 1004.87 696.408 1005.49 693.605C1006.13 690.674 1006.13 689.908 1005.51 690.883ZM929.724 696.121C928.493 698.138 919.811 715.524 919.811 715.974C919.811 716.119 919.015 717.232 918.042 718.453C917.068 719.671 914.173 724.281 911.609 728.701C909.047 733.122 906.181 737.936 905.244 739.4C904.307 740.867 903.184 742.733 902.748 743.549L901.956 745.031L902.982 744.159C904.528 742.853 907.858 737.971 912.255 730.572C914.422 726.926 917.506 721.873 919.107 719.344C920.711 716.815 922.157 714.168 922.317 713.46C922.48 712.754 922.968 711.993 923.404 711.77C924.811 711.049 931.527 696.003 931.052 694.637C930.968 694.396 930.369 695.064 929.724 696.121ZM993.493 698.487C992.701 700.31 991.331 703.781 990.451 706.199C986.436 717.234 968.397 751.306 966.867 750.744C966.481 750.603 965.99 751.181 965.507 752.346C963.45 757.294 957.605 768.525 954.253 773.962C953.395 775.358 953.523 775.293 955.788 773.201C958.544 770.652 959.145 770.408 958.725 772.003C958.568 772.603 958.534 773.093 958.647 773.093C958.878 773.093 964.282 764.549 965.478 762.294C966.959 759.501 965.875 759.895 963.846 762.886C961.489 766.37 959.332 768.439 961.15 765.478C975.651 741.859 992.522 708.168 994.614 698.65C995.525 694.514 995.241 694.471 993.493 698.487ZM938.031 700.586C935.878 704.904 935.844 705.084 937.201 705.039C937.907 705.017 938.537 704.462 939.227 703.264C940.411 701.209 940.532 700.559 939.59 701.307C938.687 702.023 938.705 701.373 939.647 699.122C941.023 695.827 939.894 696.852 938.031 700.586ZM928.69 704.703C915.525 728.089 902.693 747.484 887.623 766.784C880.933 775.35 880.138 776.44 882.521 773.776C883.392 772.801 885.759 770.34 887.78 768.306C889.801 766.272 892.31 763.554 893.358 762.266C895.686 759.401 895.809 759.694 893.641 762.937C892.751 764.268 892.108 765.438 892.213 765.536C892.56 765.867 897.166 758.788 896.885 758.353C896.733 758.12 896.972 757.811 897.413 757.668C897.853 757.525 898.615 756.874 899.103 756.221C899.804 755.287 899.827 755.164 899.216 755.634C897.801 756.726 898.402 755.644 903.276 748.351C905.937 744.37 908.927 739.892 909.924 738.395C910.919 736.901 911.816 735.676 911.916 735.676C912.212 735.676 909.801 740.068 908.155 742.529C907.312 743.785 905.903 745.889 905.021 747.205C902.845 750.448 903.344 750.224 905.995 746.771C908.52 743.479 908.819 743.273 907.512 745.726C906.99 746.706 906.646 747.587 906.748 747.685C907.362 748.273 910.052 742.933 909.543 742.142C909.409 741.936 909.617 741.768 910.005 741.768C910.394 741.768 911.328 740.955 912.079 739.963C913.59 737.966 913.871 736.984 912.667 737.908C912.189 738.275 912.404 737.67 913.228 736.329C913.963 735.133 915.811 731.806 917.333 728.933C918.855 726.062 921.047 722.049 922.204 720.015C924.233 716.453 932.642 698.648 932.406 698.422C932.343 698.361 930.671 701.187 928.69 704.703ZM965.255 716.145C964.234 718.083 963.505 719.766 963.628 719.886C963.849 720.097 966.282 715.755 967.111 713.671C967.972 711.501 967.043 712.739 965.255 716.145ZM993.357 717.729C992.32 718.844 989.373 724.116 989.386 724.836C989.396 725.572 992.832 720.532 993.748 718.437C994.47 716.785 994.383 716.624 993.357 717.729ZM998.17 718.365C997.693 719.153 996.716 721.069 995.997 722.624C994.026 726.896 986.118 741.407 985.885 741.181C985.772 741.073 985.911 740.163 986.192 739.156C986.908 736.612 986.491 736.539 985.509 739.038C985.063 740.181 983.864 742.876 982.85 745.031C981.501 747.888 980.992 749.556 980.963 751.201L980.924 753.459L983.32 749.898C984.638 747.939 986.454 744.476 987.354 742.203C988.255 739.93 989.407 737.285 989.918 736.329C990.428 735.372 992.142 732.165 993.729 729.204C998.005 721.22 1001.28 713.221 998.17 718.365ZM997.404 725.743C995.876 729.764 995.414 732.667 996.653 730.449C997.769 728.458 998.923 724.626 998.527 724.246C998.286 724.015 997.824 724.63 997.404 725.743ZM973.027 735.435C972.045 736.567 966.602 747.128 967.274 746.593C968.554 745.575 971.599 740.638 972.73 737.742C973.914 734.709 973.958 734.362 973.027 735.435ZM977.452 746.886C974.73 751.422 969.237 761.779 969.554 761.779C969.659 761.779 971.321 758.893 973.25 755.362C975.176 751.834 977.565 747.61 978.557 745.975C979.551 744.342 980.281 742.926 980.179 742.828C980.076 742.73 978.851 744.556 977.452 746.886ZM897.819 748.843C894.809 752.879 891.948 759.102 894.079 756.98C894.906 756.153 900.318 746.462 900.076 746.233C899.977 746.138 898.961 747.311 897.819 748.843ZM926.38 747.966C925.755 748.983 924.43 751.126 923.435 752.728C921.451 755.927 921.238 756.696 922.399 756.482C923.448 756.287 928.682 746.118 927.729 746.118C927.614 746.118 927.007 746.949 926.38 747.966ZM978.877 756.276C976.596 759.222 968.242 773.462 968.594 773.801C968.888 774.08 972.888 767.884 976.859 761.003C979.746 756.003 980.554 754.107 978.877 756.276ZM903.874 779.195C896.25 788.555 890.045 799.063 895.47 793.422C899.076 789.675 910.349 773.03 909.701 772.41C909.609 772.319 906.987 775.376 903.874 779.195ZM962.468 772.688C961.762 773.07 957.55 779.278 957.55 779.936C957.55 780.097 958.447 779.045 959.547 777.598C960.647 776.154 962.129 774.562 962.843 774.06C964.247 773.075 963.925 771.902 962.468 772.688ZM955.035 793.229C950.041 800.208 944.713 807.587 943.196 809.626C938.558 815.857 938.768 816.128 943.999 810.661C948.287 806.178 954.589 797.182 961.704 785.386C966.132 778.045 964.67 779.766 955.035 793.229ZM933.445 787.744C929.191 793.103 929.191 793.103 929.734 793.103C930.703 793.103 937.128 784.731 936.569 784.196C936.471 784.103 935.067 785.7 933.445 787.744ZM864.946 793.425C859.453 799.146 856.611 802.559 856.611 803.438C856.611 804.45 857.542 803.533 860.233 799.864C861.367 798.317 863.91 795.376 865.883 793.329C867.857 791.28 869.372 789.507 869.251 789.389C869.127 789.271 867.19 791.087 864.946 793.425ZM933.238 802.109C926.574 810.605 925.312 812.682 926.816 812.682C927.829 812.682 935.199 802.632 939.338 795.605C941.786 791.453 940.629 792.687 933.238 802.109ZM929.572 802.009C927.141 805.266 925.228 808.001 925.322 808.089C925.535 808.282 931.338 801.547 931.587 800.816C931.687 800.522 932.369 799.437 933.107 798.402C936.424 793.751 933.535 796.7 929.572 802.009ZM926.406 799.086C924.469 801.439 920.383 808.333 920.921 808.333C921.178 808.333 925.335 802.303 927.6 798.651C929.306 795.899 928.908 796.044 926.406 799.086ZM854.162 808.182C849.364 812.574 847.498 814.779 851.026 811.891C853.388 809.957 857.973 805.251 857.451 805.301C857.364 805.309 855.884 806.605 854.162 808.182ZM877.694 807.363C876.39 808.373 871.736 813.448 870.623 815.073C870.133 815.791 871.605 814.521 873.894 812.248C878.481 807.695 880.332 805.319 877.694 807.363ZM872.022 810.615C870.424 812.351 867.836 815.083 866.274 816.688C864.71 818.295 863.432 819.837 863.432 820.113C863.432 820.947 864.626 819.784 869.492 814.204C871.996 811.334 874.348 808.641 874.718 808.222C875.09 807.805 875.29 807.461 875.164 807.461C875.035 807.461 873.623 808.88 872.022 810.615ZM928.59 813.667C927.826 814.443 924.887 818.011 922.055 821.6C915.491 829.923 912.961 832.997 907.365 839.438C904.874 842.309 902.509 845.052 902.116 845.529L901.397 846.4L902.481 845.529C903.079 845.052 906.189 841.623 909.394 837.917C912.598 834.207 915.861 830.586 916.648 829.868C917.433 829.149 919.388 826.748 920.992 824.536C922.595 822.321 925.367 818.74 927.149 816.58C930.396 812.65 931.199 811.022 928.59 813.667ZM915.367 814.305C913.307 815.008 911.194 819.167 912.341 820.264C913.401 821.279 913.9 821.1 913.9 819.707C913.9 819.026 914.42 817.532 915.055 816.389C916.27 814.202 916.302 813.986 915.367 814.305ZM934.813 820.405C933.474 822.02 931.422 824.32 930.249 825.515C927.703 828.115 924.795 831.897 923.721 833.999L922.944 835.523L923.992 834.408C924.569 833.795 926.642 831.48 928.603 829.262C932.033 825.382 933.188 824.528 932.099 826.676C931.692 827.482 931.826 827.422 932.747 826.387C933.388 825.669 934.335 824.004 934.852 822.688C935.372 821.372 936.204 819.659 936.705 818.883C938.133 816.668 937.464 817.208 934.813 820.405ZM918.401 819.636C917.302 820.349 915.96 820.937 915.42 820.94C914.357 820.95 911.811 824.189 911.318 826.161C910.832 828.102 909.504 830.244 906.181 834.451L902.929 838.567L907.113 834.436C909.908 831.673 910.724 831.023 909.57 832.477C906.99 835.729 902.995 839.599 900.943 840.84C898.331 842.417 896.979 843.68 897.544 844.012C897.822 844.177 896.982 845.503 895.502 847.231C891.662 851.714 892.163 851.546 897.948 846.41L900.412 844.223L897.494 847.703C893.494 852.47 877.901 867.332 866.5 877.24C861.311 881.75 857.067 885.666 857.067 885.944C857.067 888.842 820.434 915.619 800.736 927.116C797.726 928.874 795.707 930.368 795.172 931.232C794.713 931.981 793.463 933.05 792.395 933.613C791.33 934.175 787.797 936.247 784.548 938.214C777.802 942.295 775.233 943.596 774.451 943.327C774.149 943.224 772.511 943.915 770.813 944.859C759.735 951.027 717.797 969.744 705.941 973.813C705.115 974.096 705.115 974.139 705.897 974.968C706.928 976.06 706.227 976.927 702.742 978.871C699.306 980.789 700.341 980.483 708.028 977.311C720.678 972.087 743.562 960.829 758.176 952.634C769.643 946.205 771.191 945.376 771.7 945.376C772.603 945.376 771.535 946.1 767.496 948.222C763.575 950.284 761.869 951.446 762.241 951.803C762.485 952.036 769.133 948.656 776.818 944.392C800.699 931.139 823.814 915.965 844.685 899.837C852.359 893.905 853.564 893.217 849.664 896.987C845.488 901.025 846.244 902.052 850.535 898.172C851.989 896.856 853.299 895.779 853.446 895.779C853.593 895.779 854.301 895.191 855.02 894.473C856.041 893.453 856.159 893.167 855.561 893.167C854.062 893.167 854.837 892.039 858.542 888.822C875.565 874.05 899.562 848.821 901.368 843.796C901.677 842.932 905.071 838.615 908.911 834.205C920.91 820.412 923.622 816.251 918.401 819.636ZM831.735 828.509C827.089 832.241 822.433 836.38 823.42 835.9C824.21 835.516 836.152 825.739 836.152 825.475C836.152 825.038 835.483 825.498 831.735 828.509ZM851.157 831.078C849.28 832.806 845.346 836.141 842.412 838.489C839.48 840.835 836.953 842.952 836.798 843.193C836.333 843.911 836.987 844.172 837.743 843.572C839.436 842.226 838.716 843.67 836.58 845.91C834.15 848.454 832.457 849.366 834.52 847.018C835.667 845.714 836.008 844.876 835.394 844.876C835.226 844.876 833.711 846.149 832.026 847.703C830.344 849.261 828.659 850.531 828.281 850.531C827.344 850.531 824.029 853.226 821.809 855.795C820.796 856.965 819.006 858.508 817.833 859.221C814.872 861.016 811.518 864.055 811.778 864.703C811.904 865.019 810.762 865.934 809.017 866.908C806.269 868.448 804.035 870.411 804.513 870.871C805.355 871.675 833.244 850.838 842.745 842.307C849.207 836.503 856.671 829.127 856.369 828.838C856.264 828.738 855.831 828.928 855.406 829.26C854.716 829.805 854.663 829.765 854.9 828.888C855.298 827.409 854.86 827.663 851.157 831.078ZM898.389 835.646C895.237 838.853 895.029 839.187 894.987 841.099C894.932 843.743 894.825 843.818 898.155 838.894C903.265 831.344 903.315 830.634 898.389 835.646ZM913.152 837.153C909.751 840.468 905.263 845.496 905.263 845.991C905.263 846.571 907.622 844.584 910.263 841.784C911.887 840.061 913.475 838.404 913.787 838.097C914.1 837.794 914.354 837.377 914.354 837.176C914.354 836.975 914.984 836.078 915.753 835.187C917.916 832.675 917.168 833.24 913.152 837.153ZM910.693 848.228C902.901 856.554 888.709 870.763 890.263 868.686C890.581 868.262 890.741 867.817 890.615 867.697C890.205 867.305 886.62 871.381 886.62 872.242C886.62 872.719 885.581 873.958 884.24 875.08C881.581 877.305 881.631 877.624 884.379 875.964C885.384 875.356 886.72 874.671 887.347 874.445C888.024 874.199 888.767 873.37 889.187 872.398C889.612 871.416 891.854 868.932 894.788 866.195C898.856 862.398 908.622 851.787 917.921 841.063C921.971 836.392 919.273 839.067 910.693 848.228ZM887.985 840.649C887.985 840.717 886.807 841.844 885.371 843.15L882.754 845.529L885.24 843.027C887.549 840.704 887.985 840.328 887.985 840.649ZM801.657 851.694C799.466 853.281 798.482 854.251 798.778 854.534C799.411 855.142 800.505 854.479 803.161 851.88C806.229 848.876 805.647 848.806 801.657 851.694ZM872.791 861.034C870.02 863.698 868.568 865.281 869.571 864.547C871.849 862.875 878.783 856.187 878.237 856.187C878.017 856.187 875.565 858.369 872.791 861.034ZM878.812 860.868C869.387 869.02 862.595 875.11 862.755 875.263C863.429 875.909 879.229 862.714 882.602 858.691C884.809 856.056 883.515 856.797 878.812 860.868ZM146.921 859.994C149.596 863.525 151.871 865.733 153.517 866.398C154.294 866.712 158.567 870.329 163.007 874.432C167.451 878.536 171.188 881.793 171.317 881.67C171.802 881.205 169.971 879.257 164.317 874.229C161.099 871.368 155.577 866.431 152.047 863.259C144.882 856.825 144.176 856.375 146.921 859.994ZM892.302 863.583C887.783 867.93 887.513 868.729 891.754 865.215C893.268 863.96 894.68 862.933 894.89 862.933C895.297 862.933 897.069 860.547 897.074 859.994C897.082 859.193 896.113 859.921 892.302 863.583ZM861.695 872.596C860.122 873.485 857.367 875.545 855.566 877.172C852.362 880.07 852.338 880.105 854.493 878.85C855.705 878.141 856.934 877.652 857.225 877.76C857.519 877.865 859.388 876.383 861.38 874.467C863.372 872.549 864.899 870.979 864.776 870.979C864.65 870.979 863.264 871.707 861.695 872.596ZM317.372 872.041C317.372 872.415 329.225 878.438 329.679 878.295C329.933 878.214 328.802 877.411 327.167 876.509C325.532 875.61 324.194 874.673 324.194 874.43C324.194 873.85 319.716 871.861 318.396 871.856C317.834 871.853 317.372 871.936 317.372 872.041ZM319.212 874.701C320.333 875.992 332.663 882.599 333.125 882.155C333.238 882.049 331.734 881.082 329.784 880.007C322.285 875.871 318.637 874.038 319.212 874.701ZM855.445 879.354L854.112 880.768L855.59 879.49C856.401 878.789 857.067 878.152 857.067 878.076C857.067 877.742 856.692 878.036 855.445 879.354ZM870.164 887.039C865.823 890.402 861.435 894.448 861.776 894.774C862.196 895.176 866.477 891.826 870.469 887.969C874.778 883.807 874.689 883.538 870.164 887.039ZM851.837 887.293C849.837 888.579 847.28 890.395 846.154 891.324C841.078 895.523 840.958 894.988 845.926 890.327C851.847 884.774 851.805 884.764 844.984 890.053C842.462 892.004 840.008 893.609 839.527 893.619C838.548 893.637 836.055 894.87 836.947 894.892C838.128 894.925 837.407 895.817 833.895 898.675C831.835 900.35 830.483 901.743 830.759 901.907C832.032 902.66 828.142 905.968 814.1 916.078C811.101 918.238 808.337 920.368 807.962 920.81C807.161 921.754 808.599 920.757 825.467 908.69C840.695 897.793 857.096 884.915 855.703 884.95C855.577 884.952 853.839 886.007 851.837 887.293ZM851.131 890.058C848.27 892.399 845.619 894.694 845.246 895.156C844.553 896.007 847.435 893.805 853.201 889.071C854.952 887.635 856.469 886.401 856.574 886.334C856.679 886.263 856.669 886.115 856.55 886.002C856.432 885.892 853.994 887.715 851.131 890.058ZM350.009 899.754C352.08 900.744 353.901 901.432 354.053 901.286C354.208 901.138 353.014 900.453 351.4 899.76C346.778 897.776 345.857 897.773 350.009 899.754ZM848.265 901.683C846.797 902.743 845.241 903.609 844.803 903.609C843.756 903.609 841.609 905.242 841.609 906.033C841.609 907.309 843.325 906.585 846.511 903.966C847.333 903.293 848.372 902.74 848.818 902.74C849.267 902.74 850.047 902.299 850.553 901.761C853.089 899.069 851.936 899.029 848.265 901.683ZM202.796 908.406C219.664 923.726 251.7 942.965 285.547 958.104C302.452 965.663 304.05 966.178 294.045 960.839C266.66 946.225 245.91 934.223 215.3 915.297C199.421 905.478 199.815 905.696 202.796 908.406ZM854.446 913.821C849.052 917.726 846.91 919.873 851.383 916.89C855.411 914.2 860.02 910.571 859.403 910.571C859.143 910.571 856.913 912.033 854.446 913.821ZM812.872 929.926C811.956 930.524 804.109 935.13 795.434 940.163C778.821 949.804 777.508 950.595 778.154 950.595C778.855 950.595 785.149 947.154 794.161 941.845C798.951 939.022 805.203 935.436 808.059 933.872C810.914 932.307 813.733 930.536 814.323 929.936C815.694 928.54 815.014 928.535 812.872 929.926ZM799.964 933.302C795.912 937.322 795.482 937.94 797.479 936.865C799.114 935.984 802.728 932.654 803.471 931.345C804.421 929.668 802.613 930.677 799.964 933.302ZM781.364 935.1C777.364 937.32 771.225 940.66 767.724 942.523C760.005 946.629 758.522 947.782 765.451 944.289C774.078 939.939 788.865 931.692 788.865 931.23C788.865 930.923 789.24 930.73 781.364 935.1ZM762.606 946.974C759.546 948.809 757.136 950.399 757.247 950.505C757.472 950.723 764.504 946.747 767.223 944.864C770.593 942.528 768.147 943.646 762.606 946.974ZM799.096 950.439C792.316 954.174 786.548 957.659 786.781 957.883C787.162 958.247 802.962 949.221 802.962 948.641C802.962 948.31 802.991 948.294 799.096 950.439ZM752.121 958.091C743.287 962.391 736.158 966 736.276 966.113C736.607 966.432 745.735 962.727 747.263 961.653C748.013 961.128 750.982 959.571 753.856 958.199C761.1 954.739 769.805 949.972 768.406 950.231C768.281 950.253 760.953 953.792 752.121 958.091ZM769.971 952.494C765.068 955.012 759.766 957.986 759.766 958.217C759.766 958.767 769.01 954.133 772.944 951.612C775.459 950 773.96 950.444 769.971 952.494ZM299.751 955.055C300.291 956.655 312.372 961.577 312.372 960.199C312.372 959.134 306.462 956.253 304.278 956.253C303.845 956.253 302.73 955.861 301.795 955.382C299.816 954.367 299.499 954.317 299.751 955.055ZM298.082 957.019C297.937 957.16 299.609 958.179 301.798 959.284C303.987 960.392 307.417 962.393 309.417 963.732C317.545 969.169 325.167 972.421 324.406 970.131C324.128 969.292 324.233 969.239 325.627 969.491L327.149 969.764L325.385 968.843C322.18 967.168 320.047 966.595 320.199 967.454C320.432 968.772 318.91 968.501 316.874 966.861C311.383 962.436 299.129 956.017 298.082 957.019ZM761.008 970.684C756.063 973.104 752.129 975.191 752.268 975.325C752.536 975.581 766.11 969.172 769.089 967.379C772.755 965.174 769.779 966.392 761.008 970.684ZM333.742 969.714C333.742 969.94 334.17 970.819 334.694 971.671C335.876 973.587 335.141 974.074 332.198 973.323C329.584 972.655 329.632 972.971 332.359 974.39C333.653 975.061 337.196 976.972 340.235 978.632L345.76 981.651L353.135 981.678L360.51 981.703L359.628 980.804C358.434 979.586 358.51 979.388 360.226 979.23C362.94 978.979 361.604 978.235 355.946 976.841C348.917 975.114 348.836 975.111 350.529 976.733C351.975 978.117 352.379 979.923 351.329 980.307C349.363 981.028 341.471 976.932 340.148 974.501L339.198 972.755L340.219 972.381C341.14 972.045 340.944 971.869 338.288 970.656C335.298 969.287 333.742 968.966 333.742 969.714ZM693.189 984.971C688.981 986.689 688.388 987.306 691.338 986.9C694.839 986.42 697.477 985.184 697.477 984.029C697.477 983.409 696.475 983.63 693.189 984.971ZM717.938 989.167C712.802 991.247 711.025 992.314 714.314 991.345C718.183 990.204 723.849 987.947 723.849 987.545C723.849 986.889 722.967 987.131 717.938 989.167ZM658.83 989.943C651.775 991.485 641.655 994.065 628.823 997.588C620.934 999.755 620.895 999.773 624.275 999.539C627.469 999.321 627.627 999.351 626.776 1000.01C624.921 1001.44 634.388 998.746 636.54 997.226C638.159 996.081 639.862 995.629 648.332 994.095C653.555 993.145 656.57 992.364 658.395 991.483C659.828 990.79 661.948 989.996 663.106 989.717C664.263 989.439 665.323 989.037 665.457 988.828C665.594 988.617 665.641 988.459 665.565 988.474C665.486 988.489 662.457 989.152 658.83 989.943ZM685.283 991.691C679.982 993.482 678.525 994.102 679.62 994.102C680.795 994.102 688.194 991.812 690.12 990.852C693.299 989.268 691.559 989.569 685.283 991.691ZM474.438 1001.97C473.829 1002.91 475.175 1003.4 478.207 1003.33C479.899 1003.29 482.361 1003.36 483.681 1003.5L486.08 1003.74L484.905 1005.07C483.07 1007.16 483.718 1007.35 493.012 1007.51L501.287 1007.64L499.697 1006.57C498.82 1005.99 497.663 1005.02 497.122 1004.42C496.285 1003.48 495.613 1003.28 492.576 1003.03C490.616 1002.87 486.981 1002.46 484.498 1002.12C479.12 1001.38 474.86 1001.32 474.438 1001.97ZM504.242 1003.65L500.379 1003.89L502.744 1004.47C505.3 1005.1 506.316 1005.89 505.899 1006.93C505.455 1008.04 507.437 1007.72 513.192 1005.76C520.26 1003.34 517.875 1002.78 504.242 1003.65ZM586.198 1007.06C584.633 1007.44 583.355 1007.9 583.355 1008.1C583.355 1009.16 591.486 1007.86 592.247 1006.68C592.628 1006.09 589.415 1006.29 586.198 1007.06ZM460.583 1007.82C468.094 1009.16 469.451 1009.99 463.551 1009.62C458.882 1009.34 459.178 1009.87 464.092 1010.59C468.624 1011.25 472.902 1011.22 472.758 1010.53C472.582 1009.69 479.703 1009.32 491.739 1009.54C498.547 1009.66 501.484 1009.59 500.151 1009.34C496.605 1008.67 473.955 1007.17 464.005 1006.94L454.457 1006.73L460.583 1007.82ZM636.324 1013.24C626.91 1015.51 626.451 1015.94 634.96 1014.5C640.576 1013.55 645.19 1012.18 645.19 1011.47C645.19 1011.25 645.14 1011.09 645.077 1011.12C645.014 1011.14 641.075 1012.1 636.324 1013.24Z" fill="#040404"/>
</svg>
