<svg width="104" height="95" viewBox="0 0 104 95" fill="none" xmlns="http://www.w3.org/2000/svg">
<path d="M98.4019 67.3402C98.5831 68.059 98.7526 68.8038 98.7769 68.9954C98.8868 69.8417 97.8721 70.4086 95.6269 70.7573C94.7487 70.8934 93.9124 71.0648 93.7688 71.1379C92.9749 71.5411 92.6725 73.0179 93.1273 74.2752C93.4941 75.2891 93.5611 75.1638 92.4892 75.4716C91.2427 75.8298 91.0526 75.9464 90.2107 76.8705C89.2117 77.968 88.9962 78.0323 86.0846 78.0957C82.9304 78.1648 81.6283 78.5033 81.241 79.3571C81.0395 79.8024 80.9015 79.9398 80.3874 80.2056C79.5968 80.6154 79.4835 80.814 79.6618 81.485C80.212 83.5606 79.4001 84.2387 75.5185 84.9418C71.9236 85.5936 70.8655 86.1962 69.779 88.2117C68.962 89.7266 67.7717 90.0705 65.7913 89.3631C63.9537 88.7063 64.0749 88.7149 61.9075 89.0914C60.4613 89.3425 59.6738 89.41 59.1852 89.3247L58.4979 89.2056L58.1635 89.9446C56.932 92.661 56.1583 93.1009 53.9983 92.3159C53.5742 92.1617 52.9074 92.031 52.5151 92.025C51.8028 92.014 51.5935 92.0789 48.5917 93.2526C45.8376 94.3292 42.0962 95.0587 39.6138 95.0026C37.984 94.9658 37.1948 94.7134 34.868 93.4839C33.732 92.8835 32.5438 92.2818 32.2285 92.1468C31.4155 91.7991 31.0788 91.4007 30.3328 89.9091C29.0305 87.3014 28.5175 86.9307 26.6221 87.224C24.3849 87.5704 23.2061 87.2586 23.3618 86.3629C23.5294 85.4006 22.9321 84.9286 21.5244 84.9112C20.4054 84.8977 20.0529 84.6871 19.8546 83.9162C19.6883 83.2679 19.6851 81.327 19.849 80.5932L19.951 80.1378L19.311 80.0797L18.6718 80.022L18.1006 79.3564C17.1485 78.2472 15.4988 77.2772 14.0481 76.9737C12.3038 76.6087 11.6588 76.2569 11.2589 75.4505C10.5727 74.0662 9.50909 73.5663 5.6456 72.8131C3.47368 72.3903 3.06336 72.1964 2.72526 71.4328C2.57958 71.1044 2.12877 70.3248 1.72265 69.7001C0.611364 67.9913 0.545587 67.3754 1.41463 66.7937C2.87794 65.8152 3.01467 65.5051 3.49415 62.0847C3.55798 61.6299 3.58197 60.8408 3.54688 60.3302C3.42469 58.555 3.83765 57.7427 5.07022 57.3334C7.03378 56.6815 7.78131 55.6885 8.61697 52.6223C9.32597 50.0191 9.47743 49.8739 11.4665 49.8881L12.3169 49.8945L12.4816 49.4372C12.8176 48.5045 13.8282 46.7882 14.5774 45.8792C17.6074 42.2041 18.2534 40.7817 18.3775 37.5166C18.4245 36.2851 18.5335 35.1645 18.6207 35.0266C18.8999 34.5855 20.2284 33.7408 21.2789 33.337C23.0177 32.6683 24.0108 31.035 23.6322 29.4677C23.5157 28.9858 23.5999 28.8587 24.2784 28.5005C25.0298 28.1032 25.4812 27.7096 26.3133 26.7234C27.3331 25.5153 27.5235 25.3996 29.3064 24.8988C31.9217 24.164 33.054 23.5786 33.3736 22.7974C33.5001 22.4884 33.771 22.1723 34.2515 21.776L34.9461 21.2012L35.015 20.2934C35.1504 18.4978 35.9823 17.6718 38.8887 16.4427C41.2473 15.4459 42.4966 14.3919 43.5118 12.5415C44.4239 10.8792 45.5396 10.3021 47.0729 10.7004C47.8822 10.9106 48.1923 10.8463 49.4704 10.2023C50.0293 9.92099 50.8704 9.61794 51.3382 9.52853C52.1169 9.38086 52.2008 9.33489 52.325 8.98624C52.3998 8.77702 52.8231 8.02307 53.2654 7.31222C54.2594 5.7162 54.4891 5.57878 55.9162 5.72082C57.1013 5.83911 57.5721 5.66863 59.1711 4.54438C64.3568 0.901126 67.9535 -0.200024 70.2792 1.14455C70.7429 1.41247 71.3861 1.71792 71.7093 1.82393C72.5203 2.08978 72.6681 2.31617 72.9248 3.68776C73.158 4.93077 73.2716 5.18273 73.9277 5.9069C74.6918 6.75001 74.6403 7.58102 73.7841 8.23653C73.5372 8.42499 73.5545 8.43654 74.4884 8.72909C74.8858 8.85383 75.3904 9.05866 75.6093 9.18472C75.8759 9.33843 76.1572 9.39275 76.464 9.3485C76.9797 9.27593 77.1974 9.44119 77.2529 9.94638C77.3335 10.6897 77.7907 10.9335 78.8921 10.8227L79.4957 10.762L79.6986 11.1314C80.2797 12.1874 81.1052 12.6752 82.4527 12.7578C83.7258 12.8356 83.8581 12.9193 84.1239 13.809C84.4377 14.8619 84.9018 15.0589 87.1023 15.0736C89.0606 15.0872 89.4621 15.201 89.5112 15.7596C89.5308 15.975 89.713 16.6983 89.9173 17.3671C90.3969 18.9406 90.3557 19.0684 88.8545 20.6309C88.5689 20.9283 88.2563 21.3624 88.1594 21.5963C87.787 22.4923 87.4793 23.3594 87.5242 23.3854C87.5498 23.4003 87.9957 23.4827 88.515 23.5686C89.7107 23.7658 89.9537 23.909 90.097 24.501C90.3658 25.613 90.1359 26.2898 89.1842 27.1933C88.0874 28.2349 88.2368 28.4872 90.8439 29.9995C93.6367 31.6186 93.7121 32.0266 91.5995 34.0863C89.1713 36.4549 89.1777 36.4672 94.7343 39.8364C96.8634 41.1273 98.8576 42.3446 99.1657 42.5419L99.7262 42.9003L99.71 44.7807C99.688 47.2706 99.8966 47.8998 101.443 50.0197C103.898 53.3833 103.743 55.783 100.88 58.7503C100.425 59.221 99.7918 60.0963 99.0018 61.3446C97.4982 63.7204 97.4948 63.7481 98.4019 67.3402Z" fill="url(#paint0_radial_101_311)"/>
<defs>
<radialGradient id="paint0_radial_101_311" cx="0" cy="0" r="1" gradientUnits="userSpaceOnUse" gradientTransform="translate(59.2859 51.2028) rotate(-149.909) scale(43.1196 49.0196)">
<stop stop-color="#3D6543" stop-opacity="0.8"/>
<stop offset="1" stop-color="#3D6543" stop-opacity="0.2"/>
</radialGradient>
</defs>
</svg>
