<svg width="268" height="141" viewBox="0 0 268 141" fill="none" xmlns="http://www.w3.org/2000/svg">
<path d="M105.993 6.29374C104.867 4.31467 106.471 1.52179 109.381 0.395424C111.238 -0.32332 114.083 0.308996 117.623 2.22757C121.404 4.27721 124.267 5.2365 127.404 5.50297C130.315 5.74927 131.963 6.239 133.355 7.26598C134.883 8.39523 135.539 8.64441 138.171 9.10533C140.692 9.54464 142.309 10.1381 144.046 11.2616C144.765 11.7268 145.867 12.2871 146.496 12.506C148.286 13.1297 149.381 14.076 153.056 18.184C160.954 27.0077 162.22 27.9482 166.2 27.9482H167.671L169.154 29.4577C171.322 31.6615 175.201 34.1606 177.09 34.5711C177.673 34.6964 177.889 34.5811 178.662 33.7328C180.069 32.1901 180.704 32.3356 183.666 34.8721C186.723 37.4907 192.256 40.0747 194.629 39.994C199.822 39.814 201.38 40.056 206.243 41.7887C210.441 43.2853 210.774 43.5013 213.5 46.516C216.136 49.4342 217.757 50.7061 221.17 52.5324C224.404 54.2638 224.685 54.8414 223.276 56.8464C222.494 57.9598 222.882 58.4293 225.493 59.5269C227.519 60.3796 227.637 60.4703 228.484 61.8228C229 62.6482 229.569 63.2776 229.856 63.3439C232.145 63.8638 233.202 63.9575 236.827 63.9589C242.672 63.9603 245.021 64.3953 249.273 66.2649C252.067 67.4921 253.691 67.7629 259.428 67.9559C264.368 68.123 264.336 68.1086 264.713 70.393C265.004 72.1589 265.788 74.1711 267.097 76.5117L267.883 77.9161L267.229 78.9186C266.869 79.4702 266.244 80.6024 265.84 81.4349C265.435 82.266 264.802 83.2224 264.433 83.5594C264.052 83.908 263.59 84.7002 263.366 85.393C262.13 89.2057 259.541 92.1628 256.636 93.0817C254.2 93.8538 253.002 94.8908 252.348 96.7964C252.008 97.7874 251.5 98.5767 250.511 99.6527C249.759 100.471 248.842 101.512 248.471 101.966C247.935 102.623 247.53 102.847 246.48 103.072C245.757 103.226 244.766 103.445 244.279 103.558C242.732 103.915 237.488 106.358 237.243 106.836C237.114 107.084 236.984 107.771 236.953 108.363C236.867 110.018 235.936 110.755 233.916 110.764C233.047 110.767 231.395 111.037 230.047 111.397C228.154 111.903 227.239 112.015 225.371 111.976C224.095 111.949 222.9 111.926 222.717 111.926C222.536 111.925 221.469 112.314 220.346 112.79C217.204 114.123 215.624 114.306 212.636 113.682C208.075 112.731 202.569 113.761 201.392 115.786C200.276 117.705 197.894 118.396 191.315 118.71C181.454 119.18 180.125 119.789 177.052 125.242C173.308 131.884 172.969 132.193 169.311 132.284C166.894 132.345 166.495 132.428 162.676 133.68C160.48 134.4 158.843 134.517 155.49 134.196C153.671 134.021 152.973 134.077 150.292 134.608C148.59 134.943 146.5 135.297 145.65 135.391C144.137 135.561 144.068 135.599 142.569 137.084C140.159 139.472 139.985 139.525 135.788 139.208C133.584 139.042 133.306 139.074 131.034 139.77C126.353 141.2 125.2 141.287 122.52 140.406C114.395 137.742 114.244 137.642 114.461 135.113C114.634 133.111 114.453 132.567 113.423 131.988C112.024 131.203 111.244 131.116 103.852 130.935C95.2709 130.721 94.6087 130.608 94.4946 129.31C94.4071 128.333 93.9811 128.021 91.6591 127.226C89.7245 126.563 89.2667 126.213 89.5971 125.646C90.6321 123.87 87.5166 121.813 83.7934 121.813C83.6647 121.813 83.0437 121.228 82.4121 120.515C81.1317 119.069 80.4191 118.751 77.9617 118.53C75.9011 118.344 75.1833 118.722 73.79 120.724C71.3221 124.27 69.548 125.11 68.4626 123.243C67.6214 121.795 66.1127 121.114 63.1007 120.822C60.1842 120.538 59.7397 120.256 59.3364 118.428C59.0551 117.156 58.2735 116.051 57.6539 116.051C57.1404 116.051 56.68 115.236 56.3058 113.66C55.7379 111.269 55.4805 110.893 53.733 109.897C52.0452 108.933 51.4667 108.397 49.5294 106.002C47.8722 103.954 46.406 103.702 39.5208 104.281C36.0006 104.576 35.6861 104.492 35.1262 103.111C34.2 100.832 32.8095 99.487 31.3778 99.487C30.8988 99.487 29.6157 98.9757 27.9916 98.1374C25.0366 96.6121 22.5792 95.6456 21.6597 95.6456C21.1794 95.6456 20.9167 95.4367 20.5 94.7194C19.2979 92.6525 17.1603 91.4541 14.2876 91.238C10.9306 90.9831 10.9903 91.0263 10.855 88.7808C10.6068 84.693 8.5913 82.2876 4.43552 81.1194C2.35631 80.5332 2.23556 80.4295 2.23556 79.2283C2.23556 78.4591 2.0644 77.9377 1.57212 77.1988C0.671175 75.8491 0.712308 75.672 2.22229 74.4116C2.94544 73.8067 3.75749 72.9641 4.02685 72.5363C4.29753 72.1085 4.70488 71.5929 4.93443 71.3898C5.32453 71.0441 5.25023 70.985 3.73759 70.4578C-0.730007 68.9008 -0.85606 68.6732 1.56284 66.5012C2.53013 65.6312 3.97112 64.0828 4.76326 63.0587C5.55541 62.0346 6.69785 60.7368 7.30158 60.175C8.81156 58.7721 10.1968 55.8064 10.1968 53.9757C10.1968 51.4565 11.5463 50.4742 14.005 51.2015C14.89 51.4637 16.534 51.7518 17.6579 51.8425L19.6999 52.0053L21.1953 50.4569C26.5134 44.9547 29.7364 42.5867 34.2425 40.8756C35.6742 40.3311 37.8396 39.3948 39.0564 38.7942C41.0719 37.7989 41.4262 37.6995 43.0609 37.6794C44.8323 37.6578 44.8615 37.6477 45.6297 36.7633C46.057 36.2721 46.4935 35.8703 46.601 35.8688C49.1513 35.8573 51.663 34.7727 51.4839 33.7616C51.3035 32.7303 53.6839 31.1185 61.8893 26.7225C68.9881 22.9199 70.1371 22.1868 69.0066 22.1868C65.9097 22.1868 67.6692 16.3633 70.9266 15.8333C72.1102 15.6403 72.9249 14.8726 73.9121 13.0231C74.4521 12.0091 74.5875 11.9126 75.986 11.5309C76.8087 11.3062 78.6385 10.55 80.0516 9.84856C83.6049 8.08843 84.1039 7.93575 85.7651 8.10427L87.1796 8.24687L88.3804 7.18532C90.2884 5.49865 90.6135 5.45976 96.8857 6.19723C99.8658 6.54724 103.243 6.90301 104.389 6.98655L106.475 7.14067L105.993 6.29374Z" fill="url(#paint0_radial_101_307)"/>
<defs>
<radialGradient id="paint0_radial_101_307" cx="0" cy="0" r="1" gradientUnits="userSpaceOnUse" gradientTransform="translate(133.939 70.5417) rotate(90) scale(70.4343 133.944)">
<stop stop-color="#3D6543" stop-opacity="0.8"/>
<stop offset="1" stop-color="#3D6543" stop-opacity="0.2"/>
</radialGradient>
</defs>
</svg>
