<svg width="92" height="69" viewBox="0 0 92 69" fill="none" xmlns="http://www.w3.org/2000/svg">
<path d="M78.3587 10.9697C80.1009 10.6891 83.0821 10.7092 84.2184 11.0097C84.9231 11.1961 85.056 11.4286 84.8848 12.1691C84.5346 13.6846 84.5946 14.4157 85.1852 15.8143C86.514 18.9621 86.613 20.2196 85.6539 21.7455C84.7083 23.2489 84.8287 23.6793 86.5873 25.0793C87.248 25.6054 87.6059 25.9818 87.859 26.4175C88.6219 27.7304 88.6916 27.79 90.1083 28.3332C92.5839 29.2831 92.116 30.4374 87.7201 34.215C84.435 37.0381 83.6975 38.1327 84.7549 38.6147C85.4493 38.9317 85.4403 38.947 83.7492 40.2825L82.2437 41.4709L82.243 44.1247L82.764 44.2578C86.2757 45.1548 85.5893 50.2954 81.612 52.8769C80.783 53.4156 79.4658 54.3388 78.6847 54.9297L77.2647 56.003L77.2645 56.7159C77.2645 57.7142 76.9248 58.2368 75.819 58.9381C73.4712 60.4278 73.0625 60.7265 72.6159 61.2775C72.1028 61.9112 71.9744 62.0131 69.6267 63.6474C67.8093 64.9128 67.6082 65.0069 64.5858 65.9905C62.8375 66.5593 62.2214 66.7104 61.4715 66.7543C60.608 66.8051 60.5442 66.7258 60.658 65.7414C60.7195 65.2114 60.4903 65.2011 59.1395 65.6739C58.5538 65.879 58.0019 66.033 57.913 66.0165C57.7321 65.982 57.6648 65.4381 57.8264 65.3159C57.8843 65.2721 57.9708 65.0239 58.0201 64.7648C58.1523 64.0577 57.8526 63.9123 56.3241 63.9399C54.9458 63.9652 54.8651 63.992 53.4778 64.8931C52.6306 65.4427 52.0834 65.6072 50.8334 65.6888C49.4742 65.7777 49.0025 65.9385 47.7585 66.7359C45.1066 68.4347 43.3978 68.7367 42.1202 67.7323C41.3009 67.0882 40.7002 66.9022 39.6875 66.9802C38.7428 67.0525 37.8621 66.7908 36.8703 66.1441L36.1078 65.6465L34.3428 65.6065C31.9177 65.552 31.9458 65.5964 31.9317 61.8784C31.9192 58.8273 31.3967 58.6173 28.2621 60.4062C26.9376 61.1617 26.8696 61.1722 26.5712 60.6689C26.0593 59.8047 24.4306 60.1309 23.2894 61.3254C22.1741 62.4927 20.0514 64.0671 19.3999 64.2098C18.7484 64.3524 18.4763 64.2356 17.7225 63.4907C17.3865 63.1586 16.6785 62.5361 16.1493 62.1084C15.6195 61.6803 14.8275 60.9946 14.3891 60.585C13.7727 60.0082 13.2885 59.6732 12.2558 59.1058C10.5469 58.166 10.5651 58.2046 10.6122 55.6727C10.6561 53.2993 10.8486 53.5515 8.98545 53.5391C6.62465 53.5226 4.10756 53.0485 3.38947 52.484C3.02549 52.1979 3.02762 52.1772 3.50975 51.1796C4.1025 49.9537 4.16554 49.2436 3.81998 47.7282C3.67464 47.093 3.58985 46.5481 3.63073 46.5172C3.67161 46.4862 3.65023 45.9019 3.58336 45.2188C3.43788 43.7443 3.66877 43.1128 4.81186 41.8645C5.92085 40.6544 5.91186 40.2263 4.75502 38.9259C3.95205 38.024 3.75873 37.6896 3.22611 36.2882C2.96253 35.593 2.78511 35.4331 1.60465 34.8292C-0.485126 33.7587 0.223262 32.7013 5.10409 29.6037C9.39404 26.8818 10.2379 26.055 9.2885 25.5027C8.57663 25.0886 8.65715 24.9753 10.2813 24.1159C12.4987 22.9428 12.3695 23.0644 12.5833 21.9519C12.6873 21.4088 12.8078 20.8303 12.8522 20.6664C12.9248 20.3935 12.8874 20.3486 12.4072 20.1361C11.1582 19.5839 10.8011 18.8463 10.839 16.9047C10.8743 15.1145 10.9706 14.9351 12.656 13.5116C13.8132 12.5334 14.0683 12.2576 14.474 11.5443C14.7345 11.0884 15.222 10.4589 15.5579 10.1457C15.8933 9.83208 16.6286 9.11115 17.1914 8.54363C18.3718 7.35183 19.1265 6.87797 21.8966 5.59033C24.4593 4.39964 25.2088 4.34273 25.2799 5.33578C25.3372 6.13657 25.5786 6.11578 27.3709 5.1567C28.0784 4.77762 28.2843 4.94632 28.1967 5.83203C28.0356 7.45847 30.1608 7.33441 32.4777 5.58174L33.8404 4.55078L34.8432 4.36892C36.2605 4.11135 36.3314 4.07489 38.3757 2.53782C41.0477 0.529798 41.6351 0.384257 43.3836 1.29606C44.1734 1.70737 44.9717 1.78295 46.1805 1.56034C46.8261 1.44118 48.1996 1.75544 48.9622 2.19682C49.5176 2.51801 49.9929 2.52105 52.1054 2.2153C52.702 2.12844 53.2561 2.109 53.3357 2.17157C53.5923 2.37332 54.196 4.06547 54.427 5.22881C54.5501 5.85042 54.7084 6.64427 54.7788 6.99261C55.0704 8.44129 55.9317 8.40923 58.13 6.86802C59.0658 6.21246 59.7123 5.81947 59.7664 5.87464C59.8157 5.92496 59.9272 6.0728 60.0153 6.20316C60.2281 6.51797 61.1836 6.52888 61.9325 6.22504C62.4352 6.02075 62.5596 5.8934 63.3584 4.77228C65.6771 1.51834 66.5669 1.09928 68.4197 2.38993C69.0015 2.79586 69.5914 3.14901 69.73 3.17454C69.8692 3.20055 70.5918 3.65317 71.3366 4.18041C72.5364 5.02857 72.8811 5.21128 74.3567 5.7814C76.4324 6.58273 76.319 6.481 76.5764 7.77281C77.2877 11.3346 77.1896 11.1585 78.3587 10.9697Z" fill="url(#paint0_radial_99_2263)"/>
<defs>
<radialGradient id="paint0_radial_99_2263" cx="0" cy="0" r="1" gradientUnits="userSpaceOnUse" gradientTransform="translate(46.0504 34.5326) rotate(90) scale(33.7738 45.5531)">
<stop stop-color="#3D6543" stop-opacity="0.8"/>
<stop offset="1" stop-color="#3D6543" stop-opacity="0.2"/>
</radialGradient>
</defs>
</svg>
