<svg width="60" height="75" viewBox="0 0 60 75" fill="none" xmlns="http://www.w3.org/2000/svg">
<path d="M43.1921 9.46733C44.2198 9.01817 46.1397 8.79482 46.9658 9.02879C47.4781 9.17385 47.6383 9.41631 47.7669 10.2373C48.0302 11.9176 48.3043 12.7094 49.1338 14.1848C51.0006 17.5057 51.4691 18.8679 51.3451 20.6096C51.2223 22.3256 51.4383 22.7847 53.0179 24.1656C53.6114 24.6845 53.9623 25.0653 54.2651 25.5192C55.1776 26.8871 55.2415 26.9463 56.3258 27.4217C58.2206 28.2531 58.2921 29.5494 56.6875 34.0276C55.4883 37.3743 55.3676 38.6278 56.2015 39.0661C56.7492 39.3543 56.7484 39.3717 56.0932 40.9662L55.5097 42.3851L56.3641 45.277L56.7413 45.3792C59.2841 46.0676 60.4993 51.7259 58.7781 54.8663C58.4195 55.5215 57.8715 56.6359 57.5605 57.3441L56.9948 58.6305L57.2244 59.4074C57.5459 60.4952 57.4962 61.0926 57.0124 61.9479C55.9853 63.7644 55.8193 64.1235 55.7101 64.7608C55.5849 65.4936 55.5353 65.6151 54.5549 67.5892C53.7961 69.1176 53.6973 69.2367 52.0743 70.5573C51.1354 71.321 50.7887 71.5363 50.3215 71.6459C49.7837 71.7723 49.7172 71.6912 49.4732 70.609C49.3419 70.0265 49.1915 70.0341 48.4768 70.6605C48.167 70.9322 47.8623 71.1454 47.7999 71.1347C47.6728 71.112 47.4544 70.5249 47.5187 70.3784C47.5418 70.3259 47.5174 70.0483 47.4656 69.7619C47.3226 68.9805 47.0835 68.8467 46.1114 69.0026C45.2349 69.1436 45.1917 69.1794 44.5916 70.2755C44.2248 70.9441 43.9267 71.1684 43.1506 71.3601C42.3069 71.5688 42.056 71.7829 41.5144 72.7542C40.3595 74.8236 39.3601 75.2933 38.2166 74.3039C37.4833 73.6695 37.0378 73.5162 36.413 73.6846C35.83 73.841 35.1805 73.6284 34.3356 73.0052L33.6859 72.5258L32.5403 72.6274C30.9663 72.7676 30.9986 72.8137 29.792 68.7633C28.8012 65.4395 28.3982 65.2537 26.9626 67.461C26.3559 68.3932 26.3156 68.4103 25.962 67.8864C25.3551 66.9868 24.4148 67.4762 24.0671 68.8718C23.7273 70.2356 22.872 72.1259 22.4998 72.335C22.1276 72.5441 21.9154 72.4391 21.1916 71.6894C20.869 71.3552 20.2141 70.7351 19.7367 70.3126C19.2588 69.8897 18.5297 69.2077 18.1163 68.7973C17.5349 68.2196 17.1162 67.8943 16.2707 67.3611C14.8712 66.4775 14.8953 66.518 14.11 63.7551C13.3737 61.1652 13.5785 61.4242 12.3788 61.5641C10.8582 61.7403 9.09004 61.4308 8.44733 60.8748C8.12156 60.5929 8.11628 60.5703 8.1044 59.4435C8.08997 58.0588 7.90172 57.2798 7.19184 55.657C6.89396 54.9767 6.66402 54.3899 6.6803 54.3528C6.69657 54.3157 6.49464 53.6808 6.23168 52.9418C5.66338 51.347 5.60818 50.6399 5.93976 49.1856C6.26176 47.7756 6.11809 47.3099 4.95677 45.988C4.15091 45.0713 3.91915 44.7228 3.1259 43.2395C2.73282 42.5036 2.56746 42.344 1.61529 41.783C-0.0707445 40.7885 0.0433186 39.5779 2.17819 35.8008C4.05482 32.4817 4.33009 31.5113 3.54288 30.9876C2.95261 30.5949 2.96781 30.4649 3.73341 29.3947C4.77872 27.9339 4.73493 28.077 4.51384 26.8471C4.40564 26.2468 4.29671 25.6065 4.27239 25.4242C4.23108 25.1209 4.19257 25.075 3.81595 24.8829C2.83649 24.384 2.36969 23.6096 1.76865 21.4907C1.21473 19.537 1.21874 19.3335 1.84195 17.6437C2.26957 16.4825 2.34447 16.161 2.37511 15.3503C2.39544 14.8321 2.50556 14.1059 2.6203 13.7371C2.7345 13.3677 2.97425 12.5216 3.15263 11.8569C3.52635 10.461 3.85811 9.88255 5.22127 8.25145C6.48255 6.74307 6.94526 6.61938 7.31076 7.69567C7.60547 8.56358 7.75367 8.52107 8.59511 7.32846C8.92704 6.85716 9.11357 7.02405 9.3426 7.99643C9.7631 9.78202 11.0871 9.47196 12.0096 7.37141L12.5522 6.13583L13.1371 5.85515C13.9638 5.45785 13.9976 5.41228 14.8146 3.5691C15.8827 1.16108 16.2128 0.954148 17.6287 1.80386C18.2681 2.18709 18.8048 2.20375 19.509 1.86171C19.8849 1.67873 20.8677 1.90818 21.4993 2.3264C21.9592 2.63069 22.2652 2.5949 23.5226 2.08789C23.8775 1.94414 24.2269 1.87737 24.2981 1.939C24.5278 2.13773 25.4603 3.932 25.9833 5.1807C26.2625 5.84794 26.6198 6.69998 26.7772 7.07378C27.4309 8.62842 27.9734 8.52261 28.8879 6.66225C29.2773 5.87089 29.5657 5.38944 29.6182 5.4451C29.666 5.49589 29.7852 5.64781 29.8837 5.78262C30.1217 6.10815 30.7385 6.04142 31.1212 5.64871C31.3781 5.38471 31.4169 5.23572 31.5685 3.94828C32.0086 0.211635 32.4447 -0.318237 34.0496 0.935738C34.5537 1.33021 35.0461 1.6665 35.1433 1.68291C35.241 1.6998 35.8506 2.13357 36.4984 2.64683C37.5416 3.47234 37.8217 3.64307 38.9524 4.14293C40.5427 4.84534 40.4371 4.74381 41.0184 6.13033C42.6222 9.95306 42.5025 9.76926 43.1921 9.46733Z" fill="url(#paint0_radial_99_2262)"/>
<defs>
<radialGradient id="paint0_radial_99_2262" cx="0" cy="0" r="1" gradientUnits="userSpaceOnUse" gradientTransform="translate(30.0169 37.564) rotate(90) scale(37.2378 29.5642)">
<stop stop-color="#3D6543" stop-opacity="0.8"/>
<stop offset="1" stop-color="#3D6543" stop-opacity="0.2"/>
</radialGradient>
</defs>
</svg>
