<svg width="269" height="142" viewBox="0 0 269 142" fill="none" xmlns="http://www.w3.org/2000/svg">
<path d="M106.982 6.90213C105.856 4.92307 107.46 2.13019 110.37 1.00382C112.227 0.285079 115.072 0.917394 118.612 2.83597C122.392 4.88561 125.256 5.8449 128.393 6.11137C131.304 6.35767 132.952 6.84739 134.344 7.87438C135.872 9.00363 136.528 9.25281 139.16 9.71373C141.681 10.153 143.297 10.7465 145.034 11.87C145.753 12.3352 146.856 12.8955 147.485 13.1144C149.275 13.7381 150.37 14.6844 154.045 18.7924C161.943 27.6161 163.208 28.5566 167.189 28.5566H168.659L170.143 30.0661C172.311 32.2699 176.189 34.769 178.079 35.1795C178.661 35.3048 178.878 35.1895 179.651 34.3412C181.058 32.7985 181.693 32.944 184.655 35.4805C187.712 38.0991 193.245 40.6831 195.617 40.6024C200.811 40.4224 202.369 40.6644 207.232 42.3971C211.43 43.8937 211.763 44.1097 214.488 47.1244C217.125 50.0426 218.746 51.3145 222.159 53.1408C225.393 54.8722 225.674 55.4498 224.265 57.4548C223.483 58.5682 223.871 59.0377 226.482 60.1353C228.508 60.988 228.626 61.0787 229.473 62.4312C229.989 63.2566 230.558 63.886 230.845 63.9523C233.134 64.4722 234.191 64.5659 237.816 64.5673C243.661 64.5687 246.01 65.0037 250.262 66.8733C253.055 68.1005 254.679 68.3713 260.417 68.5643C265.357 68.7314 265.325 68.717 265.702 71.0014C265.992 72.7673 266.777 74.7795 268.086 77.1201L268.872 78.5245L268.218 79.527C267.858 80.0786 267.233 81.2108 266.828 82.0433C266.424 82.8744 265.791 83.8308 265.422 84.1678C265.041 84.5164 264.579 85.3086 264.355 86.0014C263.118 89.8141 260.53 92.7712 257.625 93.6901C255.189 94.4622 253.991 95.4992 253.337 97.4048C252.997 98.3958 252.489 99.1851 251.5 100.261C250.748 101.079 249.831 102.121 249.459 102.574C248.923 103.231 248.519 103.456 247.469 103.681C246.746 103.835 245.755 104.054 245.268 104.166C243.721 104.523 238.477 106.966 238.231 107.444C238.103 107.692 237.973 108.379 237.942 108.971C237.856 110.626 236.924 111.363 234.905 111.372C234.036 111.375 232.384 111.646 231.036 112.006C229.142 112.511 228.228 112.624 226.36 112.585C225.083 112.557 223.889 112.534 223.706 112.534C223.524 112.533 222.458 112.922 221.335 113.399C218.193 114.731 216.613 114.914 213.625 114.29C209.064 113.34 203.557 114.369 202.381 116.395C201.265 118.313 198.883 119.005 192.304 119.319C182.443 119.788 181.113 120.397 178.04 125.851C174.297 132.492 173.958 132.802 170.299 132.893C167.883 132.953 167.484 133.037 163.665 134.288C161.469 135.009 159.832 135.125 156.479 134.804C154.659 134.63 153.962 134.686 151.281 135.216C149.579 135.552 147.489 135.906 146.638 135.999C145.126 136.169 145.057 136.207 143.557 137.692C141.148 140.08 140.974 140.133 136.777 139.816C134.573 139.651 134.295 139.683 132.023 140.378C127.342 141.809 126.189 141.895 123.508 141.015C115.384 138.35 115.233 138.251 115.45 135.722C115.623 133.719 115.442 133.175 114.411 132.596C113.013 131.811 112.233 131.724 104.841 131.543C96.2596 131.33 95.5975 131.216 95.4834 129.918C95.3958 128.942 94.9699 128.629 92.6479 127.834C90.7133 127.171 90.2555 126.821 90.5859 126.254C91.6209 124.478 88.5053 122.421 84.7821 122.421C84.6534 122.421 84.0324 121.836 83.4009 121.123C82.1204 119.677 81.4079 119.359 78.9505 119.139C76.8899 118.953 76.172 119.33 74.7788 121.332C72.3108 124.878 70.5368 125.718 69.4514 123.851C68.6102 122.404 67.1015 121.723 64.0895 121.43C61.173 121.146 60.7285 120.864 60.3251 119.036C60.0438 117.764 59.2623 116.66 58.6427 116.66C58.1292 116.66 57.6687 115.844 57.2946 114.269C56.7267 111.878 56.4692 111.502 54.7217 110.505C53.034 109.541 52.4554 109.006 50.5182 106.61C48.8609 104.562 47.3947 104.31 40.5096 104.889C36.9894 105.184 36.6749 105.101 36.115 103.719C35.1888 101.441 33.7982 100.095 32.3665 100.095C31.8875 100.095 30.6044 99.5841 28.9803 98.7458C26.0254 97.2205 23.568 96.254 22.6485 96.254C22.1681 96.254 21.9054 96.0451 21.4888 95.3278C20.2866 93.2609 18.149 92.0625 15.2764 91.8464C11.9194 91.5915 11.9791 91.6347 11.8437 89.3892C11.5956 85.3014 9.58007 82.896 5.42429 81.7278C3.34508 81.1416 3.22433 81.0379 3.22433 79.8367C3.22433 79.0675 3.05317 78.5461 2.56089 77.8072C1.65994 76.4575 1.70108 76.2804 3.21106 75.02C3.93421 74.4151 4.74626 73.5725 5.01562 73.1447C5.2863 72.7169 5.69365 72.2013 5.9232 71.9982C6.3133 71.6525 6.239 71.5934 4.72636 71.0662C0.258763 69.5092 0.13271 69.2816 2.55161 67.1096C3.5189 66.2396 4.95989 64.6912 5.75203 63.6671C6.54418 62.643 7.68662 61.3452 8.29035 60.7834C9.80033 59.3805 11.1856 56.4148 11.1856 54.5841C11.1856 52.0649 12.535 51.0826 14.9937 51.8099C15.8788 52.0721 17.5228 52.3602 18.6466 52.4509L20.6887 52.6137L22.1841 51.0653C27.5022 45.5631 30.7252 43.1951 35.2313 41.484C36.663 40.9395 38.8284 40.0032 40.0452 39.4026C42.0607 38.4073 42.415 38.3079 44.0497 38.2878C45.8211 38.2662 45.8502 38.2561 46.6185 37.3717C47.0458 36.8805 47.4823 36.4787 47.5898 36.4772C50.14 36.4657 52.6518 35.3811 52.4727 34.37C52.2922 33.3387 54.6726 31.7269 62.8781 27.3309C69.9768 23.5283 71.1259 22.7952 69.9954 22.7952C66.8985 22.7952 68.6579 16.9717 71.9154 16.4417C73.099 16.2487 73.9137 15.481 74.9009 13.6315C75.4409 12.6175 75.5763 12.521 76.9748 12.1393C77.7975 11.9146 79.6272 11.1584 81.0403 10.457C84.5937 8.69683 85.0926 8.54415 86.7539 8.71267L88.1683 8.85527L89.3691 7.79372C91.2772 6.10705 91.6023 6.06816 97.8744 6.80563C100.855 7.15564 104.231 7.5114 105.378 7.59495L107.464 7.74907L106.982 6.90213Z" fill="url(#paint0_radial_99_2260)"/>
<defs>
<radialGradient id="paint0_radial_99_2260" cx="0" cy="0" r="1" gradientUnits="userSpaceOnUse" gradientTransform="translate(134.928 71.1501) rotate(90) scale(70.4343 133.944)">
<stop stop-color="#3D6543" stop-opacity="0.8"/>
<stop offset="1" stop-color="#3D6543" stop-opacity="0.2"/>
</radialGradient>
</defs>
</svg>
