<svg width="101" height="68" viewBox="0 0 101 68" fill="none" xmlns="http://www.w3.org/2000/svg">
<path d="M63.752 10.5598C65.2647 10.2625 68.2493 10.2514 69.6186 10.5383C70.4678 10.7163 70.7841 10.9461 71.1996 11.6843C72.0499 13.195 72.6882 13.9215 74.383 15.3061C78.197 18.4226 79.2905 19.6721 79.5429 21.1995C79.7908 22.7045 80.2513 23.1312 83.1103 24.505C84.1844 25.0213 84.8387 25.3919 85.4354 25.8225C87.234 27.1201 87.3505 27.1786 89.1911 27.7041C92.4079 28.6227 92.8553 29.7756 91.4671 33.5781C90.4296 36.4199 90.5614 37.5162 91.9957 37.9844C92.938 38.2924 92.9412 38.3077 92.3139 39.6534L91.7551 40.851L92.8047 42.1705L93.8543 43.4901L94.4785 43.617C98.685 44.4723 102.069 49.5915 100.151 52.2003C99.752 52.7447 99.1709 53.6765 98.8607 54.2723L98.2959 55.3545L98.8599 56.0634C99.6498 57.0562 99.725 57.5794 99.1789 58.2885C98.0197 59.7944 97.8491 60.0957 97.8404 60.6484C97.8309 61.2839 97.7837 61.3866 96.739 63.0363C95.9306 64.3137 95.8048 64.4094 93.5735 65.4191C92.2827 66.003 91.7887 66.1597 91.0767 66.2113C90.2571 66.2708 90.1309 66.1926 89.4652 65.2124C89.107 64.6848 88.8707 64.6769 87.8997 65.1612C87.4788 65.3713 87.051 65.5302 86.9494 65.5147C86.742 65.4823 86.2446 64.9422 86.3088 64.8189C86.3318 64.7748 86.2216 64.5271 86.0657 64.2689C85.6378 63.5643 85.2243 63.4229 83.7241 63.4663C82.3717 63.5059 82.3126 63.5334 81.6441 64.444C81.2353 64.9993 80.8207 65.1687 79.6405 65.2629C78.3574 65.3655 78.0149 65.5303 77.4071 66.3363C76.1106 68.0534 74.648 68.3716 72.581 67.3862C71.2556 66.7542 70.5102 66.5755 69.5636 66.6637C68.6801 66.7454 67.5961 66.4945 66.0967 65.8617L64.9437 65.3748L63.1545 65.3535C60.6965 65.3247 60.7597 65.3686 57.8037 61.6714C55.3769 58.6373 54.6905 58.4339 52.9847 60.2457C52.2636 61.0108 52.2042 61.022 51.5088 60.5246C50.3153 59.6706 48.9515 60.012 48.7603 61.2118C48.5734 62.3842 47.7054 63.9721 47.1695 64.1208C46.6337 64.2695 46.2703 64.1562 44.9302 63.4232C44.3329 63.0965 43.1353 62.4848 42.2699 62.0651C41.4036 61.6449 40.0725 60.9713 39.3117 60.5685C38.2416 60.0014 37.4943 59.6733 36.0171 59.1199C33.5717 58.2031 33.6204 58.2413 31.6639 55.723C29.8296 53.3623 30.2208 53.6111 28.3558 53.6183C25.9919 53.6266 23.1103 53.1814 21.9486 52.6276C21.3597 52.3468 21.3455 52.3263 21.0362 51.3292C20.6564 50.1038 20.1573 49.3971 18.6142 47.8937C17.9668 47.2635 17.4512 46.7225 17.4674 46.6913C17.4837 46.6602 17 46.0793 16.3929 45.4006C15.0813 43.9358 14.8115 43.3055 14.9621 42.0521C15.1089 40.8372 14.7611 40.4115 12.5802 39.1304C11.067 38.2419 10.6099 37.9115 8.97065 36.5233C8.15811 35.8348 7.85495 35.6777 6.20157 35.0894C3.27361 34.0467 3.1423 32.9878 5.55149 29.8564C7.66952 27.1047 7.85556 26.2737 6.4732 25.7344C5.43667 25.33 5.42724 25.2165 6.36449 24.3449C7.6443 23.1551 7.6118 23.2774 6.94444 22.1688C6.61824 21.6277 6.28059 21.0512 6.19506 20.8876C6.05143 20.6156 5.97858 20.5713 5.33229 20.3649C3.65169 19.8289 2.71239 19.0991 1.21384 17.1679C-0.167487 15.3873 -0.21358 15.2078 0.338339 13.7746C0.716614 12.7898 0.752414 12.5128 0.592005 11.7993C0.490631 11.3432 0.477928 10.712 0.564665 10.3971C0.650404 10.0817 0.812196 9.35708 0.923503 8.78683C1.15587 7.5893 1.53244 7.11018 3.272 5.80072C4.88173 4.58984 5.58304 4.52542 6.43962 5.51221C7.13033 6.30796 7.3542 6.28476 8.38009 5.31226C8.78456 4.92788 9.12315 5.0935 9.7367 5.9752C10.8633 7.5943 12.8813 7.4487 13.8015 5.68153L14.3428 4.64205L15.1974 4.45072C16.4049 4.17975 16.4466 4.14275 17.2661 2.59284C18.3379 0.568026 18.8076 0.417151 21.2702 1.3056C22.3821 1.70637 23.2369 1.77318 24.2644 1.53917C24.813 1.41392 26.4294 1.71208 27.538 2.14303C28.3452 2.45663 28.8209 2.45468 30.6825 2.12854C31.2079 2.03592 31.7442 2.0108 31.873 2.07218C32.2882 2.27013 34.2283 3.94657 35.3788 5.10104C35.9933 5.71791 36.7791 6.5057 37.1248 6.85137C38.5614 8.28895 39.3937 8.24806 40.3632 6.69242C40.7763 6.03072 41.1092 5.63315 41.2067 5.68745C41.2956 5.73698 41.5236 5.88282 41.7145 6.01154C42.1755 6.32237 43.1356 6.32324 43.6409 6.01326C43.9799 5.80484 44.0029 5.6769 43.9113 4.55365C43.6454 1.29352 44.1999 0.867486 47.0661 2.1316C47.9666 2.52919 48.8335 2.87421 48.9917 2.89815C49.1509 2.92256 50.2286 3.36511 51.3874 3.88164C53.2533 4.71254 53.7411 4.89063 55.6615 5.44216C58.3625 6.21733 58.1691 6.11735 59.4476 7.39929C62.9742 10.9338 62.7371 10.7598 63.752 10.5598Z" fill="url(#paint0_radial_99_2261)"/>
<defs>
<radialGradient id="paint0_radial_99_2261" cx="0" cy="0" r="1" gradientUnits="userSpaceOnUse" gradientTransform="translate(50.0237 33.5448) rotate(117.506) scale(29.3256 55.1645)">
<stop stop-color="#3D6543" stop-opacity="0.8"/>
<stop offset="1" stop-color="#3D6543" stop-opacity="0.2"/>
</radialGradient>
</defs>
</svg>
