<svg width="104" height="95" viewBox="0 0 104 95" fill="none" xmlns="http://www.w3.org/2000/svg">
<path d="M98.3905 66.9486C98.5717 67.6674 98.7411 68.4122 98.7654 68.6038C98.8753 69.4501 97.8606 70.017 95.6154 70.3656C94.7372 70.5018 93.901 70.6732 93.7573 70.7463C92.9634 71.1495 92.6611 72.6263 93.1158 73.8836C93.4826 74.8975 93.5496 74.7722 92.4777 75.08C91.2312 75.4382 91.0412 75.5548 90.1992 76.4789C89.2003 77.5764 88.9847 77.6407 86.0732 77.7041C82.9189 77.7732 81.6168 78.1117 81.2296 78.9655C81.028 79.4108 80.89 79.5482 80.3759 79.814C79.5854 80.2238 79.472 80.4224 79.6503 81.0934C80.2005 83.169 79.3886 83.8471 75.507 84.5502C71.9121 85.202 70.854 85.8046 69.7675 87.8201C68.9505 89.335 67.7603 89.6789 65.7798 88.9715C63.9422 88.3147 64.0635 88.3233 61.8961 88.6998C60.4498 88.9509 59.6623 89.0184 59.1738 88.9331L58.4864 88.814L58.152 89.553C56.9205 92.2694 56.1469 92.7093 53.9868 91.9243C53.5627 91.7701 52.8959 91.6394 52.5037 91.6334C51.7913 91.6224 51.582 91.6873 48.5802 92.861C45.8262 93.9375 42.0847 94.6671 39.6023 94.611C37.9725 94.5742 37.1833 94.3218 34.8565 93.0923C33.7205 92.4919 32.5324 91.8902 32.217 91.7552C31.404 91.4075 31.0673 91.0091 30.3214 89.5175C29.019 86.9098 28.5061 86.5391 26.6106 86.8324C24.3735 87.1788 23.1946 86.867 23.3503 85.9713C23.5179 85.009 22.9206 84.537 21.513 84.5196C20.394 84.5061 20.0414 84.2955 19.8431 83.5246C19.6769 82.8763 19.6737 80.9354 19.8375 80.2016L19.9395 79.7462L19.2996 79.6881L18.6603 79.6304L18.0891 78.9648C17.137 77.8556 15.4873 76.8856 14.0367 76.5821C12.2923 76.2171 11.6473 75.8653 11.2474 75.0589C10.5612 73.6746 9.49762 73.1747 5.63413 72.4215C3.46221 71.9987 3.05189 71.8048 2.71378 71.0412C2.5681 70.7128 2.1173 69.9332 1.71117 69.3085C0.599889 67.5997 0.534113 66.9838 1.40316 66.4021C2.86646 65.4236 3.0032 65.1135 3.48268 61.6931C3.54651 61.2383 3.57049 60.4492 3.5354 59.9386C3.41321 58.1634 3.82617 57.3511 5.05874 56.9418C7.02231 56.2899 7.76983 55.2969 8.60549 52.2307C9.31449 49.6275 9.46595 49.4823 11.455 49.4965L12.3054 49.5029L12.4701 49.0456C12.8061 48.1129 13.8167 46.3966 14.5659 45.4876C17.596 41.8125 18.2419 40.3901 18.366 37.125C18.413 35.8934 18.522 34.7729 18.6093 34.635C18.8884 34.1939 20.2169 33.3492 21.2674 32.9454C23.0063 32.2767 23.9993 30.6434 23.6208 29.0761C23.5042 28.5942 23.5884 28.4671 24.2669 28.1089C25.0183 27.7116 25.4697 27.318 26.3018 26.3318C27.3216 25.1237 27.512 25.008 29.2949 24.5072C31.9102 23.7724 33.0425 23.187 33.3621 22.4058C33.4886 22.0968 33.7595 21.7807 34.24 21.3844L34.9347 20.8096L35.0035 19.9018C35.139 18.1062 35.9708 17.2802 38.8772 16.0511C41.2358 15.0543 42.4851 14.0003 43.5003 12.1499C44.4124 10.4876 45.5281 9.91053 47.0614 10.3088C47.8707 10.519 48.1808 10.4547 49.4589 9.81068C50.0178 9.52939 50.859 9.22634 51.3267 9.13693C52.1054 8.98926 52.1893 8.94329 52.3136 8.59464C52.3883 8.38542 52.8116 7.63147 53.2539 6.92062C54.248 5.3246 54.4777 5.18718 55.9047 5.32922C57.0898 5.44751 57.5606 5.27702 59.1597 4.15278C64.3453 0.509524 67.942 -0.591626 70.2678 0.752946C70.7315 1.02086 71.3746 1.32632 71.6979 1.43233C72.5088 1.69818 72.6566 1.92457 72.9133 3.29616C73.1465 4.53916 73.2602 4.79113 73.9162 5.5153C74.6803 6.3584 74.6289 7.18942 73.7726 7.84493C73.5257 8.03339 73.543 8.04494 74.4769 8.33749C74.8744 8.46223 75.3789 8.66706 75.5978 8.79312C75.8644 8.94683 76.1457 9.00115 76.4526 8.9569C76.9682 8.88433 77.186 9.04959 77.2415 9.55478C77.322 10.2981 77.7792 10.5419 78.8806 10.4311L79.4842 10.3704L79.6871 10.7398C80.2682 11.7958 81.0938 12.2836 82.4413 12.3662C83.7143 12.444 83.8466 12.5277 84.1124 13.4174C84.4262 14.4703 84.8903 14.6673 87.0908 14.682C89.0491 14.6956 89.4506 14.8094 89.4997 15.368C89.5193 15.5834 89.7015 16.3067 89.9058 16.9755C90.3854 18.5489 90.3442 18.6768 88.843 20.2393C88.5575 20.5367 88.2449 20.9708 88.1479 21.2047C87.7755 22.1007 87.4678 22.9678 87.5128 22.9938C87.5383 23.0087 87.9842 23.0911 88.5036 23.177C89.6992 23.3742 89.9422 23.5174 90.0855 24.1094C90.3543 25.2214 90.1245 25.8982 89.1727 26.8017C88.0759 27.8433 88.2253 28.0956 90.8324 29.6079C93.6252 31.227 93.7006 31.635 91.588 33.6947C89.1599 36.0633 89.1662 36.0756 94.7228 39.4448C96.852 40.7357 98.8461 41.953 99.1542 42.1503L99.7147 42.5087L99.6985 44.3891C99.6765 46.879 99.8851 47.5082 101.432 49.6281C103.886 52.9917 103.731 55.3914 100.869 58.3587C100.414 58.8294 99.7803 59.7047 98.9904 60.953C97.4867 63.3288 97.4834 63.3565 98.3905 66.9486Z" fill="url(#paint0_radial_99_2264)"/>
<defs>
<radialGradient id="paint0_radial_99_2264" cx="0" cy="0" r="1" gradientUnits="userSpaceOnUse" gradientTransform="translate(59.2744 50.8112) rotate(-149.909) scale(43.1196 49.0196)">
<stop stop-color="#3D6543" stop-opacity="0.8"/>
<stop offset="1" stop-color="#3D6543" stop-opacity="0.2"/>
</radialGradient>
</defs>
</svg>
