<svg width="60" height="76" viewBox="0 0 60 76" fill="none" xmlns="http://www.w3.org/2000/svg">
<path d="M43.2033 9.85893C44.231 9.40978 46.1509 9.18643 46.977 9.42039C47.4893 9.56545 47.6495 9.80792 47.7782 10.6289C48.0415 12.3092 48.3155 13.101 49.145 14.5764C51.0118 17.8973 51.4803 19.2595 51.3563 21.0012C51.2336 22.7173 51.4495 23.1763 53.0291 24.5572C53.6226 25.0761 53.9735 25.4569 54.2763 25.9108C55.1889 27.2787 55.2528 27.3379 56.337 27.8133C58.2318 28.6447 58.3033 29.941 56.6987 34.4192C55.4996 37.7659 55.3788 39.0194 56.2127 39.4577C56.7605 39.7459 56.7597 39.7633 56.1044 41.3578L55.521 42.7767L56.3753 45.6686L56.7526 45.7708C59.2953 46.4592 60.5105 52.1175 58.7893 55.2579C58.4308 55.9131 57.8827 57.0275 57.5717 57.7357L57.0061 59.0221L57.2356 59.799C57.5571 60.8868 57.5074 61.4842 57.0236 62.3395C55.9966 64.156 55.8305 64.5151 55.7213 65.1524C55.5961 65.8852 55.5465 66.0067 54.5661 67.9808C53.8073 69.5092 53.7085 69.6283 52.0855 70.9489C51.1467 71.7126 50.7999 71.9279 50.3327 72.0375C49.7949 72.1639 49.7284 72.0828 49.4844 71.0006C49.3531 70.4181 49.2027 70.4257 48.488 71.0521C48.1782 71.3238 47.8735 71.537 47.8112 71.5263C47.684 71.5036 47.4656 70.9165 47.53 70.77C47.553 70.7175 47.5286 70.4399 47.4768 70.1535C47.3339 69.3721 47.0947 69.2383 46.1226 69.3942C45.2461 69.5352 45.203 69.571 44.6028 70.6671C44.236 71.3357 43.9379 71.56 43.1619 71.7517C42.3182 71.9604 42.0672 72.1745 41.5256 73.1458C40.3708 75.2152 39.3713 75.6849 38.2278 74.6955C37.4945 74.0611 37.0491 73.9078 36.4243 74.0762C35.8412 74.2326 35.1917 74.02 34.3468 73.3968L33.6972 72.9174L32.5515 73.019C30.9775 73.1592 31.0098 73.2053 29.8032 69.1549C28.8125 65.8311 28.4095 65.6453 26.9738 67.8526C26.3671 68.7848 26.3268 68.8019 25.9732 68.278C25.3663 67.3784 24.4261 67.8678 24.0784 69.2634C23.7385 70.6272 22.8833 72.5175 22.5111 72.7266C22.1389 72.9357 21.9266 72.8307 21.2029 72.081C20.8803 71.7468 20.2253 71.1267 19.7479 70.7042C19.27 70.2813 18.5409 69.5993 18.1275 69.1889C17.5462 68.6112 17.1275 68.2859 16.282 67.7527C14.8824 66.8691 14.9065 66.9096 14.1213 64.1467C13.385 61.5568 13.5897 61.8158 12.39 61.9557C10.8695 62.1319 9.10127 61.8224 8.45856 61.2664C8.13279 60.9845 8.12751 60.9619 8.11563 59.8351C8.1012 58.4504 7.91295 57.6714 7.20307 56.0486C6.90519 55.3683 6.67525 54.7815 6.69153 54.7444C6.7078 54.7073 6.50587 54.0724 6.24291 53.3334C5.67462 51.7386 5.61941 51.0315 5.951 49.5772C6.27299 48.1672 6.12932 47.7015 4.968 46.3796C4.16214 45.4629 3.93038 45.1144 3.13713 43.6311C2.74405 42.8952 2.57869 42.7356 1.62652 42.1746C-0.059514 41.1801 0.0545491 39.9695 2.18942 36.1924C4.06605 32.8733 4.34132 31.9029 3.55411 31.3792C2.96385 30.9865 2.97905 30.8565 3.74464 29.7863C4.78995 28.3255 4.74616 28.4686 4.52507 27.2387C4.41687 26.6384 4.30794 25.9981 4.28362 25.8158C4.24231 25.5125 4.2038 25.4666 3.82718 25.2745C2.84772 24.7756 2.38092 24.0012 1.77988 21.8823C1.22596 19.9286 1.22997 19.7251 1.85318 18.0353C2.2808 16.8741 2.3557 16.5526 2.38635 15.7419C2.40667 15.2237 2.51679 14.4976 2.63153 14.1287C2.74573 13.7593 2.98548 12.9132 3.16386 12.2485C3.53758 10.8526 3.86934 10.2741 5.2325 8.64305C6.49378 7.13467 6.95649 7.01098 7.32199 8.08727C7.6167 8.95518 7.7649 8.91267 8.60634 7.72007C8.93827 7.24876 9.1248 7.41565 9.35383 8.38803C9.77433 10.1736 11.0984 9.86356 12.0208 7.76301L12.5634 6.52743L13.1484 6.24675C13.9751 5.84945 14.0088 5.80388 14.8258 3.96071C15.894 1.55268 16.2241 1.34575 17.64 2.19547C18.2793 2.57869 18.816 2.59536 19.5202 2.25331C19.8962 2.07033 20.8789 2.29978 21.5105 2.718C21.9704 3.02229 22.2765 2.9865 23.5338 2.47949C23.8888 2.33575 24.2381 2.26897 24.3093 2.3306C24.539 2.52933 25.4716 4.3236 25.9945 5.57231C26.2737 6.23954 26.631 7.09158 26.7884 7.46538C27.4422 9.02002 27.9846 8.91421 28.8991 7.05385C29.2885 6.26249 29.5769 5.78104 29.6294 5.8367C29.6772 5.8875 29.7964 6.03941 29.8949 6.17422C30.133 6.49975 30.7497 6.43302 31.1325 6.04031C31.3894 5.77632 31.4281 5.62732 31.5798 4.33988C32.0198 0.603237 32.456 0.0733643 34.0608 1.32734C34.565 1.72182 35.0573 2.0581 35.1545 2.07451C35.2522 2.0914 35.8618 2.52517 36.5096 3.03843C37.5529 3.86395 37.8329 4.03468 38.9636 4.53453C40.5539 5.23694 40.4484 5.13541 41.0297 6.52193C42.6334 10.3447 42.5137 10.1609 43.2033 9.85893Z" fill="url(#paint0_radial_101_309)"/>
<defs>
<radialGradient id="paint0_radial_101_309" cx="0" cy="0" r="1" gradientUnits="userSpaceOnUse" gradientTransform="translate(30.0281 37.9556) rotate(90) scale(37.2378 29.5642)">
<stop stop-color="#3D6543" stop-opacity="0.8"/>
<stop offset="1" stop-color="#3D6543" stop-opacity="0.2"/>
</radialGradient>
</defs>
</svg>
